G04*
G04 #@! TF.GenerationSoftware,Altium Limited,Altium Designer,22.8.2 (66)*
G04*
G04 Layer_Color=16711935*
%FSLAX44Y44*%
%MOMM*%
G71*
G04*
G04 #@! TF.SameCoordinates,4EFE7699-17C8-4AF9-A536-91C0C68ECE63*
G04*
G04*
G04 #@! TF.FilePolarity,Negative*
G04*
G01*
G75*
%ADD26R,1.9532X1.9532*%
%ADD27C,1.9532*%
%ADD28R,1.9532X1.9532*%
%ADD29C,0.2032*%
%ADD30C,8.2032*%
%ADD31C,1.7032*%
%ADD32C,2.2032*%
%ADD33C,5.2032*%
%ADD34C,3.7032*%
%ADD35C,1.8032*%
%ADD36C,2.9032*%
%ADD37C,6.2032*%
%ADD38C,1.4732*%
D26*
X442710Y602840D02*
D03*
X865092Y305780D02*
D03*
X150700Y1035270D02*
D03*
X265000D02*
D03*
X707124Y104238D02*
D03*
X1170642Y915550D02*
D03*
X122670Y252320D02*
D03*
X367870Y104360D02*
D03*
X311990D02*
D03*
X1037931Y586980D02*
D03*
Y761980D02*
D03*
X1037931Y1131980D02*
D03*
Y956980D02*
D03*
X1804372Y1240980D02*
D03*
Y1065980D02*
D03*
Y695980D02*
D03*
Y870980D02*
D03*
D27*
X442710Y577440D02*
D03*
X417310Y602840D02*
D03*
Y577440D02*
D03*
X391910Y602840D02*
D03*
Y577440D02*
D03*
X366510Y602840D02*
D03*
Y577440D02*
D03*
X758940Y469490D02*
D03*
Y444090D02*
D03*
Y418690D02*
D03*
X1903240Y484215D02*
D03*
Y458815D02*
D03*
Y433415D02*
D03*
Y408015D02*
D03*
X890492Y305780D02*
D03*
X1094442Y469140D02*
D03*
Y443740D02*
D03*
X1983340Y458815D02*
D03*
Y433415D02*
D03*
Y484215D02*
D03*
Y408015D02*
D03*
X758940Y330420D02*
D03*
X164580Y726190D02*
D03*
Y700790D02*
D03*
Y675390D02*
D03*
X758940Y534890D02*
D03*
Y560290D02*
D03*
Y585690D02*
D03*
X226900Y1035270D02*
D03*
X201500D02*
D03*
X176100D02*
D03*
X341200D02*
D03*
X315800D02*
D03*
X290400D02*
D03*
X630924Y104238D02*
D03*
X656324D02*
D03*
X681724D02*
D03*
X1480924Y298160D02*
D03*
X1145242Y915550D02*
D03*
X97270Y252320D02*
D03*
X342470Y104360D02*
D03*
X286590D02*
D03*
X1480924Y453100D02*
D03*
X1012531Y586980D02*
D03*
Y761980D02*
D03*
X1012531Y1131980D02*
D03*
Y956980D02*
D03*
X1829772Y1240980D02*
D03*
Y1065980D02*
D03*
Y695980D02*
D03*
Y870980D02*
D03*
D28*
X758940Y494890D02*
D03*
X1094442Y494540D02*
D03*
X758940Y355820D02*
D03*
X164580Y649990D02*
D03*
X758940Y611090D02*
D03*
X1480924Y478500D02*
D03*
Y323560D02*
D03*
D29*
X1881640Y458815D02*
D03*
X1961740D02*
D03*
D30*
X155450Y1181480D02*
D03*
X155450Y181480D02*
D03*
X878542Y370550D02*
D03*
X2096152Y176480D02*
D03*
X1147365Y596480D02*
D03*
X1688960D02*
D03*
X1688960Y1231480D02*
D03*
X1147365D02*
D03*
X1688960Y1021630D02*
D03*
X1688960Y806330D02*
D03*
D31*
X1907195Y215050D02*
D03*
Y165050D02*
D03*
X1980855Y215050D02*
D03*
Y165050D02*
D03*
D32*
X1829772Y1013460D02*
D03*
X1804372D02*
D03*
X991870Y523240D02*
D03*
X966470D02*
D03*
X1511300Y154387D02*
D03*
Y128987D02*
D03*
X971550Y154387D02*
D03*
Y128987D02*
D03*
X1829772Y642620D02*
D03*
X1804372D02*
D03*
X1012531Y892810D02*
D03*
X1037931D02*
D03*
D33*
X1147374Y250000D02*
D03*
X1688968D02*
D03*
D34*
X2171700Y726340D02*
D03*
Y886340D02*
D03*
D35*
X2283460Y726338D02*
D03*
Y886338D02*
D03*
X2067560Y626110D02*
D03*
X2143760D02*
D03*
X2067560Y600710D02*
D03*
Y575310D02*
D03*
Y549910D02*
D03*
X2143760D02*
D03*
D36*
X2096152Y408015D02*
D03*
Y458815D02*
D03*
Y281015D02*
D03*
Y331815D02*
D03*
D37*
X775450Y1030830D02*
D03*
X95450D02*
D03*
X775450Y110830D02*
D03*
X95450D02*
D03*
D38*
X327230Y1153660D02*
D03*
X284193D02*
D03*
X241157D02*
D03*
X198120D02*
D03*
X90350Y674710D02*
D03*
X649830Y585470D02*
D03*
X649830Y534890D02*
D03*
X649830Y418690D02*
D03*
X1955800Y552450D02*
D03*
X1944370Y585470D02*
D03*
X1192020Y494540D02*
D03*
M02*
