M48
;Layer_Color=9474304
;FILE_FORMAT=4:4
METRIC,LZ
;TYPE=PLATED
T1F00S00C0.7112
T2F00S00C0.8000
T3F00S00C0.9000
T4F00S00C1.0000
T5F00S00C1.2500
T6F00S00C1.5000
T7F00S00C3.2000
T8F00S00C4.0000
T9F00S00C5.5000
T10F00S00C12.0000
%
T01
X019558Y0055245
X0194437Y0058547
X0119202Y0049454
X0064983Y0053489
X0064983Y0058547
X0064983Y0041869
X0009035Y0067471
X0019812Y0115366
X00241157
X00284193
X0032723
T02
X01907195Y0016505
Y0021505
X01980855
Y0016505
T03
X0009727Y0025232
X0012267
X0028659Y0010436
X0031199
X0034247
X0036787
X00630924Y00104238
X00656324
X00681724
X00707124
X0075894Y0033042
Y0035582
X00865092Y0030578
X00890492
X01480924Y0029816
Y0032356
X0206756Y0054991
Y0057531
Y0060071
Y0062611
X0214376
Y0054991
X01829772Y0069598
X01804372
X01480924Y004785
Y004531
X01094442Y0044374
Y0046914
Y0049454
X01037931Y0058698
X01012531
Y0076198
X01037931
X0075894Y0061109
Y0058569
Y0056029
Y0053489
Y0049489
Y0046949
Y0044409
Y0041869
X0044271Y0057744
Y0060284
X0041731
Y0057744
X0039191
Y0060284
X0036651
Y0057744
X0016458Y0064999
Y0067539
Y0070079
Y0072619
X001761Y0103527
X002015
X002269
X00265
X002904
X003158
X003412
X001507
X01012531Y0095698
X01037931
X01145242Y0091555
X01170642
X01037931Y0113198
X01012531
X01804372Y0106598
X01829772
Y0087098
X01804372
Y0124098
X01829772
T04
X0097155Y00128987
Y00154387
X015113
Y00128987
X0190324Y00408015
Y00433415
Y00458815
Y00484215
X0198334
Y00458815
Y00433415
Y00408015
X01829772Y0064262
X01804372
X0099187Y0052324
X0096647
X01012531Y0089281
X01037931
X01804372Y0101346
X01829772
T05
X0188164Y00458815
X0196174
T06
X02096152Y00281015
Y00331815
Y00408015
Y00458815
X021717Y0072634
Y0088634
T07
X0009545Y0011083
X0077545
X01147374Y0025
X01688968
X0009545Y0103083
X0077545
T08
X0015545Y0018148
X00878542Y0037055
X02096152Y0017648
X0168896Y0059648
X01147365
X0015545Y0118148
X0168896Y0123148
X01147365
T09
X0228346Y00726338
Y00886338
T10
X0168896Y0080633
X0168896Y0102163
M30
