G04*
G04 #@! TF.GenerationSoftware,Altium Limited,Altium Designer,22.8.2 (66)*
G04*
G04 Layer_Physical_Order=2*
G04 Layer_Color=16711680*
%FSLAX44Y44*%
%MOMM*%
G71*
G04*
G04 #@! TF.SameCoordinates,4EFE7699-17C8-4AF9-A536-91C0C68ECE63*
G04*
G04*
G04 #@! TF.FilePolarity,Positive*
G04*
G01*
G75*
%ADD46R,1.7500X1.7500*%
%ADD47C,1.7500*%
%ADD48R,1.7500X1.7500*%
%ADD49C,8.0000*%
%ADD50C,1.5000*%
%ADD51C,2.0000*%
%ADD52C,5.0000*%
%ADD53C,3.5000*%
%ADD54C,1.6000*%
%ADD55C,2.7000*%
%ADD56C,6.0000*%
%ADD57C,1.2700*%
G36*
X2167860Y941070D02*
X2168057Y940079D01*
X2168619Y939239D01*
X2169459Y938678D01*
X2170450Y938480D01*
Y906380D01*
X2169726D01*
X2165854Y905610D01*
X2162207Y904099D01*
X2158925Y901906D01*
X2156134Y899115D01*
X2153941Y895833D01*
X2152430Y892186D01*
X2151660Y888314D01*
Y884366D01*
X2152430Y880495D01*
X2153941Y876848D01*
X2156134Y873565D01*
X2158925Y870774D01*
X2162207Y868581D01*
X2165854Y867070D01*
X2169726Y866300D01*
X2170450D01*
Y746380D01*
X2169726D01*
X2165854Y745610D01*
X2162207Y744099D01*
X2158925Y741906D01*
X2156134Y739115D01*
X2153941Y735833D01*
X2152430Y732186D01*
X2151660Y728314D01*
Y724366D01*
X2152430Y720495D01*
X2153941Y716848D01*
X2156134Y713565D01*
X2158925Y710774D01*
X2162207Y708581D01*
X2165854Y707070D01*
X2169726Y706300D01*
X2170450D01*
Y674420D01*
X2169459Y674222D01*
X2168618Y673661D01*
X2168057Y672821D01*
X2167860Y671830D01*
X2167860Y73420D01*
X670450D01*
X58039Y73419D01*
X58039Y1278890D01*
X1236131Y1278890D01*
X1236131Y557530D01*
X1236328Y556539D01*
X1236889Y555699D01*
X1237729Y555137D01*
X1238720Y554940D01*
X1605500Y554940D01*
X1606491Y555137D01*
X1607331Y555699D01*
X1607892Y556539D01*
X1608089Y557530D01*
X1608089Y1278890D01*
X1753870D01*
Y589280D01*
X1917700Y589280D01*
X1938020Y609600D01*
X1951040D01*
X1979420Y637980D01*
X1979420Y1278890D01*
X2167860D01*
Y941070D01*
D02*
G37*
%LPC*%
G36*
X1691748Y1274020D02*
X1686172D01*
X1680643Y1273292D01*
X1675257Y1271849D01*
X1670105Y1269715D01*
X1665275Y1266927D01*
X1660851Y1263532D01*
X1656908Y1259589D01*
X1653513Y1255165D01*
X1650725Y1250335D01*
X1648591Y1245183D01*
X1647148Y1239797D01*
X1646420Y1234268D01*
Y1228692D01*
X1647148Y1223163D01*
X1648591Y1217777D01*
X1650725Y1212625D01*
X1653513Y1207795D01*
X1656908Y1203371D01*
X1660851Y1199428D01*
X1665275Y1196033D01*
X1670105Y1193245D01*
X1675257Y1191111D01*
X1680643Y1189668D01*
X1686172Y1188940D01*
X1691748D01*
X1697277Y1189668D01*
X1702663Y1191111D01*
X1707815Y1193245D01*
X1712645Y1196033D01*
X1717069Y1199428D01*
X1721012Y1203371D01*
X1724407Y1207795D01*
X1727195Y1212625D01*
X1729329Y1217777D01*
X1730772Y1223163D01*
X1731500Y1228692D01*
Y1234268D01*
X1730772Y1239797D01*
X1729329Y1245183D01*
X1727195Y1250335D01*
X1724407Y1255165D01*
X1721012Y1259589D01*
X1717069Y1263532D01*
X1712645Y1266927D01*
X1707815Y1269715D01*
X1702663Y1271849D01*
X1697277Y1273292D01*
X1691748Y1274020D01*
D02*
G37*
G36*
X1150153D02*
X1144577D01*
X1139048Y1273292D01*
X1133662Y1271849D01*
X1128510Y1269715D01*
X1123680Y1266927D01*
X1119256Y1263532D01*
X1115313Y1259589D01*
X1111918Y1255165D01*
X1109130Y1250335D01*
X1106996Y1245183D01*
X1105553Y1239797D01*
X1104825Y1234268D01*
Y1228692D01*
X1105553Y1223163D01*
X1106996Y1217777D01*
X1109130Y1212625D01*
X1111918Y1207795D01*
X1115313Y1203371D01*
X1119256Y1199428D01*
X1123680Y1196033D01*
X1128510Y1193245D01*
X1133662Y1191111D01*
X1139048Y1189668D01*
X1144577Y1188940D01*
X1150153D01*
X1155682Y1189668D01*
X1161068Y1191111D01*
X1166220Y1193245D01*
X1171050Y1196033D01*
X1175474Y1199428D01*
X1179417Y1203371D01*
X1182812Y1207795D01*
X1185600Y1212625D01*
X1187734Y1217777D01*
X1189177Y1223163D01*
X1189905Y1228692D01*
Y1234268D01*
X1189177Y1239797D01*
X1187734Y1245183D01*
X1185600Y1250335D01*
X1182812Y1255165D01*
X1179417Y1259589D01*
X1175474Y1263532D01*
X1171050Y1266927D01*
X1166220Y1269715D01*
X1161068Y1271849D01*
X1155682Y1273292D01*
X1150153Y1274020D01*
D02*
G37*
G36*
X158238Y1224020D02*
X152662D01*
X147133Y1223292D01*
X141747Y1221849D01*
X136595Y1219715D01*
X131765Y1216927D01*
X127341Y1213532D01*
X123398Y1209589D01*
X120003Y1205165D01*
X117215Y1200335D01*
X115081Y1195183D01*
X113638Y1189797D01*
X112910Y1184268D01*
Y1178692D01*
X113638Y1173163D01*
X115081Y1167777D01*
X117215Y1162625D01*
X120003Y1157795D01*
X123398Y1153371D01*
X127341Y1149428D01*
X131765Y1146033D01*
X136595Y1143245D01*
X141747Y1141111D01*
X147133Y1139668D01*
X152662Y1138940D01*
X158238D01*
X163767Y1139668D01*
X169153Y1141111D01*
X174305Y1143245D01*
X179135Y1146033D01*
X183559Y1149428D01*
X187502Y1153371D01*
X190897Y1157795D01*
X193685Y1162625D01*
X195819Y1167777D01*
X197262Y1173163D01*
X197990Y1178692D01*
Y1184268D01*
X197262Y1189797D01*
X195819Y1195183D01*
X193685Y1200335D01*
X190897Y1205165D01*
X187502Y1209589D01*
X183559Y1213532D01*
X179135Y1216927D01*
X174305Y1219715D01*
X169153Y1221849D01*
X163767Y1223292D01*
X158238Y1224020D01*
D02*
G37*
G36*
X342686Y1046560D02*
X342470D01*
Y1036540D01*
X352490D01*
Y1036756D01*
X351721Y1039628D01*
X350234Y1042202D01*
X348132Y1044304D01*
X345558Y1045790D01*
X342686Y1046560D01*
D02*
G37*
G36*
X339930D02*
X339714D01*
X336842Y1045790D01*
X334268Y1044304D01*
X332166Y1042202D01*
X330679Y1039628D01*
X329910Y1036756D01*
Y1036540D01*
X339930D01*
Y1046560D01*
D02*
G37*
G36*
X778011Y1063370D02*
X776720D01*
Y1032100D01*
X807990D01*
Y1033391D01*
X807189Y1038449D01*
X805606Y1043321D01*
X803281Y1047884D01*
X800270Y1052028D01*
X796648Y1055650D01*
X792505Y1058660D01*
X787941Y1060986D01*
X783070Y1062569D01*
X778011Y1063370D01*
D02*
G37*
G36*
X774180D02*
X772889D01*
X767830Y1062569D01*
X762959Y1060986D01*
X758395Y1058660D01*
X754251Y1055650D01*
X750630Y1052028D01*
X747619Y1047884D01*
X745294Y1043321D01*
X743711Y1038449D01*
X742910Y1033391D01*
Y1032100D01*
X774180D01*
Y1063370D01*
D02*
G37*
G36*
X98011D02*
X96720D01*
Y1032100D01*
X127990D01*
Y1033391D01*
X127189Y1038449D01*
X125606Y1043321D01*
X123281Y1047884D01*
X120270Y1052028D01*
X116648Y1055650D01*
X112505Y1058660D01*
X107941Y1060986D01*
X103070Y1062569D01*
X98011Y1063370D01*
D02*
G37*
G36*
X94180D02*
X92889D01*
X87830Y1062569D01*
X82959Y1060986D01*
X78395Y1058660D01*
X74251Y1055650D01*
X70630Y1052028D01*
X67619Y1047884D01*
X65294Y1043321D01*
X63711Y1038449D01*
X62910Y1033391D01*
Y1032100D01*
X94180D01*
Y1063370D01*
D02*
G37*
G36*
X352490Y1034000D02*
X342470D01*
Y1023980D01*
X342686D01*
X345558Y1024749D01*
X348132Y1026236D01*
X350234Y1028337D01*
X351721Y1030912D01*
X352490Y1033783D01*
Y1034000D01*
D02*
G37*
G36*
X339930D02*
X329910D01*
Y1033783D01*
X330679Y1030912D01*
X332166Y1028337D01*
X334268Y1026236D01*
X336842Y1024749D01*
X339714Y1023980D01*
X339930D01*
Y1034000D01*
D02*
G37*
G36*
X317286Y1046560D02*
X314314D01*
X311442Y1045790D01*
X308868Y1044304D01*
X306766Y1042202D01*
X305279Y1039628D01*
X304510Y1036756D01*
Y1033783D01*
X305279Y1030912D01*
X306766Y1028337D01*
X308868Y1026236D01*
X311442Y1024749D01*
X314314Y1023980D01*
X317286D01*
X320158Y1024749D01*
X322732Y1026236D01*
X324834Y1028337D01*
X326320Y1030912D01*
X327090Y1033783D01*
Y1036756D01*
X326320Y1039628D01*
X324834Y1042202D01*
X322732Y1044304D01*
X320158Y1045790D01*
X317286Y1046560D01*
D02*
G37*
G36*
X291886D02*
X288913D01*
X286042Y1045790D01*
X283468Y1044304D01*
X281366Y1042202D01*
X279879Y1039628D01*
X279110Y1036756D01*
Y1033783D01*
X279879Y1030912D01*
X281366Y1028337D01*
X283468Y1026236D01*
X286042Y1024749D01*
X288913Y1023980D01*
X291886D01*
X294758Y1024749D01*
X297332Y1026236D01*
X299434Y1028337D01*
X300921Y1030912D01*
X301690Y1033783D01*
Y1036756D01*
X300921Y1039628D01*
X299434Y1042202D01*
X297332Y1044304D01*
X294758Y1045790D01*
X291886Y1046560D01*
D02*
G37*
G36*
X276290D02*
X253710D01*
Y1023980D01*
X276290D01*
Y1046560D01*
D02*
G37*
G36*
X228386D02*
X225413D01*
X222542Y1045790D01*
X219968Y1044304D01*
X217866Y1042202D01*
X216379Y1039628D01*
X215610Y1036756D01*
Y1033783D01*
X216379Y1030912D01*
X217866Y1028337D01*
X219968Y1026236D01*
X222542Y1024749D01*
X225413Y1023980D01*
X228386D01*
X231258Y1024749D01*
X233832Y1026236D01*
X235934Y1028337D01*
X237421Y1030912D01*
X238190Y1033783D01*
Y1036756D01*
X237421Y1039628D01*
X235934Y1042202D01*
X233832Y1044304D01*
X231258Y1045790D01*
X228386Y1046560D01*
D02*
G37*
G36*
X202986D02*
X200014D01*
X197142Y1045790D01*
X194568Y1044304D01*
X192466Y1042202D01*
X190979Y1039628D01*
X190210Y1036756D01*
Y1033783D01*
X190979Y1030912D01*
X192466Y1028337D01*
X194568Y1026236D01*
X197142Y1024749D01*
X200014Y1023980D01*
X202986D01*
X205858Y1024749D01*
X208432Y1026236D01*
X210534Y1028337D01*
X212020Y1030912D01*
X212790Y1033783D01*
Y1036756D01*
X212020Y1039628D01*
X210534Y1042202D01*
X208432Y1044304D01*
X205858Y1045790D01*
X202986Y1046560D01*
D02*
G37*
G36*
X177586D02*
X174613D01*
X171742Y1045790D01*
X169168Y1044304D01*
X167066Y1042202D01*
X165579Y1039628D01*
X164810Y1036756D01*
Y1033783D01*
X165579Y1030912D01*
X167066Y1028337D01*
X169168Y1026236D01*
X171742Y1024749D01*
X174613Y1023980D01*
X177586D01*
X180458Y1024749D01*
X183032Y1026236D01*
X185134Y1028337D01*
X186621Y1030912D01*
X187390Y1033783D01*
Y1036756D01*
X186621Y1039628D01*
X185134Y1042202D01*
X183032Y1044304D01*
X180458Y1045790D01*
X177586Y1046560D01*
D02*
G37*
G36*
X161990D02*
X139410D01*
Y1023980D01*
X161990D01*
Y1046560D01*
D02*
G37*
G36*
X807990Y1029560D02*
X776720D01*
Y998290D01*
X778011D01*
X783070Y999091D01*
X787941Y1000674D01*
X792505Y1002999D01*
X796648Y1006010D01*
X800270Y1009631D01*
X803281Y1013775D01*
X805606Y1018339D01*
X807189Y1023210D01*
X807990Y1028269D01*
Y1029560D01*
D02*
G37*
G36*
X774180D02*
X742910D01*
Y1028269D01*
X743711Y1023210D01*
X745294Y1018339D01*
X747619Y1013775D01*
X750630Y1009631D01*
X754251Y1006010D01*
X758395Y1002999D01*
X762959Y1000674D01*
X767830Y999091D01*
X772889Y998290D01*
X774180D01*
Y1029560D01*
D02*
G37*
G36*
X127990D02*
X96720D01*
Y998290D01*
X98011D01*
X103070Y999091D01*
X107941Y1000674D01*
X112505Y1002999D01*
X116648Y1006010D01*
X120270Y1009631D01*
X123281Y1013775D01*
X125606Y1018339D01*
X127189Y1023210D01*
X127990Y1028269D01*
Y1029560D01*
D02*
G37*
G36*
X94180D02*
X62910D01*
Y1028269D01*
X63711Y1023210D01*
X65294Y1018339D01*
X67619Y1013775D01*
X70630Y1009631D01*
X74251Y1006010D01*
X78395Y1002999D01*
X82959Y1000674D01*
X87830Y999091D01*
X92889Y998290D01*
X94180D01*
Y1029560D01*
D02*
G37*
G36*
X1692472Y1084170D02*
X1685448D01*
X1678468Y1083383D01*
X1671619Y1081821D01*
X1664989Y1079501D01*
X1658661Y1076453D01*
X1652713Y1072716D01*
X1647221Y1068336D01*
X1642254Y1063369D01*
X1637874Y1057877D01*
X1634137Y1051929D01*
X1631089Y1045601D01*
X1628770Y1038971D01*
X1627207Y1032122D01*
X1626420Y1025142D01*
Y1018118D01*
X1627207Y1011138D01*
X1628770Y1004289D01*
X1631089Y997659D01*
X1634137Y991331D01*
X1637874Y985383D01*
X1642254Y979891D01*
X1647221Y974924D01*
X1652713Y970545D01*
X1658661Y966807D01*
X1664989Y963760D01*
X1671619Y961440D01*
X1678468Y959876D01*
X1685448Y959090D01*
X1692472D01*
X1699452Y959876D01*
X1706301Y961440D01*
X1712931Y963760D01*
X1719259Y966807D01*
X1725207Y970545D01*
X1730699Y974924D01*
X1735666Y979891D01*
X1740045Y985383D01*
X1743783Y991331D01*
X1746830Y997659D01*
X1749151Y1004289D01*
X1750714Y1011138D01*
X1751500Y1018118D01*
Y1025142D01*
X1750714Y1032122D01*
X1749151Y1038971D01*
X1746830Y1045601D01*
X1743783Y1051929D01*
X1740045Y1057877D01*
X1735666Y1063369D01*
X1730699Y1068336D01*
X1725207Y1072716D01*
X1719259Y1076453D01*
X1712931Y1079501D01*
X1706301Y1081821D01*
X1699452Y1083383D01*
X1692472Y1084170D01*
D02*
G37*
G36*
X1181932Y926840D02*
X1171912D01*
Y916820D01*
X1181932D01*
Y926840D01*
D02*
G37*
G36*
X1169372D02*
X1159352D01*
Y916820D01*
X1169372D01*
Y926840D01*
D02*
G37*
G36*
X1181932Y914280D02*
X1171912D01*
Y904260D01*
X1181932D01*
Y914280D01*
D02*
G37*
G36*
X1169372D02*
X1159352D01*
Y904260D01*
X1169372D01*
Y914280D01*
D02*
G37*
G36*
X1146728Y926840D02*
X1143755D01*
X1140884Y926071D01*
X1138309Y924584D01*
X1136207Y922482D01*
X1134721Y919908D01*
X1133952Y917036D01*
Y914064D01*
X1134721Y911192D01*
X1136207Y908618D01*
X1138309Y906516D01*
X1140884Y905029D01*
X1143755Y904260D01*
X1146728D01*
X1149600Y905029D01*
X1152174Y906516D01*
X1154276Y908618D01*
X1155762Y911192D01*
X1156532Y914064D01*
Y917036D01*
X1155762Y919908D01*
X1154276Y922482D01*
X1152174Y924584D01*
X1149600Y926071D01*
X1146728Y926840D01*
D02*
G37*
G36*
X1692472Y868870D02*
X1685448D01*
X1678468Y868083D01*
X1671619Y866520D01*
X1664989Y864201D01*
X1658660Y861153D01*
X1652713Y857416D01*
X1647221Y853036D01*
X1642254Y848069D01*
X1637874Y842577D01*
X1634137Y836629D01*
X1631089Y830301D01*
X1628770Y823671D01*
X1627206Y816822D01*
X1626420Y809842D01*
Y802818D01*
X1627206Y795838D01*
X1628770Y788989D01*
X1631089Y782359D01*
X1634137Y776031D01*
X1637874Y770083D01*
X1642254Y764591D01*
X1647221Y759624D01*
X1652713Y755245D01*
X1658660Y751507D01*
X1664989Y748459D01*
X1671619Y746140D01*
X1678468Y744576D01*
X1685448Y743790D01*
X1692472D01*
X1699452Y744576D01*
X1706301Y746140D01*
X1712931Y748459D01*
X1719259Y751507D01*
X1725207Y755245D01*
X1730699Y759624D01*
X1735666Y764591D01*
X1740045Y770083D01*
X1743783Y776031D01*
X1746830Y782359D01*
X1749150Y788989D01*
X1750714Y795838D01*
X1751500Y802818D01*
Y809842D01*
X1750714Y816822D01*
X1749150Y823671D01*
X1746830Y830301D01*
X1743783Y836629D01*
X1740045Y842577D01*
X1735666Y848069D01*
X1730699Y853036D01*
X1725207Y857416D01*
X1719259Y861153D01*
X1712931Y864201D01*
X1706301Y866520D01*
X1699452Y868083D01*
X1692472Y868870D01*
D02*
G37*
G36*
X166066Y737480D02*
X165850D01*
Y727460D01*
X175870D01*
Y727676D01*
X175100Y730547D01*
X173614Y733122D01*
X171512Y735224D01*
X168938Y736710D01*
X166066Y737480D01*
D02*
G37*
G36*
X163310D02*
X163094D01*
X160222Y736710D01*
X157648Y735224D01*
X155546Y733122D01*
X154059Y730547D01*
X153290Y727676D01*
Y727460D01*
X163310D01*
Y737480D01*
D02*
G37*
G36*
X175870Y724920D02*
X165850D01*
Y714900D01*
X166066D01*
X168938Y715669D01*
X171512Y717156D01*
X173614Y719258D01*
X175100Y721832D01*
X175870Y724703D01*
Y724920D01*
D02*
G37*
G36*
X163310D02*
X153290D01*
Y724703D01*
X154059Y721832D01*
X155546Y719258D01*
X157648Y717156D01*
X160222Y715669D01*
X163094Y714900D01*
X163310D01*
Y724920D01*
D02*
G37*
G36*
X166066Y712080D02*
X163094D01*
X160222Y711310D01*
X157648Y709824D01*
X155546Y707722D01*
X154059Y705147D01*
X153290Y702276D01*
Y699303D01*
X154059Y696432D01*
X155546Y693857D01*
X157648Y691756D01*
X160222Y690269D01*
X163094Y689500D01*
X166066D01*
X168938Y690269D01*
X171512Y691756D01*
X173614Y693857D01*
X175100Y696432D01*
X175870Y699303D01*
Y702276D01*
X175100Y705147D01*
X173614Y707722D01*
X171512Y709824D01*
X168938Y711310D01*
X166066Y712080D01*
D02*
G37*
G36*
Y686680D02*
X165850D01*
Y676660D01*
X175870D01*
Y676876D01*
X175100Y679747D01*
X173614Y682322D01*
X171512Y684424D01*
X168938Y685910D01*
X166066Y686680D01*
D02*
G37*
G36*
X163310D02*
X163094D01*
X160222Y685910D01*
X157648Y684424D01*
X155546Y682322D01*
X154059Y679747D01*
X153290Y676876D01*
Y676660D01*
X163310D01*
Y686680D01*
D02*
G37*
G36*
X175870Y674120D02*
X165850D01*
Y664100D01*
X166066D01*
X168938Y664869D01*
X171512Y666356D01*
X173614Y668457D01*
X175100Y671032D01*
X175870Y673903D01*
Y674120D01*
D02*
G37*
G36*
X163310D02*
X153290D01*
Y673903D01*
X154059Y671032D01*
X155546Y668457D01*
X157648Y666356D01*
X160222Y664869D01*
X163094Y664100D01*
X163310D01*
Y674120D01*
D02*
G37*
G36*
X175870Y661280D02*
X153290D01*
Y638700D01*
X175870D01*
Y661280D01*
D02*
G37*
G36*
X2145148Y636650D02*
X2142372D01*
X2139692Y635932D01*
X2137288Y634544D01*
X2135326Y632582D01*
X2133938Y630178D01*
X2133220Y627498D01*
Y624722D01*
X2133938Y622042D01*
X2135326Y619638D01*
X2137288Y617676D01*
X2139692Y616288D01*
X2142372Y615570D01*
X2145148D01*
X2147828Y616288D01*
X2150232Y617676D01*
X2152194Y619638D01*
X2153582Y622042D01*
X2154300Y624722D01*
Y627498D01*
X2153582Y630178D01*
X2152194Y632582D01*
X2150232Y634544D01*
X2147828Y635932D01*
X2145148Y636650D01*
D02*
G37*
G36*
X2068948D02*
X2066172D01*
X2063492Y635932D01*
X2061088Y634544D01*
X2059126Y632582D01*
X2057738Y630178D01*
X2057020Y627498D01*
Y624722D01*
X2057738Y622042D01*
X2059126Y619638D01*
X2061088Y617676D01*
X2063492Y616288D01*
X2066172Y615570D01*
X2068948D01*
X2071628Y616288D01*
X2074032Y617676D01*
X2075994Y619638D01*
X2077382Y622042D01*
X2078100Y624722D01*
Y627498D01*
X2077382Y630178D01*
X2075994Y632582D01*
X2074032Y634544D01*
X2071628Y635932D01*
X2068948Y636650D01*
D02*
G37*
G36*
Y611250D02*
X2068830D01*
Y601980D01*
X2078100D01*
Y602098D01*
X2077382Y604778D01*
X2075994Y607182D01*
X2074032Y609144D01*
X2071628Y610532D01*
X2068948Y611250D01*
D02*
G37*
G36*
X2066290D02*
X2066172D01*
X2063492Y610532D01*
X2061088Y609144D01*
X2059126Y607182D01*
X2057738Y604778D01*
X2057020Y602098D01*
Y601980D01*
X2066290D01*
Y611250D01*
D02*
G37*
G36*
X770230Y622380D02*
X747650D01*
Y599800D01*
X770230D01*
Y622380D01*
D02*
G37*
G36*
X454000Y614130D02*
X431420D01*
Y591550D01*
X454000D01*
Y614130D01*
D02*
G37*
G36*
X418796D02*
X415824D01*
X412952Y613360D01*
X410378Y611874D01*
X408276Y609772D01*
X406789Y607197D01*
X406020Y604326D01*
Y601353D01*
X406789Y598482D01*
X408276Y595908D01*
X410378Y593806D01*
X412952Y592319D01*
X415824Y591550D01*
X418796D01*
X421668Y592319D01*
X424242Y593806D01*
X426344Y595908D01*
X427831Y598482D01*
X428600Y601353D01*
Y604326D01*
X427831Y607197D01*
X426344Y609772D01*
X424242Y611874D01*
X421668Y613360D01*
X418796Y614130D01*
D02*
G37*
G36*
X393396D02*
X390424D01*
X387552Y613360D01*
X384978Y611874D01*
X382876Y609772D01*
X381389Y607197D01*
X380620Y604326D01*
Y601353D01*
X381389Y598482D01*
X382876Y595908D01*
X384978Y593806D01*
X387552Y592319D01*
X390424Y591550D01*
X393396D01*
X396268Y592319D01*
X398842Y593806D01*
X400944Y595908D01*
X402430Y598482D01*
X403200Y601353D01*
Y604326D01*
X402430Y607197D01*
X400944Y609772D01*
X398842Y611874D01*
X396268Y613360D01*
X393396Y614130D01*
D02*
G37*
G36*
X367996D02*
X365024D01*
X362152Y613360D01*
X359578Y611874D01*
X357476Y609772D01*
X355989Y607197D01*
X355220Y604326D01*
Y601353D01*
X355989Y598482D01*
X357476Y595908D01*
X359578Y593806D01*
X362152Y592319D01*
X365024Y591550D01*
X367996D01*
X370868Y592319D01*
X373442Y593806D01*
X375544Y595908D01*
X377030Y598482D01*
X377800Y601353D01*
Y604326D01*
X377030Y607197D01*
X375544Y609772D01*
X373442Y611874D01*
X370868Y613360D01*
X367996Y614130D01*
D02*
G37*
G36*
X2078100Y599440D02*
X2068830D01*
Y590170D01*
X2068948D01*
X2071628Y590888D01*
X2074032Y592276D01*
X2075994Y594238D01*
X2077382Y596642D01*
X2078100Y599322D01*
Y599440D01*
D02*
G37*
G36*
X2066290D02*
X2057020D01*
Y599322D01*
X2057738Y596642D01*
X2059126Y594238D01*
X2061088Y592276D01*
X2063492Y590888D01*
X2066172Y590170D01*
X2066290D01*
Y599440D01*
D02*
G37*
G36*
X444196Y588730D02*
X443980D01*
Y578710D01*
X454000D01*
Y578926D01*
X453231Y581797D01*
X451744Y584372D01*
X449642Y586474D01*
X447068Y587960D01*
X444196Y588730D01*
D02*
G37*
G36*
X441440D02*
X441224D01*
X438352Y587960D01*
X435778Y586474D01*
X433676Y584372D01*
X432189Y581797D01*
X431420Y578926D01*
Y578710D01*
X441440D01*
Y588730D01*
D02*
G37*
G36*
X1945540Y594360D02*
X1943200D01*
X1940939Y593754D01*
X1938911Y592584D01*
X1937256Y590929D01*
X1936086Y588901D01*
X1935480Y586640D01*
Y584300D01*
X1936086Y582039D01*
X1937256Y580011D01*
X1938911Y578356D01*
X1940939Y577186D01*
X1943200Y576580D01*
X1945540D01*
X1947801Y577186D01*
X1949829Y578356D01*
X1951484Y580011D01*
X1952654Y582039D01*
X1953260Y584300D01*
Y586640D01*
X1952654Y588901D01*
X1951484Y590929D01*
X1949829Y592584D01*
X1947801Y593754D01*
X1945540Y594360D01*
D02*
G37*
G36*
X760426Y596980D02*
X757454D01*
X754582Y596210D01*
X752008Y594724D01*
X749906Y592622D01*
X748419Y590047D01*
X747650Y587176D01*
Y584203D01*
X748419Y581332D01*
X749906Y578758D01*
X752008Y576656D01*
X754582Y575169D01*
X757454Y574400D01*
X760426D01*
X763298Y575169D01*
X765872Y576656D01*
X767974Y578758D01*
X769461Y581332D01*
X770230Y584203D01*
Y587176D01*
X769461Y590047D01*
X767974Y592622D01*
X765872Y594724D01*
X763298Y596210D01*
X760426Y596980D01*
D02*
G37*
G36*
X454000Y576170D02*
X443980D01*
Y566150D01*
X444196D01*
X447068Y566919D01*
X449642Y568405D01*
X451744Y570508D01*
X453231Y573082D01*
X454000Y575953D01*
Y576170D01*
D02*
G37*
G36*
X441440D02*
X431420D01*
Y575953D01*
X432189Y573082D01*
X433676Y570508D01*
X435778Y568405D01*
X438352Y566919D01*
X441224Y566150D01*
X441440D01*
Y576170D01*
D02*
G37*
G36*
X418796Y588730D02*
X415824D01*
X412952Y587960D01*
X410378Y586474D01*
X408276Y584372D01*
X406789Y581797D01*
X406020Y578926D01*
Y575953D01*
X406789Y573082D01*
X408276Y570508D01*
X410378Y568405D01*
X412952Y566919D01*
X415824Y566150D01*
X418796D01*
X421668Y566919D01*
X424242Y568405D01*
X426344Y570508D01*
X427831Y573082D01*
X428600Y575953D01*
Y578926D01*
X427831Y581797D01*
X426344Y584372D01*
X424242Y586474D01*
X421668Y587960D01*
X418796Y588730D01*
D02*
G37*
G36*
X393396D02*
X390424D01*
X387552Y587960D01*
X384978Y586474D01*
X382876Y584372D01*
X381389Y581797D01*
X380620Y578926D01*
Y575953D01*
X381389Y573082D01*
X382876Y570508D01*
X384978Y568405D01*
X387552Y566919D01*
X390424Y566150D01*
X393396D01*
X396268Y566919D01*
X398842Y568405D01*
X400944Y570508D01*
X402430Y573082D01*
X403200Y575953D01*
Y578926D01*
X402430Y581797D01*
X400944Y584372D01*
X398842Y586474D01*
X396268Y587960D01*
X393396Y588730D01*
D02*
G37*
G36*
X367996D02*
X365024D01*
X362152Y587960D01*
X359578Y586474D01*
X357476Y584372D01*
X355989Y581797D01*
X355220Y578926D01*
Y575953D01*
X355989Y573082D01*
X357476Y570508D01*
X359578Y568405D01*
X362152Y566919D01*
X365024Y566150D01*
X367996D01*
X370868Y566919D01*
X373442Y568405D01*
X375544Y570508D01*
X377030Y573082D01*
X377800Y575953D01*
Y578926D01*
X377030Y581797D01*
X375544Y584372D01*
X373442Y586474D01*
X370868Y587960D01*
X367996Y588730D01*
D02*
G37*
G36*
X2068948Y585850D02*
X2066172D01*
X2063492Y585132D01*
X2061088Y583744D01*
X2059126Y581782D01*
X2057738Y579378D01*
X2057020Y576698D01*
Y573922D01*
X2057738Y571242D01*
X2059126Y568838D01*
X2061088Y566876D01*
X2063492Y565488D01*
X2066172Y564770D01*
X2068948D01*
X2071628Y565488D01*
X2074032Y566876D01*
X2075994Y568838D01*
X2077382Y571242D01*
X2078100Y573922D01*
Y576698D01*
X2077382Y579378D01*
X2075994Y581782D01*
X2074032Y583744D01*
X2071628Y585132D01*
X2068948Y585850D01*
D02*
G37*
G36*
X1691748Y639020D02*
X1686172D01*
X1680643Y638292D01*
X1675257Y636849D01*
X1670105Y634715D01*
X1665275Y631927D01*
X1660851Y628532D01*
X1656908Y624589D01*
X1653513Y620165D01*
X1650725Y615335D01*
X1648591Y610183D01*
X1647148Y604797D01*
X1646420Y599268D01*
Y593692D01*
X1647148Y588163D01*
X1648591Y582777D01*
X1650725Y577625D01*
X1653513Y572795D01*
X1656908Y568371D01*
X1660851Y564428D01*
X1665275Y561033D01*
X1670105Y558245D01*
X1675257Y556111D01*
X1680643Y554668D01*
X1686172Y553940D01*
X1691748D01*
X1697277Y554668D01*
X1702663Y556111D01*
X1707815Y558245D01*
X1712645Y561033D01*
X1717069Y564428D01*
X1721012Y568371D01*
X1724407Y572795D01*
X1727195Y577625D01*
X1729329Y582777D01*
X1730772Y588163D01*
X1731500Y593692D01*
Y599268D01*
X1730772Y604797D01*
X1729329Y610183D01*
X1727195Y615335D01*
X1724407Y620165D01*
X1721012Y624589D01*
X1717069Y628532D01*
X1712645Y631927D01*
X1707815Y634715D01*
X1702663Y636849D01*
X1697277Y638292D01*
X1691748Y639020D01*
D02*
G37*
G36*
X1150153D02*
X1144577D01*
X1139048Y638292D01*
X1133662Y636849D01*
X1128510Y634715D01*
X1123680Y631927D01*
X1119256Y628532D01*
X1115313Y624589D01*
X1111918Y620165D01*
X1109130Y615335D01*
X1106996Y610183D01*
X1105553Y604797D01*
X1104825Y599268D01*
Y593692D01*
X1105553Y588163D01*
X1106996Y582777D01*
X1109130Y577625D01*
X1111918Y572795D01*
X1115313Y568371D01*
X1119256Y564428D01*
X1123680Y561033D01*
X1128510Y558245D01*
X1133662Y556111D01*
X1139048Y554668D01*
X1144577Y553940D01*
X1150153D01*
X1155682Y554668D01*
X1161068Y556111D01*
X1166220Y558245D01*
X1171050Y561033D01*
X1175474Y564428D01*
X1179417Y568371D01*
X1182812Y572795D01*
X1185600Y577625D01*
X1187734Y582777D01*
X1189177Y588163D01*
X1189905Y593692D01*
Y599268D01*
X1189177Y604797D01*
X1187734Y610183D01*
X1185600Y615335D01*
X1182812Y620165D01*
X1179417Y624589D01*
X1175474Y628532D01*
X1171050Y631927D01*
X1166220Y634715D01*
X1161068Y636849D01*
X1155682Y638292D01*
X1150153Y639020D01*
D02*
G37*
G36*
X760426Y571580D02*
X757454D01*
X754582Y570810D01*
X752008Y569324D01*
X749906Y567222D01*
X748419Y564647D01*
X747650Y561776D01*
Y558803D01*
X748419Y555932D01*
X749906Y553358D01*
X752008Y551255D01*
X754582Y549769D01*
X757454Y549000D01*
X760426D01*
X763298Y549769D01*
X765872Y551255D01*
X767974Y553358D01*
X769461Y555932D01*
X770230Y558803D01*
Y561776D01*
X769461Y564647D01*
X767974Y567222D01*
X765872Y569324D01*
X763298Y570810D01*
X760426Y571580D01*
D02*
G37*
G36*
X1956970Y561340D02*
X1954630D01*
X1952369Y560734D01*
X1950341Y559564D01*
X1948686Y557909D01*
X1947516Y555881D01*
X1946910Y553620D01*
Y551280D01*
X1947516Y549019D01*
X1948686Y546991D01*
X1950341Y545336D01*
X1952369Y544166D01*
X1954630Y543560D01*
X1956970D01*
X1959231Y544166D01*
X1961259Y545336D01*
X1962914Y546991D01*
X1964084Y549019D01*
X1964690Y551280D01*
Y553620D01*
X1964084Y555881D01*
X1962914Y557909D01*
X1961259Y559564D01*
X1959231Y560734D01*
X1956970Y561340D01*
D02*
G37*
G36*
X2145148Y560450D02*
X2142372D01*
X2139692Y559732D01*
X2137288Y558344D01*
X2135326Y556382D01*
X2133938Y553978D01*
X2133220Y551298D01*
Y548522D01*
X2133938Y545842D01*
X2135326Y543438D01*
X2137288Y541476D01*
X2139692Y540088D01*
X2142372Y539370D01*
X2145148D01*
X2147828Y540088D01*
X2150232Y541476D01*
X2152194Y543438D01*
X2153582Y545842D01*
X2154300Y548522D01*
Y551298D01*
X2153582Y553978D01*
X2152194Y556382D01*
X2150232Y558344D01*
X2147828Y559732D01*
X2145148Y560450D01*
D02*
G37*
G36*
X2068948D02*
X2066172D01*
X2063492Y559732D01*
X2061088Y558344D01*
X2059126Y556382D01*
X2057738Y553978D01*
X2057020Y551298D01*
Y548522D01*
X2057738Y545842D01*
X2059126Y543438D01*
X2061088Y541476D01*
X2063492Y540088D01*
X2066172Y539370D01*
X2068948D01*
X2071628Y540088D01*
X2074032Y541476D01*
X2075994Y543438D01*
X2077382Y545842D01*
X2078100Y548522D01*
Y551298D01*
X2077382Y553978D01*
X2075994Y556382D01*
X2074032Y558344D01*
X2071628Y559732D01*
X2068948Y560450D01*
D02*
G37*
G36*
X760426Y546180D02*
X757454D01*
X754582Y545410D01*
X752008Y543924D01*
X749906Y541822D01*
X748419Y539248D01*
X747650Y536376D01*
Y533403D01*
X748419Y530532D01*
X749906Y527957D01*
X752008Y525855D01*
X754582Y524369D01*
X757454Y523600D01*
X760426D01*
X763298Y524369D01*
X765872Y525855D01*
X767974Y527957D01*
X769461Y530532D01*
X770230Y533403D01*
Y536376D01*
X769461Y539248D01*
X767974Y541822D01*
X765872Y543924D01*
X763298Y545410D01*
X760426Y546180D01*
D02*
G37*
G36*
X1193190Y503430D02*
X1190850D01*
X1188589Y502824D01*
X1186561Y501654D01*
X1184906Y499999D01*
X1183736Y497971D01*
X1183130Y495710D01*
Y493370D01*
X1183736Y491109D01*
X1184906Y489081D01*
X1186561Y487426D01*
X1188589Y486256D01*
X1190850Y485650D01*
X1193190D01*
X1195451Y486256D01*
X1197479Y487426D01*
X1199134Y489081D01*
X1200304Y491109D01*
X1200910Y493370D01*
Y495710D01*
X1200304Y497971D01*
X1199134Y499999D01*
X1197479Y501654D01*
X1195451Y502824D01*
X1193190Y503430D01*
D02*
G37*
G36*
X770230Y506180D02*
X747650D01*
Y483600D01*
X770230D01*
Y506180D01*
D02*
G37*
G36*
X1105732Y505830D02*
X1083152D01*
Y483250D01*
X1105732D01*
Y505830D01*
D02*
G37*
G36*
X1089660Y1233160D02*
X862883D01*
Y473240D01*
X1009180D01*
X1014525Y478585D01*
X1019708Y481577D01*
X1024908Y485567D01*
X1029543Y490202D01*
X1033533Y495402D01*
X1036525Y500585D01*
X1073150Y537210D01*
X1089660D01*
Y1233160D01*
D02*
G37*
G36*
X1984826Y495505D02*
X1981853D01*
X1978982Y494736D01*
X1976408Y493249D01*
X1974306Y491147D01*
X1972819Y488573D01*
X1972050Y485701D01*
Y482729D01*
X1972819Y479857D01*
X1974306Y477283D01*
X1976408Y475181D01*
X1978982Y473694D01*
X1981853Y472925D01*
X1984826D01*
X1987698Y473694D01*
X1990272Y475181D01*
X1992374Y477283D01*
X1993860Y479857D01*
X1994630Y482729D01*
Y485701D01*
X1993860Y488573D01*
X1992374Y491147D01*
X1990272Y493249D01*
X1987698Y494736D01*
X1984826Y495505D01*
D02*
G37*
G36*
X1904726D02*
X1901754D01*
X1898882Y494736D01*
X1896308Y493249D01*
X1894206Y491147D01*
X1892719Y488573D01*
X1891950Y485701D01*
Y482729D01*
X1892719Y479857D01*
X1894206Y477283D01*
X1896308Y475181D01*
X1898882Y473694D01*
X1901754Y472925D01*
X1904726D01*
X1907598Y473694D01*
X1910172Y475181D01*
X1912274Y477283D01*
X1913761Y479857D01*
X1914530Y482729D01*
Y485701D01*
X1913761Y488573D01*
X1912274Y491147D01*
X1910172Y493249D01*
X1907598Y494736D01*
X1904726Y495505D01*
D02*
G37*
G36*
X1095928Y480430D02*
X1095712D01*
Y470410D01*
X1105732D01*
Y470626D01*
X1104962Y473498D01*
X1103476Y476072D01*
X1101374Y478174D01*
X1098800Y479661D01*
X1095928Y480430D01*
D02*
G37*
G36*
X1093172D02*
X1092955D01*
X1090084Y479661D01*
X1087510Y478174D01*
X1085407Y476072D01*
X1083921Y473498D01*
X1083152Y470626D01*
Y470410D01*
X1093172D01*
Y480430D01*
D02*
G37*
G36*
X1492214Y489790D02*
X1469634D01*
Y467210D01*
X1492214D01*
Y489790D01*
D02*
G37*
G36*
X760426Y480780D02*
X757454D01*
X754582Y480010D01*
X752008Y478524D01*
X749906Y476422D01*
X748419Y473848D01*
X747650Y470976D01*
Y468003D01*
X748419Y465132D01*
X749906Y462557D01*
X752008Y460456D01*
X754582Y458969D01*
X757454Y458200D01*
X760426D01*
X763298Y458969D01*
X765872Y460456D01*
X767974Y462557D01*
X769461Y465132D01*
X770230Y468003D01*
Y470976D01*
X769461Y473848D01*
X767974Y476422D01*
X765872Y478524D01*
X763298Y480010D01*
X760426Y480780D01*
D02*
G37*
G36*
X1105732Y467870D02*
X1095712D01*
Y457850D01*
X1095928D01*
X1098800Y458619D01*
X1101374Y460106D01*
X1103476Y462208D01*
X1104962Y464782D01*
X1105732Y467654D01*
Y467870D01*
D02*
G37*
G36*
X1093172D02*
X1083152D01*
Y467654D01*
X1083921Y464782D01*
X1085407Y462208D01*
X1087510Y460106D01*
X1090084Y458619D01*
X1092955Y457850D01*
X1093172D01*
Y467870D01*
D02*
G37*
G36*
X1962897Y467605D02*
X1960583D01*
X1958347Y467006D01*
X1956343Y465849D01*
X1954706Y464212D01*
X1953549Y462208D01*
X1952950Y459972D01*
Y457658D01*
X1953549Y455422D01*
X1954706Y453418D01*
X1956343Y451781D01*
X1958347Y450624D01*
X1960583Y450025D01*
X1962897D01*
X1965133Y450624D01*
X1967137Y451781D01*
X1968774Y453418D01*
X1969931Y455422D01*
X1970530Y457658D01*
Y459972D01*
X1969931Y462208D01*
X1968774Y464212D01*
X1967137Y465849D01*
X1965133Y467006D01*
X1962897Y467605D01*
D02*
G37*
G36*
X1882797D02*
X1880483D01*
X1878247Y467006D01*
X1876243Y465849D01*
X1874606Y464212D01*
X1873449Y462208D01*
X1872850Y459972D01*
Y457658D01*
X1873449Y455422D01*
X1874606Y453418D01*
X1876243Y451781D01*
X1878247Y450624D01*
X1880483Y450025D01*
X1882797D01*
X1885033Y450624D01*
X1887037Y451781D01*
X1888674Y453418D01*
X1889831Y455422D01*
X1890430Y457658D01*
Y459972D01*
X1889831Y462208D01*
X1888674Y464212D01*
X1887037Y465849D01*
X1885033Y467006D01*
X1882797Y467605D01*
D02*
G37*
G36*
X1984826Y470105D02*
X1981853D01*
X1978982Y469336D01*
X1976408Y467849D01*
X1974306Y465747D01*
X1972819Y463173D01*
X1972050Y460301D01*
Y457329D01*
X1972819Y454457D01*
X1974306Y451883D01*
X1976408Y449781D01*
X1978982Y448294D01*
X1981853Y447525D01*
X1984826D01*
X1987698Y448294D01*
X1990272Y449781D01*
X1992374Y451883D01*
X1993860Y454457D01*
X1994630Y457329D01*
Y460301D01*
X1993860Y463173D01*
X1992374Y465747D01*
X1990272Y467849D01*
X1987698Y469336D01*
X1984826Y470105D01*
D02*
G37*
G36*
X1904726D02*
X1901754D01*
X1898882Y469336D01*
X1896308Y467849D01*
X1894206Y465747D01*
X1892719Y463173D01*
X1891950Y460301D01*
Y457329D01*
X1892719Y454457D01*
X1894206Y451883D01*
X1896308Y449781D01*
X1898882Y448294D01*
X1901754Y447525D01*
X1904726D01*
X1907598Y448294D01*
X1910172Y449781D01*
X1912274Y451883D01*
X1913761Y454457D01*
X1914530Y457329D01*
Y460301D01*
X1913761Y463173D01*
X1912274Y465747D01*
X1910172Y467849D01*
X1907598Y469336D01*
X1904726Y470105D01*
D02*
G37*
G36*
X2097731Y474855D02*
X2094572D01*
X2091473Y474239D01*
X2088554Y473030D01*
X2085927Y471274D01*
X2083693Y469040D01*
X2081937Y466413D01*
X2080728Y463494D01*
X2080112Y460395D01*
Y457235D01*
X2080728Y454136D01*
X2081937Y451217D01*
X2083693Y448590D01*
X2085927Y446356D01*
X2088554Y444600D01*
X2091473Y443391D01*
X2094572Y442775D01*
X2097731D01*
X2100830Y443391D01*
X2103750Y444600D01*
X2106377Y446356D01*
X2108611Y448590D01*
X2110366Y451217D01*
X2111575Y454136D01*
X2112192Y457235D01*
Y460395D01*
X2111575Y463494D01*
X2110366Y466413D01*
X2108611Y469040D01*
X2106377Y471274D01*
X2103750Y473030D01*
X2100830Y474239D01*
X2097731Y474855D01*
D02*
G37*
G36*
X1482410Y464390D02*
X1479438D01*
X1476566Y463621D01*
X1473992Y462134D01*
X1471890Y460032D01*
X1470403Y457458D01*
X1469634Y454586D01*
Y451614D01*
X1470403Y448742D01*
X1471890Y446168D01*
X1473992Y444066D01*
X1476566Y442579D01*
X1479438Y441810D01*
X1482410D01*
X1485282Y442579D01*
X1487856Y444066D01*
X1489958Y446168D01*
X1491445Y448742D01*
X1492214Y451614D01*
Y454586D01*
X1491445Y457458D01*
X1489958Y460032D01*
X1487856Y462134D01*
X1485282Y463621D01*
X1482410Y464390D01*
D02*
G37*
G36*
X760426Y455380D02*
X757454D01*
X754582Y454610D01*
X752008Y453124D01*
X749906Y451022D01*
X748419Y448447D01*
X747650Y445576D01*
Y442603D01*
X748419Y439732D01*
X749906Y437158D01*
X752008Y435056D01*
X754582Y433569D01*
X757454Y432800D01*
X760426D01*
X763298Y433569D01*
X765872Y435056D01*
X767974Y437158D01*
X769461Y439732D01*
X770230Y442603D01*
Y445576D01*
X769461Y448447D01*
X767974Y451022D01*
X765872Y453124D01*
X763298Y454610D01*
X760426Y455380D01*
D02*
G37*
G36*
X1095928Y455030D02*
X1092955D01*
X1090084Y454261D01*
X1087510Y452774D01*
X1085407Y450672D01*
X1083921Y448098D01*
X1083152Y445226D01*
Y442254D01*
X1083921Y439382D01*
X1085407Y436808D01*
X1087510Y434706D01*
X1090084Y433219D01*
X1092955Y432450D01*
X1095928D01*
X1098800Y433219D01*
X1101374Y434706D01*
X1103476Y436808D01*
X1104962Y439382D01*
X1105732Y442254D01*
Y445226D01*
X1104962Y448098D01*
X1103476Y450672D01*
X1101374Y452774D01*
X1098800Y454261D01*
X1095928Y455030D01*
D02*
G37*
G36*
X1984826Y444705D02*
X1981853D01*
X1978982Y443936D01*
X1976408Y442449D01*
X1974306Y440347D01*
X1972819Y437773D01*
X1972050Y434901D01*
Y431929D01*
X1972819Y429057D01*
X1974306Y426483D01*
X1976408Y424381D01*
X1978982Y422894D01*
X1981853Y422125D01*
X1984826D01*
X1987698Y422894D01*
X1990272Y424381D01*
X1992374Y426483D01*
X1993860Y429057D01*
X1994630Y431929D01*
Y434901D01*
X1993860Y437773D01*
X1992374Y440347D01*
X1990272Y442449D01*
X1987698Y443936D01*
X1984826Y444705D01*
D02*
G37*
G36*
X1904726D02*
X1901754D01*
X1898882Y443936D01*
X1896308Y442449D01*
X1894206Y440347D01*
X1892719Y437773D01*
X1891950Y434901D01*
Y431929D01*
X1892719Y429057D01*
X1894206Y426483D01*
X1896308Y424381D01*
X1898882Y422894D01*
X1901754Y422125D01*
X1904726D01*
X1907598Y422894D01*
X1910172Y424381D01*
X1912274Y426483D01*
X1913761Y429057D01*
X1914530Y431929D01*
Y434901D01*
X1913761Y437773D01*
X1912274Y440347D01*
X1910172Y442449D01*
X1907598Y443936D01*
X1904726Y444705D01*
D02*
G37*
G36*
X760426Y429980D02*
X757454D01*
X754582Y429210D01*
X752008Y427724D01*
X749906Y425622D01*
X748419Y423047D01*
X747650Y420176D01*
Y417203D01*
X748419Y414332D01*
X749906Y411758D01*
X752008Y409655D01*
X754582Y408169D01*
X757454Y407400D01*
X760426D01*
X763298Y408169D01*
X765872Y409655D01*
X767974Y411758D01*
X769461Y414332D01*
X770230Y417203D01*
Y420176D01*
X769461Y423047D01*
X767974Y425622D01*
X765872Y427724D01*
X763298Y429210D01*
X760426Y429980D01*
D02*
G37*
G36*
X1984826Y419305D02*
X1981853D01*
X1978982Y418536D01*
X1976408Y417049D01*
X1974306Y414947D01*
X1972819Y412373D01*
X1972050Y409501D01*
Y406529D01*
X1972819Y403657D01*
X1974306Y401083D01*
X1976408Y398981D01*
X1978982Y397494D01*
X1981853Y396725D01*
X1984826D01*
X1987698Y397494D01*
X1990272Y398981D01*
X1992374Y401083D01*
X1993860Y403657D01*
X1994630Y406529D01*
Y409501D01*
X1993860Y412373D01*
X1992374Y414947D01*
X1990272Y417049D01*
X1987698Y418536D01*
X1984826Y419305D01*
D02*
G37*
G36*
X1904726D02*
X1901754D01*
X1898882Y418536D01*
X1896308Y417049D01*
X1894206Y414947D01*
X1892719Y412373D01*
X1891950Y409501D01*
Y406529D01*
X1892719Y403657D01*
X1894206Y401083D01*
X1896308Y398981D01*
X1898882Y397494D01*
X1901754Y396725D01*
X1904726D01*
X1907598Y397494D01*
X1910172Y398981D01*
X1912274Y401083D01*
X1913761Y403657D01*
X1914530Y406529D01*
Y409501D01*
X1913761Y412373D01*
X1912274Y414947D01*
X1910172Y417049D01*
X1907598Y418536D01*
X1904726Y419305D01*
D02*
G37*
G36*
X2097731Y424055D02*
X2094572D01*
X2091473Y423439D01*
X2088554Y422229D01*
X2085927Y420474D01*
X2083693Y418240D01*
X2081937Y415613D01*
X2080728Y412694D01*
X2080112Y409595D01*
Y406435D01*
X2080728Y403336D01*
X2081937Y400417D01*
X2083693Y397790D01*
X2085927Y395556D01*
X2088554Y393801D01*
X2091473Y392591D01*
X2094572Y391975D01*
X2097731D01*
X2100830Y392591D01*
X2103750Y393801D01*
X2106377Y395556D01*
X2108611Y397790D01*
X2110366Y400417D01*
X2111575Y403336D01*
X2112192Y406435D01*
Y409595D01*
X2111575Y412694D01*
X2110366Y415613D01*
X2108611Y418240D01*
X2106377Y420474D01*
X2103750Y422229D01*
X2100830Y423439D01*
X2097731Y424055D01*
D02*
G37*
G36*
X770230Y367110D02*
X747650D01*
Y344530D01*
X770230D01*
Y367110D01*
D02*
G37*
G36*
X881330Y413090D02*
X875753D01*
X870225Y412362D01*
X864838Y410919D01*
X859686Y408785D01*
X854857Y405997D01*
X850433Y402602D01*
X846490Y398659D01*
X843095Y394235D01*
X840307Y389405D01*
X838173Y384253D01*
X836730Y378867D01*
X836002Y373338D01*
Y367762D01*
X836730Y362233D01*
X838173Y356847D01*
X840307Y351695D01*
X843095Y346865D01*
X846490Y342441D01*
X850433Y338498D01*
X854857Y335103D01*
X859686Y332315D01*
X864838Y330181D01*
X870225Y328738D01*
X875753Y328010D01*
X881330D01*
X886859Y328738D01*
X892245Y330181D01*
X897397Y332315D01*
X902226Y335103D01*
X906650Y338498D01*
X910594Y342441D01*
X913988Y346865D01*
X916777Y351695D01*
X918911Y356847D01*
X920354Y362233D01*
X921082Y367762D01*
Y373338D01*
X920354Y378867D01*
X918911Y384253D01*
X916777Y389405D01*
X913988Y394235D01*
X910594Y398659D01*
X906650Y402602D01*
X902226Y405997D01*
X897397Y408785D01*
X892245Y410919D01*
X886859Y412362D01*
X881330Y413090D01*
D02*
G37*
G36*
X760426Y341710D02*
X757454D01*
X754582Y340940D01*
X752008Y339454D01*
X749906Y337352D01*
X748419Y334777D01*
X747650Y331906D01*
Y328933D01*
X748419Y326062D01*
X749906Y323488D01*
X752008Y321385D01*
X754582Y319899D01*
X757454Y319130D01*
X760426D01*
X763298Y319899D01*
X765872Y321385D01*
X767974Y323488D01*
X769461Y326062D01*
X770230Y328933D01*
Y331906D01*
X769461Y334777D01*
X767974Y337352D01*
X765872Y339454D01*
X763298Y340940D01*
X760426Y341710D01*
D02*
G37*
G36*
X2097731Y347855D02*
X2094572D01*
X2091473Y347239D01*
X2088554Y346030D01*
X2085927Y344274D01*
X2083693Y342040D01*
X2081937Y339413D01*
X2080728Y336494D01*
X2080112Y333395D01*
Y330235D01*
X2080728Y327136D01*
X2081937Y324217D01*
X2083693Y321590D01*
X2085927Y319356D01*
X2088554Y317600D01*
X2091473Y316391D01*
X2094572Y315775D01*
X2097731D01*
X2100830Y316391D01*
X2103750Y317600D01*
X2106377Y319356D01*
X2108611Y321590D01*
X2110366Y324217D01*
X2111575Y327136D01*
X2112192Y330235D01*
Y333395D01*
X2111575Y336494D01*
X2110366Y339413D01*
X2108611Y342040D01*
X2106377Y344274D01*
X2103750Y346030D01*
X2100830Y347239D01*
X2097731Y347855D01*
D02*
G37*
G36*
X1492214Y334850D02*
X1469634D01*
Y312270D01*
X1492214D01*
Y334850D01*
D02*
G37*
G36*
X891978Y317070D02*
X889005D01*
X886134Y316301D01*
X883559Y314814D01*
X881457Y312712D01*
X879971Y310138D01*
X879202Y307266D01*
Y304294D01*
X879971Y301422D01*
X881457Y298848D01*
X883559Y296746D01*
X886134Y295259D01*
X889005Y294490D01*
X891978D01*
X894849Y295259D01*
X897424Y296746D01*
X899526Y298848D01*
X901012Y301422D01*
X901782Y304294D01*
Y307266D01*
X901012Y310138D01*
X899526Y312712D01*
X897424Y314814D01*
X894849Y316301D01*
X891978Y317070D01*
D02*
G37*
G36*
X876382D02*
X853802D01*
Y294490D01*
X876382D01*
Y317070D01*
D02*
G37*
G36*
X1482410Y309450D02*
X1479438D01*
X1476566Y308681D01*
X1473992Y307194D01*
X1471890Y305092D01*
X1470403Y302518D01*
X1469634Y299646D01*
Y296674D01*
X1470403Y293802D01*
X1471890Y291228D01*
X1473992Y289126D01*
X1476566Y287639D01*
X1479438Y286870D01*
X1482410D01*
X1485282Y287639D01*
X1487856Y289126D01*
X1489958Y291228D01*
X1491445Y293802D01*
X1492214Y296674D01*
Y299646D01*
X1491445Y302518D01*
X1489958Y305092D01*
X1487856Y307194D01*
X1485282Y308681D01*
X1482410Y309450D01*
D02*
G37*
G36*
X2097731Y297055D02*
X2097422D01*
Y282285D01*
X2112192D01*
Y282595D01*
X2111575Y285694D01*
X2110366Y288613D01*
X2108611Y291240D01*
X2106377Y293474D01*
X2103750Y295229D01*
X2100830Y296439D01*
X2097731Y297055D01*
D02*
G37*
G36*
X2094882D02*
X2094572D01*
X2091473Y296439D01*
X2088554Y295229D01*
X2085927Y293474D01*
X2083693Y291240D01*
X2081937Y288613D01*
X2080728Y285694D01*
X2080112Y282595D01*
Y282285D01*
X2094882D01*
Y297055D01*
D02*
G37*
G36*
X2112192Y279745D02*
X2097422D01*
Y264975D01*
X2097731D01*
X2100830Y265591D01*
X2103750Y266800D01*
X2106377Y268556D01*
X2108611Y270790D01*
X2110366Y273417D01*
X2111575Y276336D01*
X2112192Y279435D01*
Y279745D01*
D02*
G37*
G36*
X2094882D02*
X2080112D01*
Y279435D01*
X2080728Y276336D01*
X2081937Y273417D01*
X2083693Y270790D01*
X2085927Y268556D01*
X2088554Y266800D01*
X2091473Y265591D01*
X2094572Y264975D01*
X2094882D01*
Y279745D01*
D02*
G37*
G36*
X133960Y263610D02*
X111380D01*
Y241030D01*
X133960D01*
Y263610D01*
D02*
G37*
G36*
X98756D02*
X95784D01*
X92912Y262840D01*
X90338Y261354D01*
X88236Y259252D01*
X86749Y256677D01*
X85980Y253806D01*
Y250833D01*
X86749Y247962D01*
X88236Y245387D01*
X90338Y243286D01*
X92912Y241799D01*
X95784Y241030D01*
X98756D01*
X101628Y241799D01*
X104202Y243286D01*
X106304Y245387D01*
X107790Y247962D01*
X108560Y250833D01*
Y253806D01*
X107790Y256677D01*
X106304Y259252D01*
X104202Y261354D01*
X101628Y262840D01*
X98756Y263610D01*
D02*
G37*
G36*
X1691136Y277540D02*
X1686801D01*
X1682519Y276862D01*
X1678397Y275522D01*
X1674534Y273554D01*
X1671027Y271006D01*
X1667962Y267941D01*
X1665414Y264434D01*
X1663446Y260572D01*
X1662106Y256449D01*
X1661428Y252167D01*
Y247833D01*
X1662106Y243551D01*
X1663446Y239428D01*
X1665414Y235566D01*
X1667962Y232059D01*
X1671027Y228994D01*
X1674534Y226446D01*
X1678397Y224478D01*
X1682519Y223138D01*
X1686801Y222460D01*
X1691136D01*
X1695417Y223138D01*
X1699540Y224478D01*
X1703402Y226446D01*
X1706909Y228994D01*
X1709975Y232059D01*
X1712523Y235566D01*
X1714491Y239428D01*
X1715830Y243551D01*
X1716508Y247833D01*
Y252167D01*
X1715830Y256449D01*
X1714491Y260572D01*
X1712523Y264434D01*
X1709975Y267941D01*
X1706909Y271006D01*
X1703402Y273554D01*
X1699540Y275522D01*
X1695417Y276862D01*
X1691136Y277540D01*
D02*
G37*
G36*
X1149541D02*
X1145206D01*
X1140925Y276862D01*
X1136802Y275522D01*
X1132939Y273554D01*
X1129432Y271006D01*
X1126367Y267941D01*
X1123819Y264434D01*
X1121851Y260572D01*
X1120512Y256449D01*
X1119834Y252167D01*
Y247833D01*
X1120512Y243551D01*
X1121851Y239428D01*
X1123819Y235566D01*
X1126367Y232059D01*
X1129432Y228994D01*
X1132939Y226446D01*
X1136802Y224478D01*
X1140925Y223138D01*
X1145206Y222460D01*
X1149541D01*
X1153822Y223138D01*
X1157945Y224478D01*
X1161808Y226446D01*
X1165315Y228994D01*
X1168380Y232059D01*
X1170928Y235566D01*
X1172896Y239428D01*
X1174235Y243551D01*
X1174913Y247833D01*
Y252167D01*
X1174235Y256449D01*
X1172896Y260572D01*
X1170928Y264434D01*
X1168380Y267941D01*
X1165315Y271006D01*
X1161808Y273554D01*
X1157945Y275522D01*
X1153822Y276862D01*
X1149541Y277540D01*
D02*
G37*
G36*
X1982177Y225090D02*
X1982125D01*
Y216320D01*
X1990895D01*
Y216372D01*
X1990211Y218925D01*
X1988889Y221215D01*
X1987020Y223084D01*
X1984730Y224406D01*
X1982177Y225090D01*
D02*
G37*
G36*
X1979585D02*
X1979533D01*
X1976980Y224406D01*
X1974690Y223084D01*
X1972821Y221215D01*
X1971499Y218925D01*
X1970815Y216372D01*
Y216320D01*
X1979585D01*
Y225090D01*
D02*
G37*
G36*
X1990895Y213780D02*
X1982125D01*
Y205010D01*
X1982177D01*
X1984730Y205694D01*
X1987020Y207016D01*
X1988889Y208885D01*
X1990211Y211175D01*
X1990895Y213728D01*
Y213780D01*
D02*
G37*
G36*
X1979585D02*
X1970815D01*
Y213728D01*
X1971499Y211175D01*
X1972821Y208885D01*
X1974690Y207016D01*
X1976980Y205694D01*
X1979533Y205010D01*
X1979585D01*
Y213780D01*
D02*
G37*
G36*
X1908517Y225090D02*
X1905873D01*
X1903320Y224406D01*
X1901030Y223084D01*
X1899161Y221215D01*
X1897839Y218925D01*
X1897155Y216372D01*
Y213728D01*
X1897839Y211175D01*
X1899161Y208885D01*
X1901030Y207016D01*
X1903320Y205694D01*
X1905873Y205010D01*
X1908517D01*
X1911070Y205694D01*
X1913360Y207016D01*
X1915229Y208885D01*
X1916551Y211175D01*
X1917235Y213728D01*
Y216372D01*
X1916551Y218925D01*
X1915229Y221215D01*
X1913360Y223084D01*
X1911070Y224406D01*
X1908517Y225090D01*
D02*
G37*
G36*
X1982177Y175090D02*
X1979533D01*
X1976980Y174406D01*
X1974690Y173084D01*
X1972821Y171215D01*
X1971499Y168925D01*
X1970815Y166372D01*
Y163728D01*
X1971499Y161175D01*
X1972821Y158885D01*
X1974690Y157016D01*
X1976980Y155694D01*
X1979533Y155010D01*
X1982177D01*
X1984730Y155694D01*
X1987020Y157016D01*
X1988889Y158885D01*
X1990211Y161175D01*
X1990895Y163728D01*
Y166372D01*
X1990211Y168925D01*
X1988889Y171215D01*
X1987020Y173084D01*
X1984730Y174406D01*
X1982177Y175090D01*
D02*
G37*
G36*
X1908517D02*
X1905873D01*
X1903320Y174406D01*
X1901030Y173084D01*
X1899161Y171215D01*
X1897839Y168925D01*
X1897155Y166372D01*
Y163728D01*
X1897839Y161175D01*
X1899161Y158885D01*
X1901030Y157016D01*
X1903320Y155694D01*
X1905873Y155010D01*
X1908517D01*
X1911070Y155694D01*
X1913360Y157016D01*
X1915229Y158885D01*
X1916551Y161175D01*
X1917235Y163728D01*
Y166372D01*
X1916551Y168925D01*
X1915229Y171215D01*
X1913360Y173084D01*
X1911070Y174406D01*
X1908517Y175090D01*
D02*
G37*
G36*
X158238Y224020D02*
X152662D01*
X147133Y223292D01*
X141747Y221849D01*
X136595Y219715D01*
X131765Y216927D01*
X127341Y213532D01*
X123398Y209589D01*
X120003Y205165D01*
X117215Y200335D01*
X115081Y195183D01*
X113638Y189797D01*
X112910Y184268D01*
Y178692D01*
X113638Y173163D01*
X115081Y167777D01*
X117215Y162625D01*
X120003Y157795D01*
X123398Y153371D01*
X127341Y149428D01*
X131765Y146033D01*
X136595Y143245D01*
X141747Y141111D01*
X147133Y139668D01*
X152662Y138940D01*
X158238D01*
X163767Y139668D01*
X169153Y141111D01*
X174305Y143245D01*
X179135Y146033D01*
X183559Y149428D01*
X187502Y153371D01*
X190897Y157795D01*
X193685Y162625D01*
X195819Y167777D01*
X197262Y173163D01*
X197990Y178692D01*
Y184268D01*
X197262Y189797D01*
X195819Y195183D01*
X193685Y200335D01*
X190897Y205165D01*
X187502Y209589D01*
X183559Y213532D01*
X179135Y216927D01*
X174305Y219715D01*
X169153Y221849D01*
X163767Y223292D01*
X158238Y224020D01*
D02*
G37*
G36*
X2098940Y219020D02*
X2093363D01*
X2087835Y218292D01*
X2082448Y216849D01*
X2077296Y214715D01*
X2072467Y211927D01*
X2068043Y208532D01*
X2064100Y204589D01*
X2060705Y200165D01*
X2057917Y195335D01*
X2055783Y190183D01*
X2054339Y184797D01*
X2053612Y179268D01*
Y173692D01*
X2054339Y168163D01*
X2055783Y162777D01*
X2057917Y157625D01*
X2060705Y152795D01*
X2064100Y148371D01*
X2068043Y144428D01*
X2072467Y141033D01*
X2077296Y138245D01*
X2082448Y136111D01*
X2087835Y134668D01*
X2093363Y133940D01*
X2098940D01*
X2104469Y134668D01*
X2109855Y136111D01*
X2115007Y138245D01*
X2119836Y141033D01*
X2124260Y144428D01*
X2128204Y148371D01*
X2131598Y152795D01*
X2134386Y157625D01*
X2136521Y162777D01*
X2137964Y168163D01*
X2138692Y173692D01*
Y179268D01*
X2137964Y184797D01*
X2136521Y190183D01*
X2134386Y195335D01*
X2131598Y200165D01*
X2128204Y204589D01*
X2124260Y208532D01*
X2119836Y211927D01*
X2115007Y214715D01*
X2109855Y216849D01*
X2104469Y218292D01*
X2098940Y219020D01*
D02*
G37*
G36*
X1512951Y166927D02*
X1509649D01*
X1506460Y166072D01*
X1503600Y164421D01*
X1501266Y162086D01*
X1499615Y159227D01*
X1498760Y156038D01*
Y152736D01*
X1499615Y149546D01*
X1501266Y146687D01*
X1503600Y144352D01*
X1506460Y142701D01*
X1507793Y142344D01*
Y141029D01*
X1506460Y140672D01*
X1503600Y139021D01*
X1501266Y136686D01*
X1499615Y133827D01*
X1498760Y130638D01*
Y127336D01*
X1499615Y124146D01*
X1501266Y121287D01*
X1503600Y118952D01*
X1506460Y117301D01*
X1509649Y116447D01*
X1512951D01*
X1516140Y117301D01*
X1519000Y118952D01*
X1521335Y121287D01*
X1522985Y124146D01*
X1523840Y127336D01*
Y130638D01*
X1522985Y133827D01*
X1521335Y136686D01*
X1519000Y139021D01*
X1516140Y140672D01*
X1514807Y141029D01*
Y142344D01*
X1516140Y142701D01*
X1519000Y144352D01*
X1521335Y146687D01*
X1522985Y149546D01*
X1523840Y152736D01*
Y156038D01*
X1522985Y159227D01*
X1521335Y162086D01*
X1519000Y164421D01*
X1516140Y166072D01*
X1512951Y166927D01*
D02*
G37*
G36*
X973201D02*
X969899D01*
X966710Y166072D01*
X963850Y164421D01*
X961516Y162086D01*
X959865Y159227D01*
X959010Y156038D01*
Y152736D01*
X959865Y149546D01*
X961516Y146687D01*
X963850Y144352D01*
X966710Y142701D01*
X968043Y142344D01*
Y141029D01*
X966710Y140672D01*
X963850Y139021D01*
X961516Y136686D01*
X959865Y133827D01*
X959010Y130638D01*
Y127336D01*
X959865Y124146D01*
X961516Y121287D01*
X963850Y118952D01*
X966710Y117301D01*
X969899Y116447D01*
X973201D01*
X976390Y117301D01*
X979250Y118952D01*
X981584Y121287D01*
X983235Y124146D01*
X984090Y127336D01*
Y130638D01*
X983235Y133827D01*
X981584Y136686D01*
X979250Y139021D01*
X976390Y140672D01*
X975057Y141029D01*
Y142344D01*
X976390Y142701D01*
X979250Y144352D01*
X981584Y146687D01*
X983235Y149546D01*
X984090Y152736D01*
Y156038D01*
X983235Y159227D01*
X981584Y162086D01*
X979250Y164421D01*
X976390Y166072D01*
X973201Y166927D01*
D02*
G37*
G36*
X778011Y143370D02*
X776720D01*
Y112100D01*
X807990D01*
Y113391D01*
X807189Y118449D01*
X805606Y123321D01*
X803281Y127884D01*
X800270Y132028D01*
X796648Y135650D01*
X792505Y138660D01*
X787941Y140986D01*
X783070Y142569D01*
X778011Y143370D01*
D02*
G37*
G36*
X774180D02*
X772889D01*
X767830Y142569D01*
X762959Y140986D01*
X758395Y138660D01*
X754251Y135650D01*
X750630Y132028D01*
X747619Y127884D01*
X745294Y123321D01*
X743711Y118449D01*
X742910Y113391D01*
Y112100D01*
X774180D01*
Y143370D01*
D02*
G37*
G36*
X98011D02*
X96720D01*
Y112100D01*
X127990D01*
Y113391D01*
X127189Y118449D01*
X125606Y123321D01*
X123281Y127884D01*
X120270Y132028D01*
X116648Y135650D01*
X112505Y138660D01*
X107941Y140986D01*
X103070Y142569D01*
X98011Y143370D01*
D02*
G37*
G36*
X94180D02*
X92889D01*
X87830Y142569D01*
X82959Y140986D01*
X78395Y138660D01*
X74251Y135650D01*
X70630Y132028D01*
X67619Y127884D01*
X65294Y123321D01*
X63711Y118449D01*
X62910Y113391D01*
Y112100D01*
X94180D01*
Y143370D01*
D02*
G37*
G36*
X632410Y115528D02*
X632194D01*
Y105508D01*
X642214D01*
Y105724D01*
X641444Y108596D01*
X639958Y111170D01*
X637856Y113272D01*
X635282Y114758D01*
X632410Y115528D01*
D02*
G37*
G36*
X657810D02*
X657594D01*
Y105508D01*
X667614D01*
Y105724D01*
X666844Y108596D01*
X665358Y111170D01*
X663256Y113272D01*
X660682Y114758D01*
X657810Y115528D01*
D02*
G37*
G36*
X629654D02*
X629438D01*
X626566Y114758D01*
X623992Y113272D01*
X621890Y111170D01*
X620403Y108596D01*
X619634Y105724D01*
Y105508D01*
X629654D01*
Y115528D01*
D02*
G37*
G36*
X655054D02*
X654838D01*
X651966Y114758D01*
X649392Y113272D01*
X647290Y111170D01*
X645803Y108596D01*
X645034Y105724D01*
Y105508D01*
X655054D01*
Y115528D01*
D02*
G37*
G36*
X379160Y115650D02*
X356580D01*
Y93070D01*
X379160D01*
Y115650D01*
D02*
G37*
G36*
X343956D02*
X340984D01*
X338112Y114880D01*
X335538Y113394D01*
X333436Y111292D01*
X331949Y108717D01*
X331180Y105846D01*
Y102873D01*
X331949Y100002D01*
X333436Y97428D01*
X335538Y95325D01*
X338112Y93839D01*
X340984Y93070D01*
X343956D01*
X346828Y93839D01*
X349402Y95325D01*
X351504Y97428D01*
X352990Y100002D01*
X353760Y102873D01*
Y105846D01*
X352990Y108717D01*
X351504Y111292D01*
X349402Y113394D01*
X346828Y114880D01*
X343956Y115650D01*
D02*
G37*
G36*
X323280D02*
X300700D01*
Y93070D01*
X323280D01*
Y115650D01*
D02*
G37*
G36*
X288076D02*
X285103D01*
X282232Y114880D01*
X279658Y113394D01*
X277556Y111292D01*
X276069Y108717D01*
X275300Y105846D01*
Y102873D01*
X276069Y100002D01*
X277556Y97428D01*
X279658Y95325D01*
X282232Y93839D01*
X285103Y93070D01*
X288076D01*
X290948Y93839D01*
X293522Y95325D01*
X295624Y97428D01*
X297111Y100002D01*
X297880Y102873D01*
Y105846D01*
X297111Y108717D01*
X295624Y111292D01*
X293522Y113394D01*
X290948Y114880D01*
X288076Y115650D01*
D02*
G37*
G36*
X718414Y115528D02*
X695834D01*
Y92948D01*
X718414D01*
Y115528D01*
D02*
G37*
G36*
X683210D02*
X680238D01*
X677366Y114758D01*
X674792Y113272D01*
X672690Y111170D01*
X671203Y108596D01*
X670434Y105724D01*
Y102751D01*
X671203Y99880D01*
X672690Y97305D01*
X674792Y95204D01*
X677366Y93717D01*
X680238Y92948D01*
X683210D01*
X686082Y93717D01*
X688656Y95204D01*
X690758Y97305D01*
X692244Y99880D01*
X693014Y102751D01*
Y105724D01*
X692244Y108596D01*
X690758Y111170D01*
X688656Y113272D01*
X686082Y114758D01*
X683210Y115528D01*
D02*
G37*
G36*
X667614Y102968D02*
X657594D01*
Y92948D01*
X657810D01*
X660682Y93717D01*
X663256Y95204D01*
X665358Y97305D01*
X666844Y99880D01*
X667614Y102751D01*
Y102968D01*
D02*
G37*
G36*
X655054D02*
X645034D01*
Y102751D01*
X645803Y99880D01*
X647290Y97305D01*
X649392Y95204D01*
X651966Y93717D01*
X654838Y92948D01*
X655054D01*
Y102968D01*
D02*
G37*
G36*
X642214D02*
X632194D01*
Y92948D01*
X632410D01*
X635282Y93717D01*
X637856Y95204D01*
X639958Y97305D01*
X641444Y99880D01*
X642214Y102751D01*
Y102968D01*
D02*
G37*
G36*
X629654D02*
X619634D01*
Y102751D01*
X620403Y99880D01*
X621890Y97305D01*
X623992Y95204D01*
X626566Y93717D01*
X629438Y92948D01*
X629654D01*
Y102968D01*
D02*
G37*
G36*
X807990Y109560D02*
X776720D01*
Y78290D01*
X778011D01*
X783070Y79091D01*
X787941Y80674D01*
X792505Y82999D01*
X796648Y86010D01*
X800270Y89631D01*
X803281Y93775D01*
X805606Y98339D01*
X807189Y103210D01*
X807990Y108269D01*
Y109560D01*
D02*
G37*
G36*
X774180D02*
X742910D01*
Y108269D01*
X743711Y103210D01*
X745294Y98339D01*
X747619Y93775D01*
X750630Y89631D01*
X754251Y86010D01*
X758395Y82999D01*
X762959Y80674D01*
X767830Y79091D01*
X772889Y78290D01*
X774180D01*
Y109560D01*
D02*
G37*
G36*
X127990D02*
X96720D01*
Y78290D01*
X98011D01*
X103070Y79091D01*
X107941Y80674D01*
X112505Y82999D01*
X116648Y86010D01*
X120270Y89631D01*
X123281Y93775D01*
X125606Y98339D01*
X127189Y103210D01*
X127990Y108269D01*
Y109560D01*
D02*
G37*
G36*
X94180D02*
X62910D01*
Y108269D01*
X63711Y103210D01*
X65294Y98339D01*
X67619Y93775D01*
X70630Y89631D01*
X74251Y86010D01*
X78395Y82999D01*
X82959Y80674D01*
X87830Y79091D01*
X92889Y78290D01*
X94180D01*
Y109560D01*
D02*
G37*
%LPD*%
D46*
X442710Y602840D02*
D03*
X865092Y305780D02*
D03*
X150700Y1035270D02*
D03*
X265000D02*
D03*
X707124Y104238D02*
D03*
X1170642Y915550D02*
D03*
X122670Y252320D02*
D03*
X367870Y104360D02*
D03*
X311990D02*
D03*
X1037931Y586980D02*
D03*
Y761980D02*
D03*
X1037931Y1131980D02*
D03*
Y956980D02*
D03*
X1804372Y1240980D02*
D03*
Y1065980D02*
D03*
Y695980D02*
D03*
Y870980D02*
D03*
D47*
X442710Y577440D02*
D03*
X417310Y602840D02*
D03*
Y577440D02*
D03*
X391910Y602840D02*
D03*
Y577440D02*
D03*
X366510Y602840D02*
D03*
Y577440D02*
D03*
X758940Y469490D02*
D03*
Y444090D02*
D03*
Y418690D02*
D03*
X1903240Y484215D02*
D03*
Y458815D02*
D03*
Y433415D02*
D03*
Y408015D02*
D03*
X890492Y305780D02*
D03*
X1094442Y469140D02*
D03*
Y443740D02*
D03*
X1983340Y458815D02*
D03*
Y433415D02*
D03*
Y484215D02*
D03*
Y408015D02*
D03*
X758940Y330420D02*
D03*
X164580Y726190D02*
D03*
Y700790D02*
D03*
Y675390D02*
D03*
X758940Y534890D02*
D03*
Y560290D02*
D03*
Y585690D02*
D03*
X226900Y1035270D02*
D03*
X201500D02*
D03*
X176100D02*
D03*
X341200D02*
D03*
X315800D02*
D03*
X290400D02*
D03*
X630924Y104238D02*
D03*
X656324D02*
D03*
X681724D02*
D03*
X1480924Y298160D02*
D03*
X1145242Y915550D02*
D03*
X97270Y252320D02*
D03*
X342470Y104360D02*
D03*
X286590D02*
D03*
X1480924Y453100D02*
D03*
X1012531Y586980D02*
D03*
Y761980D02*
D03*
X1012531Y1131980D02*
D03*
Y956980D02*
D03*
X1829772Y1240980D02*
D03*
Y1065980D02*
D03*
Y695980D02*
D03*
Y870980D02*
D03*
D48*
X758940Y494890D02*
D03*
X1094442Y494540D02*
D03*
X758940Y355820D02*
D03*
X164580Y649990D02*
D03*
X758940Y611090D02*
D03*
X1480924Y478500D02*
D03*
Y323560D02*
D03*
D49*
X155450Y1181480D02*
D03*
X155450Y181480D02*
D03*
X878542Y370550D02*
D03*
X2096152Y176480D02*
D03*
X1147365Y596480D02*
D03*
X1688960D02*
D03*
X1688960Y1231480D02*
D03*
X1147365D02*
D03*
X1688960Y1021630D02*
D03*
X1688960Y806330D02*
D03*
D50*
X1907195Y215050D02*
D03*
Y165050D02*
D03*
X1980855Y215050D02*
D03*
Y165050D02*
D03*
D51*
X1829772Y1013460D02*
D03*
X1804372D02*
D03*
X991870Y523240D02*
D03*
X966470D02*
D03*
X1511300Y154387D02*
D03*
Y128987D02*
D03*
X971550Y154387D02*
D03*
Y128987D02*
D03*
X1829772Y642620D02*
D03*
X1804372D02*
D03*
X1012531Y892810D02*
D03*
X1037931D02*
D03*
D52*
X1147374Y250000D02*
D03*
X1688968D02*
D03*
D53*
X2171700Y726340D02*
D03*
Y886340D02*
D03*
D54*
X2283460Y726338D02*
D03*
Y886338D02*
D03*
X2067560Y626110D02*
D03*
X2143760D02*
D03*
X2067560Y600710D02*
D03*
Y575310D02*
D03*
Y549910D02*
D03*
X2143760D02*
D03*
D55*
X2096152Y408015D02*
D03*
Y458815D02*
D03*
Y281015D02*
D03*
Y331815D02*
D03*
D56*
X775450Y1030830D02*
D03*
X95450D02*
D03*
X775450Y110830D02*
D03*
X95450D02*
D03*
D57*
X327230Y1153660D02*
D03*
X284193D02*
D03*
X241157D02*
D03*
X198120D02*
D03*
X90350Y674710D02*
D03*
X649830Y585470D02*
D03*
X649830Y534890D02*
D03*
X649830Y418690D02*
D03*
X1955800Y552450D02*
D03*
X1944370Y585470D02*
D03*
X1192020Y494540D02*
D03*
M02*
