G04*
G04 #@! TF.GenerationSoftware,Altium Limited,Altium Designer,22.8.2 (66)*
G04*
G04 Layer_Physical_Order=1*
G04 Layer_Color=255*
%FSLAX44Y44*%
%MOMM*%
G71*
G04*
G04 #@! TF.SameCoordinates,71C3AFDF-B8C1-413B-9B0B-563F97835029*
G04*
G04*
G04 #@! TF.FilePolarity,Positive*
G04*
G01*
G75*
%ADD12C,0.3000*%
%ADD14R,2.9500X3.6000*%
%ADD15R,2.4500X1.7500*%
%ADD16R,0.7000X0.9500*%
%ADD17R,1.7500X2.4500*%
%ADD18R,0.6000X0.9000*%
%ADD19R,0.9500X0.7000*%
%ADD40C,0.5000*%
%ADD41C,1.0000*%
%ADD42C,0.3500*%
%ADD43C,0.3810*%
%ADD44C,2.0000*%
%ADD45C,1.7500*%
%ADD46C,0.8300*%
%ADD47R,1.5000X1.5000*%
%ADD48C,1.5000*%
%ADD49R,1.7500X1.7500*%
%ADD50C,1.7500*%
%ADD51R,1.7500X1.7500*%
%ADD52C,8.0000*%
%ADD53C,2.0000*%
%ADD54C,5.0000*%
%ADD55C,3.5000*%
%ADD56C,1.6000*%
%ADD57C,2.7000*%
%ADD58C,6.0000*%
%ADD59C,1.2700*%
D12*
X130810Y887205D02*
Y1075690D01*
X111850Y868245D02*
X130810Y887205D01*
X102870Y1103630D02*
X130810Y1075690D01*
X119380Y864870D02*
X136810Y882300D01*
X119380Y714760D02*
Y864870D01*
X136810Y882300D02*
Y1078175D01*
X119380Y714760D02*
X133350Y700790D01*
X1096010Y812502D02*
Y1234440D01*
X141835Y1244600D02*
X1085850D01*
X1096010Y1234440D01*
X108870Y1211635D02*
X141835Y1244600D01*
X1096010Y812502D02*
X1145242Y763270D01*
X102870Y1214120D02*
X139700Y1250950D01*
X1088390D01*
X1102360Y1236980D01*
Y958432D02*
Y1236980D01*
Y958432D02*
X1145242Y915550D01*
X108870Y1106115D02*
Y1211635D01*
Y1106115D02*
X136810Y1078175D01*
X133350Y700790D02*
X164580D01*
X111850Y660310D02*
X122170Y649990D01*
X111850Y660310D02*
Y868245D01*
X102870Y1103630D02*
Y1214120D01*
X122170Y649990D02*
X133350D01*
X164580D01*
D14*
X917633Y1000160D02*
D03*
X974133D02*
D03*
X1924670Y827800D02*
D03*
X1868170D02*
D03*
Y870980D02*
D03*
X1924670D02*
D03*
X917633Y761980D02*
D03*
X974133D02*
D03*
X1924670Y1109160D02*
D03*
X1868170D02*
D03*
Y739160D02*
D03*
X1924670D02*
D03*
X1868170Y1065980D02*
D03*
X1924670D02*
D03*
X1868170Y695980D02*
D03*
X1924670D02*
D03*
X1868170Y1240980D02*
D03*
X1924670D02*
D03*
X1868170Y1197800D02*
D03*
X1924670D02*
D03*
X973553Y630160D02*
D03*
X917053D02*
D03*
X974133Y956980D02*
D03*
X917633D02*
D03*
X974133Y586980D02*
D03*
X917633D02*
D03*
X974133Y1175160D02*
D03*
X917633D02*
D03*
X974133Y805160D02*
D03*
X917633D02*
D03*
X974133Y1131980D02*
D03*
X917633D02*
D03*
D15*
X1917920Y1025320D02*
D03*
X1874920D02*
D03*
X924383Y1091320D02*
D03*
X967383D02*
D03*
X924383Y721320D02*
D03*
X967383D02*
D03*
X924383Y916320D02*
D03*
X967383D02*
D03*
X924383Y542290D02*
D03*
X967383D02*
D03*
X1917920Y1157140D02*
D03*
X1874920D02*
D03*
X1917920Y787140D02*
D03*
X1874920D02*
D03*
X1917920Y655320D02*
D03*
X1874920D02*
D03*
X717550Y534890D02*
D03*
X674550D02*
D03*
X90350Y700790D02*
D03*
X133350D02*
D03*
Y649990D02*
D03*
X90350D02*
D03*
X717550Y418690D02*
D03*
X674550D02*
D03*
X674550Y585470D02*
D03*
X717550D02*
D03*
D16*
X702460Y447040D02*
D03*
X689460D02*
D03*
X1971190Y556260D02*
D03*
X1958190D02*
D03*
X1173630Y494540D02*
D03*
X1160630D02*
D03*
X1958190Y572770D02*
D03*
X1971190D02*
D03*
X1971190Y539750D02*
D03*
X1958190D02*
D03*
D17*
X284193Y1128940D02*
D03*
Y1085940D02*
D03*
X327230Y1128940D02*
D03*
Y1085940D02*
D03*
X241157Y1128940D02*
D03*
Y1085940D02*
D03*
X198120Y1128940D02*
D03*
Y1085940D02*
D03*
D18*
X1992020Y546030D02*
D03*
X2011020D02*
D03*
X2001520Y569030D02*
D03*
D19*
X1140460Y476100D02*
D03*
Y489100D02*
D03*
X1123950Y476100D02*
D03*
Y489100D02*
D03*
D40*
X90350Y674710D02*
Y700790D01*
X2011020Y531470D02*
Y546030D01*
X2000790Y556260D02*
X2011020Y546030D01*
X1971190Y556260D02*
X2000790D01*
X717550Y585470D02*
X717770Y585690D01*
X758940D01*
X717550Y534890D02*
X758940D01*
X848360Y469900D02*
X1017270D01*
X829310Y488950D02*
X848360Y469900D01*
X829310Y488950D02*
Y601980D01*
X822960Y483870D02*
X843280Y463550D01*
X1019810D01*
X822960Y483870D02*
Y598170D01*
X796290Y635000D02*
X829310Y601980D01*
X793750Y627380D02*
X822960Y598170D01*
X758940Y585690D02*
X803690D01*
X816610Y478385D02*
Y572770D01*
X803690Y585690D02*
X816610Y572770D01*
X799880Y534890D02*
X810260Y524510D01*
X758940Y534890D02*
X799880D01*
X810260Y476250D02*
Y524510D01*
X816610Y478385D02*
X839415Y455580D01*
X810260Y476250D02*
X836930Y449580D01*
X442710Y635000D02*
X796290D01*
X482600Y627380D02*
X793750D01*
X461010Y605790D02*
X482600Y627380D01*
X839415Y455580D02*
X1023270D01*
X836930Y449580D02*
X1026160D01*
X920750Y429260D02*
X930910Y419100D01*
X806450Y429260D02*
X920750D01*
X877570Y322580D02*
X890492Y309658D01*
X830580Y322580D02*
X877570D01*
X791620Y444090D02*
Y482190D01*
X778920Y494890D02*
X791620Y482190D01*
X1917700Y529590D02*
X1944370Y556260D01*
X1076960Y529590D02*
X1917700D01*
X1927860Y523240D02*
X1944370Y539750D01*
X1958190D01*
X1480924Y323560D02*
X1499870Y342506D01*
Y502920D01*
X1488440Y514350D02*
X1499870Y502920D01*
X1082040Y514350D02*
X1488440D01*
X1480924Y478500D02*
Y493926D01*
X1466850Y508000D02*
X1480924Y493926D01*
X1375120Y453100D02*
X1480924D01*
X1341120Y419100D02*
X1375120Y453100D01*
X1026160Y449580D02*
X1084580Y508000D01*
X1466850D01*
X649830Y534890D02*
X674550D01*
X930910Y419100D02*
X1341120D01*
X791620Y444090D02*
X806450Y429260D01*
X1341120Y419100D02*
X1462060Y298160D01*
X1480924D01*
X1023270Y455580D02*
X1082040Y514350D01*
X1019810Y463550D02*
X1079500Y523240D01*
X1927860D01*
X1017270Y469900D02*
X1076960Y529590D01*
X758940Y494890D02*
X778920D01*
X327230Y1128940D02*
Y1153660D01*
X284193Y1128940D02*
Y1153660D01*
X241157Y1128940D02*
Y1153660D01*
X198120Y1128940D02*
Y1153660D01*
X90350Y649990D02*
Y674710D01*
X649830Y585470D02*
X674550D01*
X649830Y418690D02*
X674550D01*
X327230Y1058750D02*
Y1085940D01*
X315800Y1047320D02*
X327230Y1058750D01*
X315800Y1035270D02*
Y1047320D01*
X284193Y1063973D02*
Y1085940D01*
X265000Y1044780D02*
X284193Y1063973D01*
X265000Y1035270D02*
Y1044780D01*
X226900Y1071683D02*
X241157Y1085940D01*
X226900Y1035270D02*
Y1071683D01*
X201500Y1035270D02*
Y1082560D01*
X198120Y1085940D02*
X201500Y1082560D01*
X198120Y1085940D02*
Y1102440D01*
X203120Y1107440D01*
X252730D01*
X259080Y1101090D01*
Y1069340D02*
Y1101090D01*
X242570Y1052830D02*
X259080Y1069340D01*
X251460Y1047750D02*
X269443Y1065733D01*
X251460Y482600D02*
Y1047750D01*
X269443Y1065733D02*
Y1100023D01*
X276860Y1107440D01*
X353060D01*
X717550Y418690D02*
Y440690D01*
X711200Y447040D02*
X717550Y440690D01*
X702460Y447040D02*
X711200D01*
X287020D02*
X689460D01*
X251460Y482600D02*
X287020Y447040D01*
X353060Y1107440D02*
X359410Y1101090D01*
Y1019810D02*
Y1101090D01*
X331470Y991870D02*
X359410Y1019810D01*
X331470Y655320D02*
Y991870D01*
Y655320D02*
X351790Y635000D01*
X442710D01*
Y602840D02*
Y635000D01*
X242570Y416560D02*
X262890Y396240D01*
X242570Y416560D02*
Y1052830D01*
X800100Y323850D02*
Y368300D01*
X226900Y406830D02*
Y1035270D01*
X252730Y381000D02*
X787400D01*
X226900Y406830D02*
X252730Y381000D01*
X800100Y323850D02*
X818170Y305780D01*
X865092D01*
X787400Y381000D02*
X800100Y368300D01*
X819150Y334010D02*
X830580Y322580D01*
X890492Y305780D02*
Y309658D01*
X819150Y334010D02*
Y373380D01*
X796290Y396240D02*
X819150Y373380D01*
X262890Y396240D02*
X796290D01*
X758940Y444090D02*
X791620D01*
X347980Y584310D02*
X366510Y602840D01*
X461010Y563880D02*
Y605790D01*
X347980Y562610D02*
Y584310D01*
X450850Y553720D02*
X461010Y563880D01*
X356870Y553720D02*
X450850D01*
X347980Y562610D02*
X356870Y553720D01*
X1123950Y476100D02*
X1140460D01*
X1116990Y469140D02*
X1123950Y476100D01*
X1094442Y469140D02*
X1116990D01*
X1154940Y494540D02*
X1160630D01*
X1149500Y489100D02*
X1154940Y494540D01*
X1140460Y489100D02*
X1149500D01*
X1123950D02*
X1140460D01*
X1118720D02*
X1123950D01*
X1113280Y494540D02*
X1118720Y489100D01*
X1094442Y494540D02*
X1113280D01*
D41*
X1878330Y998220D02*
X1944370D01*
X1845012D02*
X1878330D01*
X1874920Y1001630D02*
X1878330Y998220D01*
X1874920Y1001630D02*
Y1025320D01*
X1955800Y1139190D02*
Y1230630D01*
Y1106170D02*
Y1139190D01*
X1892870D02*
X1955800D01*
X1874920Y1157140D02*
X1892870Y1139190D01*
X1955800Y1009650D02*
Y1106170D01*
X1952810Y1109160D02*
X1955800Y1106170D01*
X1924670Y1109160D02*
X1952810D01*
X1924670Y1240980D02*
X1945450D01*
X1955800Y1230630D01*
X1944370Y998220D02*
X1955800Y1009650D01*
X1829772Y1013460D02*
X1845012Y998220D01*
X1877060Y628650D02*
X1938020D01*
X1843742D02*
X1877060D01*
X1874920Y630790D02*
X1877060Y628650D01*
X1874920Y630790D02*
Y655320D01*
X1954530Y769620D02*
Y859790D01*
Y737870D02*
Y769620D01*
X1892440D02*
X1954530D01*
X1874920Y787140D02*
X1892440Y769620D01*
X1954530Y645160D02*
Y737870D01*
X1953240Y739160D02*
X1954530Y737870D01*
X1924670Y739160D02*
X1953240D01*
X1924670Y870980D02*
X1943340D01*
X1954530Y859790D01*
X1938020Y628650D02*
X1954530Y645160D01*
X1829772Y642620D02*
X1843742Y628650D01*
X890270Y999490D02*
Y1062990D01*
Y906780D02*
Y999490D01*
X890940Y1000160D01*
X917633D01*
X969010Y892810D02*
X1012531D01*
X904240D02*
X969010D01*
X967383Y894437D02*
X969010Y892810D01*
X967383Y894437D02*
Y916320D01*
X890270Y1062990D02*
Y1163320D01*
Y1062990D02*
X956310D01*
X967383Y1074063D01*
Y1091320D01*
X902110Y1175160D02*
X917633D01*
X890270Y1163320D02*
X902110Y1175160D01*
X890270Y906780D02*
X904240Y892810D01*
X972820Y673100D02*
X1012531D01*
X892810D02*
X972820D01*
X967383Y678537D02*
X972820Y673100D01*
X967383Y678537D02*
Y721320D01*
X890270Y670560D02*
Y796290D01*
Y627380D02*
Y670560D01*
X892810Y673100D01*
X890270Y534670D02*
Y627380D01*
X893050Y630160D01*
X917053D01*
X967383Y531773D02*
Y542290D01*
X956310Y520700D02*
X967383Y531773D01*
X904240Y520700D02*
X956310D01*
X890270Y534670D02*
X904240Y520700D01*
X890270Y796290D02*
X899140Y805160D01*
X917633D01*
Y549040D02*
Y586980D01*
Y549040D02*
X924383Y542290D01*
X917633Y728070D02*
Y761980D01*
Y728070D02*
X924383Y721320D01*
X917633Y923070D02*
Y956980D01*
Y923070D02*
X924383Y916320D01*
X917633Y1098070D02*
Y1131980D01*
Y1098070D02*
X924383Y1091320D01*
X1917920Y1157140D02*
X1924670Y1163890D01*
Y1197800D01*
Y1032070D02*
Y1065980D01*
X1917920Y1025320D02*
X1924670Y1032070D01*
X1924670Y793890D02*
Y827800D01*
X1917920Y787140D02*
X1924670Y793890D01*
X1924670Y662070D02*
Y695980D01*
X1917920Y655320D02*
X1924670Y662070D01*
X913702Y416560D02*
X926402Y403860D01*
X761070Y416560D02*
X913702D01*
X1944370Y556260D02*
X1958190D01*
X361950Y257810D02*
X943610D01*
X1047033Y154387D01*
X1511300D01*
X286590Y182450D02*
X361950Y257810D01*
X311990Y173560D02*
X379730Y241300D01*
X920750D02*
X1033063Y128987D01*
X379730Y241300D02*
X920750D01*
X408940Y224790D02*
X901147D01*
X342470Y158320D02*
X408940Y224790D01*
X901147D02*
X971550Y154387D01*
X430530Y208280D02*
X882650D01*
X367870Y145620D02*
X430530Y208280D01*
X882650D02*
X961943Y128987D01*
X926402Y403860D02*
X1301750D01*
X1451610Y254000D02*
X1498600D01*
X1301750Y403860D02*
X1451610Y254000D01*
X1524000Y279400D02*
Y430530D01*
X1577685Y484215D02*
X1903240D01*
X1524000Y430530D02*
X1577685Y484215D01*
X1498600Y254000D02*
X1524000Y279400D01*
X342470Y104360D02*
Y158320D01*
X961943Y128987D02*
X971550D01*
X367870Y104360D02*
Y145620D01*
X286590Y104360D02*
Y182450D01*
X311990Y104360D02*
Y173560D01*
X1033063Y128987D02*
X1511300D01*
X758940Y418690D02*
X761070Y416560D01*
X1903240Y484215D02*
X1983340D01*
X1907195Y165050D02*
X1980855D01*
X2084722D02*
X2096152Y176480D01*
X1980855Y165050D02*
X2084722D01*
X717550Y418690D02*
X758940D01*
X1958190Y556260D02*
X1958190Y556260D01*
X1173630Y494540D02*
X1192020D01*
X1804372Y1065980D02*
Y1240980D01*
Y1013460D02*
Y1065980D01*
Y695980D02*
Y870980D01*
Y642620D02*
Y695980D01*
X1037931Y892810D02*
Y1131980D01*
X1037931Y1131980D01*
X1037931Y586980D02*
Y761980D01*
X1012531Y586980D02*
X1012531Y586980D01*
X974133Y586980D02*
X1012531D01*
X973553Y587560D02*
X974133Y586980D01*
X973553Y587560D02*
Y630160D01*
X974110Y762003D02*
Y805160D01*
X974133Y761980D02*
X974133Y761980D01*
X1012531D01*
X974110Y762003D02*
X974133Y761980D01*
X974110Y805160D02*
X974133D01*
X1012531Y956980D02*
X1012531Y956980D01*
X974133Y956980D02*
X1012531D01*
X974133D02*
Y1000160D01*
X1012531Y1131980D02*
X1012531Y1131980D01*
X974133Y1131980D02*
X1012531D01*
X974133D02*
Y1175160D01*
X1868170Y1240980D02*
X1868170Y1240980D01*
X1829772Y1240980D02*
X1868170D01*
X1868170Y1197800D02*
Y1240980D01*
X1829772Y1065980D02*
X1868170D01*
X1868170Y1065980D01*
Y1109160D01*
X1829772Y870980D02*
X1868170D01*
X1868170Y870980D01*
Y827800D02*
Y870980D01*
X1868170Y695980D02*
Y739160D01*
X1829772Y695980D02*
X1829772Y695980D01*
X1868170D01*
D42*
X791210Y515620D02*
X803910Y502920D01*
Y469900D02*
Y502920D01*
Y469900D02*
X830070Y443740D01*
X788670Y510540D02*
X798830Y500380D01*
Y468616D02*
X828206Y439240D01*
X798830Y468616D02*
Y500380D01*
X336550Y515620D02*
X791210D01*
X334010Y510540D02*
X788670D01*
X830070Y443740D02*
X1094442D01*
X829310Y438150D02*
X1076960D01*
X828220Y439240D02*
X829310Y438150D01*
X828206Y439240D02*
X828220D01*
X1192020Y440180D02*
Y494540D01*
X1181100Y429260D02*
X1192020Y440180D01*
X1085850Y429260D02*
X1181100D01*
X265000Y579550D02*
Y1035270D01*
X1076960Y438150D02*
X1085850Y429260D01*
X265000Y579550D02*
X334010Y510540D01*
X315800Y536370D02*
Y1035270D01*
Y536370D02*
X336550Y515620D01*
D43*
X1971190Y572770D02*
X2037080D01*
X2056130Y626110D02*
X2067560D01*
X2045970Y615950D02*
X2056130Y626110D01*
X2045970Y581660D02*
Y615950D01*
X2037080Y572770D02*
X2045970Y581660D01*
X1981400Y539750D02*
X1985085Y543435D01*
X1990925D01*
X1992020Y544530D01*
Y546030D01*
X1971190Y539750D02*
X1981400D01*
X1958190Y556260D02*
Y572770D01*
D44*
X1541780Y271780D02*
Y393700D01*
X1443990Y236220D02*
X1506220D01*
X1541780Y271780D01*
X1295400Y384810D02*
X1443990Y236220D01*
X1004570Y384810D02*
X1295400D01*
X1556095Y408015D02*
X1903240D01*
X1541780Y393700D02*
X1556095Y408015D01*
X1983340D02*
X2096152D01*
X786130Y283210D02*
X902970D01*
X1004570Y384810D01*
X758940Y310400D02*
Y330420D01*
Y310400D02*
X786130Y283210D01*
X1903240Y408015D02*
X1983340D01*
D45*
X707124Y104238D02*
Y155944D01*
X737870Y186690D02*
X863600D01*
X707124Y155944D02*
X737870Y186690D01*
X2096152Y458815D02*
X2120900Y434067D01*
Y356563D02*
Y434067D01*
X681724Y104238D02*
X707124D01*
X1932015Y331815D02*
X2096152D01*
X1776730Y107950D02*
X1883830Y215050D01*
X1983340Y433415D02*
X2033615D01*
X2059015Y458815D01*
X2096152Y331815D02*
X2120900Y356563D01*
X863600Y186690D02*
X942340Y107950D01*
X1776730D01*
X1907195Y306995D02*
X1932015Y331815D01*
X1907195Y215050D02*
Y306995D01*
X1903240Y433415D02*
X1983340D01*
X2059015Y458815D02*
X2096152D01*
X1883830Y215050D02*
X1907195D01*
D46*
X744220Y166370D02*
X850900D01*
X726440Y95250D02*
Y148590D01*
X744220Y166370D01*
X2157730Y110490D02*
Y476250D01*
X2125980Y508000D02*
X2157730Y476250D01*
X2125980Y508000D02*
Y688340D01*
X2108200Y494030D02*
Y702310D01*
X2143760Y124460D02*
Y458470D01*
X2108200Y494030D02*
X2143760Y458470D01*
X720090Y88900D02*
X726440Y95250D01*
X240440Y252320D02*
X266700Y226060D01*
X122670Y252320D02*
X240440D01*
X266700Y96520D02*
X274320Y88900D01*
X2108200Y702310D02*
X2132230Y726340D01*
X925830Y91440D02*
X2110740D01*
X266700Y96520D02*
Y226060D01*
X274320Y88900D02*
X720090D01*
X2132230Y726340D02*
X2171700D01*
X850900Y166370D02*
X925830Y91440D01*
X2110740D02*
X2143760Y124460D01*
X2137410Y699770D02*
X2200910D01*
X739140Y139700D02*
X750570Y151130D01*
X2171700Y886340D02*
X2197220D01*
X2125980Y688340D02*
X2137410Y699770D01*
X2125610Y78370D02*
X2157730Y110490D01*
X726440Y78740D02*
X739140Y91440D01*
X750570Y151130D02*
X847090D01*
X739140Y91440D02*
Y139700D01*
X254000Y91440D02*
X266700Y78740D01*
X97270Y239280D02*
X104140Y232410D01*
X919850Y78370D02*
X2125610D01*
X266700Y78740D02*
X726440D01*
X2200910Y699770D02*
X2213610Y712470D01*
X847090Y151130D02*
X919850Y78370D01*
X97270Y239280D02*
Y252320D01*
X254000Y91440D02*
Y214630D01*
X2197220Y886340D02*
X2213610Y869950D01*
Y712470D02*
Y869950D01*
X104140Y232410D02*
X236220D01*
X254000Y214630D01*
D47*
X1170642Y763270D02*
D03*
D48*
X1145242D02*
D03*
X1907195Y215050D02*
D03*
Y165050D02*
D03*
X1980855Y215050D02*
D03*
Y165050D02*
D03*
D49*
X442710Y602840D02*
D03*
X865092Y305780D02*
D03*
X150700Y1035270D02*
D03*
X265000D02*
D03*
X707124Y104238D02*
D03*
X1170642Y915550D02*
D03*
X122670Y252320D02*
D03*
X367870Y104360D02*
D03*
X311990D02*
D03*
X1037931Y586980D02*
D03*
Y761980D02*
D03*
X1037931Y1131980D02*
D03*
Y956980D02*
D03*
X1804372Y1240980D02*
D03*
Y1065980D02*
D03*
Y695980D02*
D03*
Y870980D02*
D03*
D50*
X442710Y577440D02*
D03*
X417310Y602840D02*
D03*
Y577440D02*
D03*
X391910Y602840D02*
D03*
Y577440D02*
D03*
X366510Y602840D02*
D03*
Y577440D02*
D03*
X758940Y469490D02*
D03*
Y444090D02*
D03*
Y418690D02*
D03*
X1903240Y484215D02*
D03*
Y458815D02*
D03*
Y433415D02*
D03*
Y408015D02*
D03*
X890492Y305780D02*
D03*
X1094442Y469140D02*
D03*
Y443740D02*
D03*
X1983340Y458815D02*
D03*
Y433415D02*
D03*
Y484215D02*
D03*
Y408015D02*
D03*
X758940Y330420D02*
D03*
X164580Y726190D02*
D03*
Y700790D02*
D03*
Y675390D02*
D03*
X758940Y534890D02*
D03*
Y560290D02*
D03*
Y585690D02*
D03*
X226900Y1035270D02*
D03*
X201500D02*
D03*
X176100D02*
D03*
X341200D02*
D03*
X315800D02*
D03*
X290400D02*
D03*
X630924Y104238D02*
D03*
X656324D02*
D03*
X681724D02*
D03*
X1480924Y298160D02*
D03*
X1145242Y915550D02*
D03*
X97270Y252320D02*
D03*
X342470Y104360D02*
D03*
X286590D02*
D03*
X1480924Y453100D02*
D03*
X1012531Y586980D02*
D03*
Y761980D02*
D03*
X1012531Y1131980D02*
D03*
Y956980D02*
D03*
X1829772Y1240980D02*
D03*
Y1065980D02*
D03*
Y695980D02*
D03*
Y870980D02*
D03*
D51*
X758940Y494890D02*
D03*
X1094442Y494540D02*
D03*
X758940Y355820D02*
D03*
X164580Y649990D02*
D03*
X758940Y611090D02*
D03*
X1480924Y478500D02*
D03*
Y323560D02*
D03*
D52*
X155450Y1181480D02*
D03*
X155450Y181480D02*
D03*
X878542Y370550D02*
D03*
X2096152Y176480D02*
D03*
X1147365Y596480D02*
D03*
X1688960D02*
D03*
X1688960Y1231480D02*
D03*
X1147365D02*
D03*
X1688960Y1021630D02*
D03*
X1688960Y806330D02*
D03*
D53*
X1829772Y1013460D02*
D03*
X1804372D02*
D03*
X1037931Y673100D02*
D03*
X1012531D02*
D03*
X1511300Y154387D02*
D03*
Y128987D02*
D03*
X971550Y154387D02*
D03*
Y128987D02*
D03*
X1829772Y642620D02*
D03*
X1804372D02*
D03*
X1012531Y892810D02*
D03*
X1037931D02*
D03*
D54*
X1147374Y250000D02*
D03*
X1688968D02*
D03*
D55*
X2171700Y726340D02*
D03*
Y886340D02*
D03*
D56*
X2283460Y726338D02*
D03*
Y886338D02*
D03*
X2067560Y626110D02*
D03*
X2143760D02*
D03*
X2067560Y600710D02*
D03*
Y575310D02*
D03*
Y549910D02*
D03*
X2143760D02*
D03*
D57*
X2096152Y408015D02*
D03*
Y458815D02*
D03*
Y281015D02*
D03*
Y331815D02*
D03*
D58*
X775450Y1030830D02*
D03*
X95450D02*
D03*
X775450Y110830D02*
D03*
X95450D02*
D03*
D59*
X2011020Y531470D02*
D03*
X1944370Y556260D02*
D03*
Y539750D02*
D03*
X649830Y534890D02*
D03*
X327230Y1153660D02*
D03*
X284193D02*
D03*
X241157D02*
D03*
X198120D02*
D03*
X90350Y674710D02*
D03*
X649830Y585470D02*
D03*
X649830Y418690D02*
D03*
X1192020Y494540D02*
D03*
M02*
