G04*
G04 #@! TF.GenerationSoftware,Altium Limited,Altium Designer,22.8.2 (66)*
G04*
G04 Layer_Color=65535*
%FSLAX44Y44*%
%MOMM*%
G71*
G04*
G04 #@! TF.SameCoordinates,FCAC6DC3-BFDC-4997-BBA7-94834F3B9FAF*
G04*
G04*
G04 #@! TF.FilePolarity,Positive*
G04*
G01*
G75*
G36*
X850160Y724369D02*
X850440D01*
Y724089D01*
X850721D01*
Y723809D01*
X857722D01*
Y724089D01*
X858003D01*
Y723809D01*
X858283D01*
Y723529D01*
X858563D01*
Y723249D01*
X869206D01*
Y722689D01*
X868926D01*
Y722409D01*
X868365D01*
Y721288D01*
X868646D01*
Y721008D01*
X868365D01*
Y720728D01*
X868085D01*
Y720448D01*
X867805D01*
Y718768D01*
X867525D01*
Y718488D01*
X867245D01*
Y718207D01*
X866965D01*
Y717647D01*
X867245D01*
Y716807D01*
X866965D01*
Y716527D01*
X866685D01*
Y716247D01*
X866405D01*
Y715127D01*
X865845D01*
Y713446D01*
X865565D01*
Y713166D01*
X865285D01*
Y712886D01*
X865005D01*
Y711766D01*
X864444D01*
Y710645D01*
X864164D01*
Y710365D01*
X863884D01*
Y710085D01*
X863604D01*
Y709805D01*
X863044D01*
Y710365D01*
X861924D01*
Y710645D01*
X861644D01*
Y711206D01*
X860523D01*
Y711486D01*
X860243D01*
Y711766D01*
X858003D01*
Y712046D01*
X857722D01*
Y712326D01*
X857442D01*
Y712606D01*
X855762D01*
Y712326D01*
X855482D01*
Y712606D01*
X855202D01*
Y712886D01*
X854922D01*
Y713166D01*
X846519D01*
Y712886D01*
X846239D01*
Y712606D01*
X845959D01*
Y712326D01*
X845399D01*
Y712606D01*
X843718D01*
Y712326D01*
X843438D01*
Y712606D01*
X842878D01*
Y713166D01*
X836436D01*
Y712886D01*
X836156D01*
Y712606D01*
X835876D01*
Y712326D01*
X835316D01*
Y712606D01*
X831115D01*
Y712326D01*
X830835D01*
Y712046D01*
X830555D01*
Y711766D01*
X826074D01*
Y711206D01*
X822993D01*
Y710925D01*
X822713D01*
Y710645D01*
X822432D01*
Y710365D01*
X818791D01*
Y710085D01*
X818511D01*
Y709805D01*
X814030D01*
Y709245D01*
X813470D01*
Y708965D01*
X813190D01*
Y709245D01*
X811509D01*
Y708965D01*
X811229D01*
Y708405D01*
X808148D01*
Y708125D01*
X807868D01*
Y707844D01*
X807588D01*
Y707564D01*
X807308D01*
Y707284D01*
X807028D01*
Y707004D01*
X806748D01*
Y706724D01*
X806468D01*
Y706444D01*
X806188D01*
Y706164D01*
X805908D01*
Y705884D01*
X805628D01*
Y705604D01*
X805348D01*
Y705324D01*
X805068D01*
Y705044D01*
X804787D01*
Y705324D01*
X804507D01*
Y706164D01*
X804787D01*
Y706444D01*
X804507D01*
Y707564D01*
X804787D01*
Y707844D01*
X805348D01*
Y710365D01*
X805628D01*
Y710645D01*
X805908D01*
Y713726D01*
X806468D01*
Y714006D01*
X806748D01*
Y715127D01*
X807028D01*
Y715407D01*
X807308D01*
Y717087D01*
X807588D01*
Y717367D01*
X807868D01*
Y717647D01*
X808148D01*
Y717927D01*
X808428D01*
Y718207D01*
X808708D01*
Y718488D01*
X808989D01*
Y718768D01*
X809269D01*
Y719048D01*
X809549D01*
Y719328D01*
X809829D01*
Y719608D01*
X810109D01*
Y719888D01*
X811229D01*
Y720168D01*
X811509D01*
Y720448D01*
X811789D01*
Y720728D01*
X812069D01*
Y721008D01*
X812350D01*
Y721288D01*
X813190D01*
Y721008D01*
X813470D01*
Y720728D01*
X813750D01*
Y720448D01*
X817111D01*
Y720728D01*
X817391D01*
Y721008D01*
X817671D01*
Y721288D01*
X821312D01*
Y721568D01*
X821592D01*
Y721849D01*
X824673D01*
Y722409D01*
X824953D01*
Y722689D01*
X826634D01*
Y722129D01*
X826914D01*
Y721849D01*
X827474D01*
Y722409D01*
X827754D01*
Y722689D01*
X829995D01*
Y722409D01*
X830275D01*
Y722689D01*
X830835D01*
Y723249D01*
X835316D01*
Y723529D01*
X835596D01*
Y723809D01*
X835876D01*
Y724089D01*
X836436D01*
Y723809D01*
X840078D01*
Y724089D01*
X840358D01*
Y724649D01*
X850160D01*
Y724369D01*
D02*
G37*
G36*
X925502Y724929D02*
X925782D01*
Y724649D01*
X927462D01*
Y724369D01*
X927742D01*
Y724089D01*
X928022D01*
Y723809D01*
X928863D01*
Y723529D01*
X929143D01*
Y723249D01*
X929423D01*
Y722969D01*
X929703D01*
Y722689D01*
X929983D01*
Y722409D01*
X930543D01*
Y722689D01*
X931383D01*
Y722409D01*
X931664D01*
Y722129D01*
X931944D01*
Y721849D01*
X934184D01*
Y721568D01*
X934464D01*
Y721288D01*
X936985D01*
Y720728D01*
X937265D01*
Y720448D01*
X940906D01*
Y720728D01*
X941186D01*
Y720448D01*
X941746D01*
Y719888D01*
X955190D01*
Y719328D01*
X957151D01*
Y719608D01*
X957431D01*
Y719888D01*
X962472D01*
Y720168D01*
X962752D01*
Y720448D01*
X963032D01*
Y720728D01*
X963312D01*
Y720448D01*
X966393D01*
Y720728D01*
X966673D01*
Y721288D01*
X970034D01*
Y721849D01*
X972555D01*
Y722409D01*
X972835D01*
Y722689D01*
X973955D01*
Y722969D01*
X974236D01*
Y723249D01*
X977316D01*
Y723809D01*
X978157D01*
Y723249D01*
X978437D01*
Y722969D01*
X978717D01*
Y722689D01*
X978997D01*
Y722409D01*
X979277D01*
Y722129D01*
X979557D01*
Y721849D01*
X979837D01*
Y721568D01*
X980117D01*
Y721288D01*
X980397D01*
Y721008D01*
X980677D01*
Y720728D01*
X980957D01*
Y720448D01*
X981237D01*
Y720168D01*
X981518D01*
Y719888D01*
X981798D01*
Y719608D01*
X982078D01*
Y719328D01*
X982358D01*
Y719048D01*
X982638D01*
Y718768D01*
X982918D01*
Y718488D01*
X984038D01*
Y718207D01*
X984318D01*
Y717927D01*
X984598D01*
Y717647D01*
X984878D01*
Y716527D01*
X985439D01*
Y715967D01*
X986559D01*
Y715687D01*
X986839D01*
Y714566D01*
X986279D01*
Y714286D01*
X985999D01*
Y714006D01*
X985719D01*
Y713726D01*
X985439D01*
Y713446D01*
X985159D01*
Y713166D01*
X984878D01*
Y712886D01*
X984598D01*
Y712606D01*
X984318D01*
Y712326D01*
X984038D01*
Y712606D01*
X979557D01*
Y712326D01*
X979277D01*
Y711766D01*
X976756D01*
Y711206D01*
X974796D01*
Y710645D01*
X974516D01*
Y710365D01*
X973395D01*
Y710645D01*
X973115D01*
Y710365D01*
X972835D01*
Y710085D01*
X972555D01*
Y709805D01*
X968074D01*
Y709525D01*
X967794D01*
Y709245D01*
X967514D01*
Y708965D01*
X967234D01*
Y709245D01*
X965553D01*
Y708965D01*
X965273D01*
Y708685D01*
X964993D01*
Y708405D01*
X961912D01*
Y707844D01*
X957431D01*
Y707564D01*
X957151D01*
Y707284D01*
X956871D01*
Y707004D01*
X952109D01*
Y707284D01*
X951829D01*
Y707564D01*
X951549D01*
Y707844D01*
X949308D01*
Y708125D01*
X949028D01*
Y708405D01*
X947348D01*
Y708685D01*
X947068D01*
Y708965D01*
X946788D01*
Y709245D01*
X945947D01*
Y708965D01*
X945667D01*
Y708685D01*
X945947D01*
Y708405D01*
X946228D01*
Y708125D01*
X946508D01*
Y707844D01*
X945947D01*
Y707564D01*
X945667D01*
Y707844D01*
X945107D01*
Y708405D01*
X938385D01*
Y707844D01*
X935304D01*
Y707564D01*
X935024D01*
Y707284D01*
X934744D01*
Y707004D01*
X933904D01*
Y707284D01*
X933344D01*
Y707004D01*
X933064D01*
Y706724D01*
X932784D01*
Y706444D01*
X931664D01*
Y705884D01*
X930263D01*
Y705604D01*
X929983D01*
Y705884D01*
X929703D01*
Y706164D01*
X929423D01*
Y706444D01*
X929143D01*
Y706724D01*
X928863D01*
Y707004D01*
X928583D01*
Y707284D01*
X928303D01*
Y707564D01*
X928022D01*
Y707844D01*
X927742D01*
Y708125D01*
X927462D01*
Y708405D01*
X927182D01*
Y708685D01*
X926902D01*
Y708965D01*
X926622D01*
Y709245D01*
X926342D01*
Y709525D01*
X926062D01*
Y709805D01*
X925782D01*
Y710085D01*
X925502D01*
Y710365D01*
X925222D01*
Y710645D01*
X924941D01*
Y711766D01*
X924381D01*
Y712886D01*
X924101D01*
Y713166D01*
X923821D01*
Y713446D01*
X923541D01*
Y715687D01*
X923261D01*
Y715967D01*
X922981D01*
Y718488D01*
X922421D01*
Y718768D01*
X922141D01*
Y724369D01*
X922421D01*
Y724649D01*
X923541D01*
Y725210D01*
X925502D01*
Y724929D01*
D02*
G37*
G36*
X979837Y701403D02*
X980117D01*
Y701123D01*
X980397D01*
Y700843D01*
X980677D01*
Y700563D01*
X980957D01*
Y700282D01*
X982078D01*
Y699162D01*
X982638D01*
Y698322D01*
X982078D01*
Y697202D01*
X981798D01*
Y696921D01*
X980957D01*
Y697202D01*
X980397D01*
Y696921D01*
X980117D01*
Y696641D01*
X979837D01*
Y696361D01*
X977597D01*
Y696081D01*
X977316D01*
Y695801D01*
X977036D01*
Y695521D01*
X976476D01*
Y695801D01*
X975076D01*
Y695521D01*
X974796D01*
Y695241D01*
X974516D01*
Y694961D01*
X971995D01*
Y694401D01*
X970875D01*
Y694121D01*
X970594D01*
Y693841D01*
X970314D01*
Y693560D01*
X968074D01*
Y693841D01*
X967794D01*
Y693560D01*
X967234D01*
Y693000D01*
X954630D01*
Y693280D01*
X954350D01*
Y693560D01*
X954070D01*
Y693841D01*
X953790D01*
Y693560D01*
X947348D01*
Y693841D01*
X947068D01*
Y694401D01*
X942587D01*
Y694681D01*
X942307D01*
Y694961D01*
X937265D01*
Y695241D01*
X936985D01*
Y695521D01*
X936705D01*
Y695801D01*
X935865D01*
Y696081D01*
X935585D01*
Y696361D01*
X935304D01*
Y696641D01*
X935024D01*
Y697482D01*
X935304D01*
Y697762D01*
X935585D01*
Y698042D01*
X935865D01*
Y698322D01*
X936985D01*
Y698882D01*
X937265D01*
Y699162D01*
X938105D01*
Y698882D01*
X938665D01*
Y699162D01*
X938945D01*
Y699442D01*
X939226D01*
Y699722D01*
X940346D01*
Y700282D01*
X940906D01*
Y700563D01*
X941186D01*
Y700282D01*
X946228D01*
Y700563D01*
X946508D01*
Y701123D01*
X961072D01*
Y701403D01*
X961352D01*
Y701683D01*
X964433D01*
Y701403D01*
X964713D01*
Y701123D01*
X965833D01*
Y701403D01*
X966113D01*
Y701683D01*
X979837D01*
Y701403D01*
D02*
G37*
G36*
X852961Y701123D02*
X856322D01*
Y700563D01*
X856602D01*
Y700282D01*
X856882D01*
Y700002D01*
X857162D01*
Y699722D01*
X857722D01*
Y697762D01*
X858283D01*
Y696921D01*
X857722D01*
Y695801D01*
X857162D01*
Y695521D01*
X856882D01*
Y695801D01*
X856042D01*
Y695521D01*
X855762D01*
Y695241D01*
X855482D01*
Y694961D01*
X852961D01*
Y694401D01*
X847920D01*
Y694121D01*
X847640D01*
Y693841D01*
X847359D01*
Y693560D01*
X843718D01*
Y693841D01*
X843438D01*
Y693560D01*
X842878D01*
Y693000D01*
X824953D01*
Y693280D01*
X824673D01*
Y693560D01*
X824393D01*
Y693841D01*
X824113D01*
Y693560D01*
X818231D01*
Y693841D01*
X817951D01*
Y694401D01*
X815991D01*
Y695521D01*
X815711D01*
Y695801D01*
X814870D01*
Y696081D01*
X814590D01*
Y696361D01*
X814030D01*
Y698322D01*
X814590D01*
Y698882D01*
X814870D01*
Y699162D01*
X815991D01*
Y699442D01*
X816271D01*
Y699722D01*
X817951D01*
Y700002D01*
X818231D01*
Y700282D01*
X818511D01*
Y700563D01*
X818791D01*
Y700282D01*
X821312D01*
Y701403D01*
X821592D01*
Y701683D01*
X852961D01*
Y701123D01*
D02*
G37*
G36*
X936145Y680677D02*
X936425D01*
Y680397D01*
X936705D01*
Y680117D01*
X941746D01*
Y680397D01*
X942026D01*
Y680117D01*
X942307D01*
Y679837D01*
X942587D01*
Y679557D01*
X944267D01*
Y679277D01*
X944547D01*
Y678996D01*
X945387D01*
Y678716D01*
X945667D01*
Y678436D01*
X945947D01*
Y678156D01*
X946228D01*
Y677876D01*
X946508D01*
Y677596D01*
X947628D01*
Y677316D01*
X947908D01*
Y677036D01*
X948188D01*
Y676756D01*
X948468D01*
Y676196D01*
X949589D01*
Y675916D01*
X949869D01*
Y675635D01*
X950149D01*
Y675355D01*
X950429D01*
Y675075D01*
X950709D01*
Y674795D01*
X951829D01*
Y674235D01*
X952389D01*
Y673675D01*
X952669D01*
Y673395D01*
X953790D01*
Y673115D01*
X954070D01*
Y672835D01*
X954350D01*
Y672554D01*
X954630D01*
Y672274D01*
X955470D01*
Y671994D01*
X955750D01*
Y671714D01*
X956030D01*
Y671434D01*
X956311D01*
Y671154D01*
X956590D01*
Y670874D01*
X957711D01*
Y670594D01*
X957991D01*
Y670314D01*
X958271D01*
Y670034D01*
X958551D01*
Y669754D01*
X958831D01*
Y669474D01*
X959111D01*
Y669194D01*
X959391D01*
Y668913D01*
X960232D01*
Y668633D01*
X960512D01*
Y668353D01*
X960792D01*
Y668073D01*
X961072D01*
Y667793D01*
X961352D01*
Y667513D01*
X962472D01*
Y666953D01*
X962752D01*
Y666673D01*
X963312D01*
Y666113D01*
X963873D01*
Y665553D01*
X964993D01*
Y665273D01*
X965273D01*
Y664992D01*
X965553D01*
Y664712D01*
X965833D01*
Y664432D01*
X966113D01*
Y664152D01*
X966393D01*
Y663872D01*
X966673D01*
Y663592D01*
X966954D01*
Y663312D01*
X967794D01*
Y663032D01*
X968074D01*
Y662752D01*
X968354D01*
Y662472D01*
X968634D01*
Y662192D01*
X968914D01*
Y661911D01*
X969194D01*
Y661631D01*
X969474D01*
Y661351D01*
X970594D01*
Y661071D01*
X970875D01*
Y660791D01*
X971155D01*
Y660511D01*
X971435D01*
Y660231D01*
X971715D01*
Y659951D01*
X971995D01*
Y659391D01*
X973115D01*
Y659111D01*
X973395D01*
Y658831D01*
X973675D01*
Y658551D01*
X973955D01*
Y658270D01*
X974236D01*
Y657990D01*
X974516D01*
Y657710D01*
X974796D01*
Y657430D01*
X975916D01*
Y656870D01*
X976196D01*
Y656590D01*
X976756D01*
Y656030D01*
X977316D01*
Y655470D01*
X978437D01*
Y655190D01*
X978717D01*
Y654910D01*
X978997D01*
Y654630D01*
X979277D01*
Y654349D01*
X979557D01*
Y654069D01*
X979837D01*
Y653789D01*
X980117D01*
Y653509D01*
X980397D01*
Y653229D01*
X981237D01*
Y652949D01*
X981518D01*
Y652669D01*
X981798D01*
Y652389D01*
X982078D01*
Y652109D01*
X982358D01*
Y651829D01*
X982638D01*
Y651548D01*
X982918D01*
Y651268D01*
X984038D01*
Y650988D01*
X984318D01*
Y650708D01*
X984598D01*
Y650428D01*
X984878D01*
Y650148D01*
X985159D01*
Y649868D01*
X985439D01*
Y649308D01*
X986559D01*
Y649028D01*
X986839D01*
Y648748D01*
X987119D01*
Y648468D01*
X987399D01*
Y648188D01*
X987679D01*
Y647907D01*
X987959D01*
Y647627D01*
X988240D01*
Y646787D01*
X988520D01*
Y646507D01*
X988800D01*
Y642586D01*
X989360D01*
Y642026D01*
X989640D01*
Y641746D01*
X989360D01*
Y639225D01*
X988240D01*
Y639505D01*
X987959D01*
Y639785D01*
X987679D01*
Y640065D01*
X987399D01*
Y640626D01*
X986279D01*
Y640906D01*
X985999D01*
Y641186D01*
X984878D01*
Y641746D01*
X984598D01*
Y642026D01*
X983478D01*
Y642306D01*
X983198D01*
Y642586D01*
X982078D01*
Y643146D01*
X981798D01*
Y643426D01*
X981518D01*
Y643706D01*
X981237D01*
Y643986D01*
X979557D01*
Y644267D01*
X979277D01*
Y644547D01*
X978157D01*
Y645107D01*
X977877D01*
Y645387D01*
X976756D01*
Y645667D01*
X976476D01*
Y645947D01*
X975356D01*
Y646507D01*
X974236D01*
Y646787D01*
X973955D01*
Y647347D01*
X971995D01*
Y647907D01*
X970875D01*
Y648188D01*
X970594D01*
Y648468D01*
X970314D01*
Y648748D01*
X969474D01*
Y648468D01*
X969194D01*
Y648748D01*
X968634D01*
Y649308D01*
X967514D01*
Y649588D01*
X967234D01*
Y649868D01*
X966954D01*
Y650148D01*
X966393D01*
Y649868D01*
X965553D01*
Y650148D01*
X965273D01*
Y650428D01*
X964993D01*
Y650708D01*
X963312D01*
Y651268D01*
X961352D01*
Y651829D01*
X961072D01*
Y652109D01*
X959951D01*
Y651829D01*
X959671D01*
Y652109D01*
X959391D01*
Y652389D01*
X959111D01*
Y652669D01*
X957431D01*
Y652949D01*
X957151D01*
Y653229D01*
X956871D01*
Y653509D01*
X956311D01*
Y653229D01*
X955470D01*
Y653509D01*
X955190D01*
Y653789D01*
X954910D01*
Y654069D01*
X952669D01*
Y654349D01*
X952389D01*
Y654630D01*
X949869D01*
Y655190D01*
X949589D01*
Y655470D01*
X947908D01*
Y655190D01*
X947628D01*
Y655470D01*
X947068D01*
Y656030D01*
X943147D01*
Y656590D01*
X942587D01*
Y656870D01*
X942307D01*
Y656590D01*
X938105D01*
Y656870D01*
X937825D01*
Y657150D01*
X937545D01*
Y657430D01*
X925222D01*
Y657150D01*
X924941D01*
Y656870D01*
X924661D01*
Y656590D01*
X914298D01*
Y656870D01*
X914018D01*
Y656590D01*
X913458D01*
Y656030D01*
X902815D01*
Y656590D01*
X902255D01*
Y656870D01*
X901975D01*
Y657430D01*
X900855D01*
Y657710D01*
X900575D01*
Y657990D01*
X900294D01*
Y658270D01*
X900014D01*
Y658551D01*
X899734D01*
Y658831D01*
X898894D01*
Y659111D01*
X898614D01*
Y659391D01*
X898334D01*
Y659671D01*
X898054D01*
Y659951D01*
X896934D01*
Y660231D01*
X896654D01*
Y660791D01*
X895533D01*
Y661071D01*
X895253D01*
Y661351D01*
X894133D01*
Y661911D01*
X893853D01*
Y662192D01*
X893292D01*
Y668073D01*
X893853D01*
Y668353D01*
X894133D01*
Y671434D01*
X893853D01*
Y671714D01*
X894133D01*
Y671994D01*
X894413D01*
Y672274D01*
X894693D01*
Y672835D01*
X896093D01*
Y673675D01*
Y673955D01*
Y674235D01*
X896654D01*
Y674515D01*
X896934D01*
Y674795D01*
X897214D01*
Y675075D01*
X897494D01*
Y676196D01*
X898054D01*
Y676756D01*
X898614D01*
Y677036D01*
X898894D01*
Y676756D01*
X899734D01*
Y677036D01*
X900014D01*
Y677316D01*
X900294D01*
Y677596D01*
X901415D01*
Y678156D01*
X903375D01*
Y678716D01*
X903655D01*
Y678996D01*
X905336D01*
Y678716D01*
X905616D01*
Y678996D01*
X906176D01*
Y679557D01*
X908137D01*
Y680117D01*
X909257D01*
Y680397D01*
X909537D01*
Y680957D01*
X936145D01*
Y680677D01*
D02*
G37*
G36*
X871727Y680397D02*
X872007D01*
Y680117D01*
X873687D01*
Y680397D01*
X873967D01*
Y680117D01*
X874527D01*
Y679557D01*
X876488D01*
Y678996D01*
X877048D01*
Y678716D01*
X877328D01*
Y678996D01*
X878168D01*
Y678716D01*
X878448D01*
Y678436D01*
X878728D01*
Y678156D01*
X880409D01*
Y677876D01*
X880689D01*
Y677596D01*
X882369D01*
Y677316D01*
X882650D01*
Y677036D01*
X882930D01*
Y676756D01*
X884610D01*
Y677036D01*
X884890D01*
Y676756D01*
X885170D01*
Y676476D01*
X885450D01*
Y676196D01*
X887971D01*
Y675635D01*
X888531D01*
Y675355D01*
X888811D01*
Y675635D01*
X889651D01*
Y675355D01*
X889932D01*
Y668633D01*
Y668353D01*
Y664152D01*
X889651D01*
Y663872D01*
X889371D01*
Y663592D01*
X889091D01*
Y663312D01*
X888811D01*
Y663032D01*
X888531D01*
Y662192D01*
X888251D01*
Y661911D01*
X887971D01*
Y661631D01*
X887691D01*
Y661351D01*
X887411D01*
Y661071D01*
X887131D01*
Y660791D01*
X886851D01*
Y660511D01*
X886571D01*
Y659391D01*
X886011D01*
Y658270D01*
X885730D01*
Y657990D01*
X885450D01*
Y657710D01*
X885170D01*
Y657430D01*
X884050D01*
Y656870D01*
X883770D01*
Y656590D01*
X882650D01*
Y656310D01*
X882369D01*
Y656030D01*
X880689D01*
Y655750D01*
X880409D01*
Y655470D01*
X880129D01*
Y655190D01*
X879849D01*
Y655470D01*
X878168D01*
Y655190D01*
X877888D01*
Y654910D01*
X877608D01*
Y654630D01*
X875368D01*
Y654349D01*
X875087D01*
Y654069D01*
X872567D01*
Y653509D01*
X872287D01*
Y653229D01*
X870606D01*
Y653509D01*
X870326D01*
Y653229D01*
X869766D01*
Y652669D01*
X867245D01*
Y652389D01*
X866965D01*
Y652109D01*
X866685D01*
Y651829D01*
X866405D01*
Y652109D01*
X864164D01*
Y651829D01*
X863884D01*
Y651548D01*
X863604D01*
Y651268D01*
X862484D01*
Y650708D01*
X861364D01*
Y650428D01*
X861084D01*
Y650148D01*
X860803D01*
Y649868D01*
X860523D01*
Y649588D01*
X860243D01*
Y649308D01*
X859123D01*
Y648748D01*
X858003D01*
Y648468D01*
X857722D01*
Y648188D01*
X857442D01*
Y647907D01*
X857162D01*
Y647627D01*
X856882D01*
Y647347D01*
X855202D01*
Y647067D01*
X854922D01*
Y646787D01*
X854642D01*
Y646507D01*
X854361D01*
Y646227D01*
X854081D01*
Y645947D01*
X853801D01*
Y645667D01*
X853521D01*
Y645387D01*
X852681D01*
Y645107D01*
X852401D01*
Y644827D01*
X852121D01*
Y644547D01*
X851001D01*
Y643986D01*
X850440D01*
Y643426D01*
X850160D01*
Y643146D01*
X849040D01*
Y642866D01*
X848760D01*
Y642586D01*
X848480D01*
Y642306D01*
X848200D01*
Y642026D01*
X847359D01*
Y641746D01*
X847079D01*
Y641466D01*
X846799D01*
Y641186D01*
X846519D01*
Y640906D01*
X846239D01*
Y640626D01*
X845959D01*
Y640345D01*
X845679D01*
Y640065D01*
X845399D01*
Y639785D01*
X845119D01*
Y639505D01*
X844839D01*
Y638665D01*
X844559D01*
Y638385D01*
X844279D01*
Y637825D01*
X843718D01*
Y638105D01*
X843438D01*
Y638665D01*
X842878D01*
Y639225D01*
X842318D01*
Y639785D01*
X841758D01*
Y640065D01*
X841478D01*
Y640626D01*
X840918D01*
Y641186D01*
X840358D01*
Y641746D01*
X840078D01*
Y642026D01*
X839517D01*
Y643146D01*
X839237D01*
Y643426D01*
X838957D01*
Y643706D01*
X838677D01*
Y643986D01*
X838397D01*
Y644267D01*
X838117D01*
Y645107D01*
X838397D01*
Y645387D01*
X838117D01*
Y645947D01*
X837557D01*
Y647907D01*
X836997D01*
Y648468D01*
X836717D01*
Y648748D01*
X836997D01*
Y649308D01*
X836717D01*
Y649588D01*
X836997D01*
Y649868D01*
X837277D01*
Y650148D01*
X837557D01*
Y651268D01*
X838117D01*
Y652389D01*
X838397D01*
Y652669D01*
X838677D01*
Y652949D01*
X838957D01*
Y653229D01*
X839237D01*
Y653509D01*
X839517D01*
Y653789D01*
X839797D01*
Y654069D01*
X840078D01*
Y654349D01*
X840358D01*
Y655190D01*
X840638D01*
Y655470D01*
X840918D01*
Y655750D01*
X841198D01*
Y656030D01*
X841478D01*
Y656310D01*
X841758D01*
Y656590D01*
X842038D01*
Y656870D01*
X842318D01*
Y657990D01*
X842598D01*
Y658270D01*
X842878D01*
Y658551D01*
X843158D01*
Y658831D01*
X843438D01*
Y659111D01*
X843718D01*
Y659951D01*
X843999D01*
Y660231D01*
X844279D01*
Y660511D01*
X844559D01*
Y660791D01*
X844839D01*
Y661071D01*
X845119D01*
Y661351D01*
X845399D01*
Y661631D01*
X845679D01*
Y662752D01*
X846239D01*
Y663312D01*
X846799D01*
Y663592D01*
X847079D01*
Y664712D01*
X847359D01*
Y664992D01*
X847640D01*
Y665273D01*
X847920D01*
Y665553D01*
X848200D01*
Y666393D01*
X848480D01*
Y666673D01*
X848760D01*
Y666953D01*
X849040D01*
Y667233D01*
X849320D01*
Y667513D01*
X849600D01*
Y667793D01*
X849880D01*
Y668073D01*
X850160D01*
Y668353D01*
X850440D01*
Y669474D01*
X850721D01*
Y669754D01*
X851001D01*
Y670034D01*
X851281D01*
Y670314D01*
X851561D01*
Y671154D01*
X851841D01*
Y671434D01*
X852121D01*
Y671714D01*
X852401D01*
Y671994D01*
X852681D01*
Y672274D01*
X852961D01*
Y672554D01*
X853241D01*
Y672835D01*
X853521D01*
Y673115D01*
X853801D01*
Y673395D01*
X854642D01*
Y673675D01*
X854922D01*
Y673955D01*
X855202D01*
Y674235D01*
X856322D01*
Y674515D01*
X856602D01*
Y674795D01*
X856882D01*
Y675075D01*
X857162D01*
Y675355D01*
X857442D01*
Y675635D01*
X858283D01*
Y676476D01*
X858563D01*
Y676756D01*
X858843D01*
Y677036D01*
X859123D01*
Y677316D01*
X859403D01*
Y677596D01*
X859683D01*
Y677876D01*
X859963D01*
Y678156D01*
X860243D01*
Y678436D01*
X860523D01*
Y678716D01*
X860803D01*
Y678996D01*
X861084D01*
Y679557D01*
X862204D01*
Y679837D01*
X862484D01*
Y680117D01*
X863604D01*
Y680397D01*
X863884D01*
Y680957D01*
X871727D01*
Y680397D01*
D02*
G37*
G36*
X886571Y653509D02*
X886851D01*
Y653229D01*
X889932D01*
Y653509D01*
X890212D01*
Y653229D01*
X890492D01*
Y652949D01*
X890772D01*
Y652669D01*
X893292D01*
Y652109D01*
X893853D01*
Y651829D01*
X894133D01*
Y652109D01*
X894973D01*
Y651829D01*
X895253D01*
Y651548D01*
X895533D01*
Y651268D01*
X898054D01*
Y650708D01*
X899174D01*
Y650428D01*
X899454D01*
Y650148D01*
X900014D01*
Y650428D01*
X900294D01*
Y650708D01*
X903375D01*
Y651268D01*
X907857D01*
Y651548D01*
X908137D01*
Y651829D01*
X908417D01*
Y652109D01*
X913458D01*
Y651829D01*
X913738D01*
Y652109D01*
X914018D01*
Y652389D01*
X914298D01*
Y652669D01*
X924101D01*
Y652949D01*
X924381D01*
Y653229D01*
X924661D01*
Y653509D01*
X924941D01*
Y653229D01*
X936985D01*
Y653509D01*
X937265D01*
Y653229D01*
X937545D01*
Y652949D01*
X937825D01*
Y652669D01*
X946228D01*
Y652389D01*
X946508D01*
Y652109D01*
X946788D01*
Y651829D01*
X947348D01*
Y652109D01*
X948188D01*
Y651829D01*
X948468D01*
Y651548D01*
X948748D01*
Y651268D01*
X950989D01*
Y650988D01*
X951269D01*
Y650708D01*
X953790D01*
Y650148D01*
X954070D01*
Y649868D01*
X954910D01*
Y650148D01*
X955470D01*
Y649868D01*
X955750D01*
Y649588D01*
X956030D01*
Y649308D01*
X957711D01*
Y649028D01*
X957991D01*
Y648748D01*
X958271D01*
Y648468D01*
X958831D01*
Y648748D01*
X959671D01*
Y648468D01*
X959951D01*
Y647907D01*
X961912D01*
Y647347D01*
X963032D01*
Y647067D01*
X963312D01*
Y646787D01*
X963593D01*
Y646507D01*
X964433D01*
Y646787D01*
X964713D01*
Y646507D01*
X965273D01*
Y645947D01*
X966393D01*
Y645667D01*
X966673D01*
Y645387D01*
X966954D01*
Y645107D01*
X967514D01*
Y645387D01*
X968354D01*
Y645107D01*
X968634D01*
Y644827D01*
X968914D01*
Y644547D01*
X970034D01*
Y643986D01*
X971155D01*
Y643706D01*
X971435D01*
Y643426D01*
X971715D01*
Y643146D01*
X972555D01*
Y642866D01*
X972835D01*
Y642586D01*
X973955D01*
Y642026D01*
X975076D01*
Y641746D01*
X975356D01*
Y641466D01*
X975636D01*
Y641186D01*
X976756D01*
Y640626D01*
X977877D01*
Y640345D01*
X978157D01*
Y640065D01*
X978437D01*
Y639785D01*
X979277D01*
Y640065D01*
X979557D01*
Y639785D01*
X980117D01*
Y639225D01*
X981237D01*
Y638945D01*
X981518D01*
Y638665D01*
X982638D01*
Y638105D01*
X982918D01*
Y637825D01*
X984038D01*
Y637545D01*
X984318D01*
Y637265D01*
X984598D01*
Y636984D01*
X984878D01*
Y636704D01*
X985159D01*
Y636424D01*
X985439D01*
Y635864D01*
X986559D01*
Y635584D01*
X986839D01*
Y635304D01*
X987119D01*
Y635024D01*
X987399D01*
Y634744D01*
X987679D01*
Y634464D01*
X987959D01*
Y634184D01*
X988240D01*
Y633904D01*
X988520D01*
Y633624D01*
X988800D01*
Y631943D01*
X988520D01*
Y631663D01*
X988240D01*
Y630823D01*
X987959D01*
Y630543D01*
X987679D01*
Y630262D01*
X987399D01*
Y629142D01*
X986839D01*
Y628022D01*
X986559D01*
Y627742D01*
X986279D01*
Y627462D01*
X985999D01*
Y627182D01*
X985719D01*
Y626902D01*
X985439D01*
Y626622D01*
X985159D01*
Y626341D01*
X984878D01*
Y625221D01*
X984318D01*
Y624941D01*
X984038D01*
Y623821D01*
X983758D01*
Y623541D01*
X983478D01*
Y623261D01*
X983198D01*
Y622980D01*
X982918D01*
Y622700D01*
X982638D01*
Y622420D01*
X982358D01*
Y622140D01*
X982078D01*
Y621860D01*
X981798D01*
Y621580D01*
X981518D01*
Y621300D01*
X981237D01*
Y621020D01*
X980677D01*
Y619900D01*
X980397D01*
Y619619D01*
X980117D01*
Y619339D01*
X979837D01*
Y619059D01*
X978717D01*
Y618499D01*
X978437D01*
Y618219D01*
X978157D01*
Y617939D01*
X977877D01*
Y617659D01*
X976756D01*
Y617379D01*
X976476D01*
Y617099D01*
X976196D01*
Y616819D01*
X975916D01*
Y616539D01*
X975636D01*
Y616259D01*
X974796D01*
Y615979D01*
X974516D01*
Y615698D01*
X974236D01*
Y615418D01*
X973955D01*
Y615138D01*
X972835D01*
Y614858D01*
X972555D01*
Y614298D01*
X970594D01*
Y613738D01*
X968074D01*
Y613178D01*
X967794D01*
Y612898D01*
X966113D01*
Y613178D01*
X965833D01*
Y612898D01*
X965273D01*
Y612337D01*
X962752D01*
Y612057D01*
X962472D01*
Y611777D01*
X962192D01*
Y611497D01*
X961912D01*
Y611777D01*
X956871D01*
Y611497D01*
X956590D01*
Y611217D01*
X956311D01*
Y610937D01*
X951269D01*
Y610657D01*
X950989D01*
Y610377D01*
X942587D01*
Y610097D01*
X942307D01*
Y609817D01*
X942026D01*
Y609537D01*
X939786D01*
Y609817D01*
X939506D01*
Y609537D01*
X939226D01*
Y609257D01*
X938945D01*
Y608977D01*
X930543D01*
Y608696D01*
X930263D01*
Y608416D01*
X929983D01*
Y608136D01*
X929423D01*
Y608416D01*
X886851D01*
Y608136D01*
X886291D01*
Y608416D01*
X886011D01*
Y608696D01*
X885730D01*
Y608977D01*
X881249D01*
Y609537D01*
X880689D01*
Y609817D01*
X880409D01*
Y609537D01*
X878728D01*
Y609817D01*
X878448D01*
Y610377D01*
X877328D01*
Y610657D01*
X877048D01*
Y610937D01*
X875368D01*
Y611217D01*
X875087D01*
Y611497D01*
X874807D01*
Y611777D01*
X873967D01*
Y612057D01*
X873687D01*
Y612337D01*
X872567D01*
Y612898D01*
X872007D01*
Y613178D01*
X871727D01*
Y613738D01*
X871166D01*
Y614298D01*
X870606D01*
Y614858D01*
X870326D01*
Y615138D01*
X869206D01*
Y615418D01*
X868926D01*
Y615698D01*
X868646D01*
Y615979D01*
X868365D01*
Y616259D01*
X868085D01*
Y616539D01*
X867805D01*
Y617659D01*
X867245D01*
Y618219D01*
X866965D01*
Y618499D01*
X866405D01*
Y625781D01*
X865845D01*
Y628862D01*
X865565D01*
Y629142D01*
X865285D01*
Y629422D01*
X865005D01*
Y630262D01*
X865285D01*
Y630823D01*
X865005D01*
Y631103D01*
X864725D01*
Y631383D01*
X864444D01*
Y633063D01*
X864164D01*
Y633343D01*
X863884D01*
Y634184D01*
X863604D01*
Y634464D01*
X863324D01*
Y634744D01*
X863044D01*
Y635024D01*
X862764D01*
Y635304D01*
X862484D01*
Y636424D01*
X861924D01*
Y636704D01*
X861644D01*
Y637265D01*
X861084D01*
Y637825D01*
X860523D01*
Y638385D01*
X860243D01*
Y638665D01*
X859683D01*
Y639225D01*
X859123D01*
Y639785D01*
X858563D01*
Y640065D01*
X858283D01*
Y643706D01*
X858563D01*
Y643986D01*
X859123D01*
Y645107D01*
X859403D01*
Y645387D01*
X859683D01*
Y645667D01*
X859963D01*
Y645947D01*
X860243D01*
Y646227D01*
X860523D01*
Y646507D01*
X861364D01*
Y646787D01*
X861644D01*
Y647067D01*
X861924D01*
Y647347D01*
X863044D01*
Y647907D01*
X864164D01*
Y648188D01*
X864444D01*
Y648468D01*
X864725D01*
Y648748D01*
X865845D01*
Y649308D01*
X867805D01*
Y649868D01*
X868926D01*
Y650148D01*
X869206D01*
Y650708D01*
X871166D01*
Y651268D01*
X873127D01*
Y651829D01*
X873407D01*
Y652109D01*
X874247D01*
Y651829D01*
X874807D01*
Y652109D01*
X875087D01*
Y652389D01*
X875368D01*
Y652669D01*
X877888D01*
Y653229D01*
X878448D01*
Y653509D01*
X878728D01*
Y653229D01*
X880409D01*
Y653509D01*
X880689D01*
Y654069D01*
X886571D01*
Y653509D01*
D02*
G37*
G36*
X972892Y767156D02*
X973378Y767122D01*
X973864Y767087D01*
X974419Y767052D01*
X974489D01*
X974697Y767018D01*
X974975Y766983D01*
X975392Y766948D01*
X975878Y766879D01*
X976399Y766809D01*
X976989Y766705D01*
X977579Y766601D01*
Y763372D01*
X977544D01*
X977510Y763406D01*
X977406D01*
X977301Y763441D01*
X976954Y763511D01*
X976537Y763580D01*
X976017Y763684D01*
X975461Y763788D01*
X974315Y763962D01*
X974246D01*
X974072Y763997D01*
X973760Y764031D01*
X973413Y764066D01*
X972996Y764101D01*
X972544Y764136D01*
X972093Y764170D01*
X971190D01*
X970878Y764136D01*
X970531Y764101D01*
X970149Y764066D01*
X969767Y763997D01*
X969385Y763927D01*
X969350D01*
X969246Y763893D01*
X969072Y763858D01*
X968864Y763788D01*
X968378Y763580D01*
X967892Y763337D01*
X967857D01*
X967788Y763268D01*
X967579Y763094D01*
X967336Y762851D01*
X967093Y762504D01*
Y762469D01*
X967058Y762434D01*
X967024Y762330D01*
X966989Y762191D01*
X966885Y761844D01*
X966850Y761462D01*
Y761427D01*
Y761358D01*
Y761254D01*
X966885Y761115D01*
X966954Y760802D01*
X967058Y760420D01*
Y760386D01*
X967093Y760351D01*
X967232Y760143D01*
X967475Y759865D01*
X967649Y759726D01*
X967857Y759552D01*
X967892Y759518D01*
X967961Y759483D01*
X968100Y759413D01*
X968274Y759275D01*
X968517Y759170D01*
X968795Y758997D01*
X969107Y758858D01*
X969489Y758684D01*
X969524Y758650D01*
X969697Y758615D01*
X969906Y758511D01*
X970253Y758407D01*
X970635Y758268D01*
X971121Y758129D01*
X971676Y757920D01*
X972301Y757747D01*
X972336D01*
X972371Y757712D01*
X972475D01*
X972614Y757643D01*
X972961Y757539D01*
X973378Y757400D01*
X973864Y757261D01*
X974385Y757052D01*
X974906Y756844D01*
X975392Y756636D01*
X975461Y756601D01*
X975600Y756532D01*
X975843Y756427D01*
X976121Y756254D01*
X976468Y756045D01*
X976815Y755837D01*
X977162Y755594D01*
X977475Y755316D01*
X977510Y755282D01*
X977614Y755177D01*
X977753Y755039D01*
X977926Y754830D01*
X978100Y754587D01*
X978308Y754309D01*
X978482Y753997D01*
X978621Y753650D01*
Y753615D01*
X978690Y753476D01*
X978725Y753302D01*
X978794Y753059D01*
X978864Y752747D01*
X978899Y752400D01*
X978968Y751983D01*
Y751566D01*
Y751532D01*
Y751393D01*
X978933Y751184D01*
Y750907D01*
X978864Y750594D01*
X978794Y750247D01*
X978725Y749934D01*
X978586Y749587D01*
Y749553D01*
X978517Y749448D01*
X978447Y749275D01*
X978308Y749066D01*
X977996Y748580D01*
X977544Y748025D01*
X977510Y747990D01*
X977440Y747921D01*
X977301Y747782D01*
X977128Y747643D01*
X976919Y747469D01*
X976642Y747261D01*
X976051Y746879D01*
X976017Y746844D01*
X975913Y746809D01*
X975739Y746705D01*
X975496Y746601D01*
X975218Y746462D01*
X974906Y746323D01*
X974211Y746080D01*
X974176D01*
X974038Y746046D01*
X973864Y745976D01*
X973621Y745941D01*
X973308Y745872D01*
X972996Y745803D01*
X972232Y745664D01*
X972197D01*
X972058Y745629D01*
X971850Y745594D01*
X971607D01*
X971295Y745559D01*
X970982Y745525D01*
X970253Y745490D01*
X969489D01*
X968968Y745525D01*
X968343D01*
X967683Y745594D01*
X967024Y745629D01*
X966329Y745698D01*
X966260D01*
X966156Y745733D01*
X966017D01*
X965670Y745768D01*
X965218Y745837D01*
X964697Y745907D01*
X964107Y746011D01*
X963482Y746150D01*
X962857Y746289D01*
Y749622D01*
X962892D01*
X962927Y749587D01*
X963031D01*
X963170Y749518D01*
X963517Y749448D01*
X964003Y749309D01*
X964524Y749171D01*
X965149Y749032D01*
X965808Y748893D01*
X966468Y748789D01*
X966538D01*
X966642Y748754D01*
X966781D01*
X967128Y748719D01*
X967614Y748684D01*
X968170Y748615D01*
X968760Y748580D01*
X969420Y748546D01*
X970496D01*
X970739Y748580D01*
X970982D01*
X971538Y748650D01*
X972163Y748719D01*
X972822Y748823D01*
X973413Y748997D01*
X973933Y749240D01*
X974003Y749275D01*
X974142Y749379D01*
X974350Y749553D01*
X974593Y749761D01*
X974801Y750073D01*
X975010Y750421D01*
X975149Y750837D01*
X975218Y751289D01*
Y751323D01*
Y751393D01*
Y751497D01*
X975183Y751636D01*
X975149Y751948D01*
X975010Y752296D01*
Y752330D01*
X974975Y752365D01*
X974836Y752573D01*
X974628Y752851D01*
X974281Y753129D01*
X974246Y753164D01*
X974176Y753198D01*
X974072Y753268D01*
X973899Y753407D01*
X973656Y753511D01*
X973378Y753650D01*
X973031Y753823D01*
X972649Y753962D01*
X972614Y753997D01*
X972440Y754032D01*
X972197Y754136D01*
X971885Y754275D01*
X971468Y754414D01*
X970947Y754587D01*
X970357Y754795D01*
X969697Y755004D01*
X969628Y755039D01*
X969454Y755073D01*
X969176Y755177D01*
X968829Y755282D01*
X968413Y755420D01*
X967996Y755559D01*
X967058Y755941D01*
X967024Y755976D01*
X966850Y756045D01*
X966642Y756150D01*
X966364Y756289D01*
X966017Y756462D01*
X965670Y756705D01*
X964975Y757191D01*
X964940Y757226D01*
X964836Y757330D01*
X964663Y757469D01*
X964489Y757677D01*
X964281Y757920D01*
X964038Y758233D01*
X963829Y758545D01*
X963621Y758893D01*
X963586Y758927D01*
X963552Y759066D01*
X963482Y759275D01*
X963378Y759552D01*
X963274Y759900D01*
X963204Y760316D01*
X963170Y760733D01*
X963135Y761219D01*
Y761254D01*
Y761358D01*
X963170Y761566D01*
Y761775D01*
X963239Y762052D01*
X963308Y762400D01*
X963378Y762747D01*
X963517Y763129D01*
X963552Y763163D01*
X963586Y763302D01*
X963690Y763511D01*
X963864Y763788D01*
X964038Y764066D01*
X964281Y764413D01*
X964558Y764726D01*
X964906Y765073D01*
X964940Y765108D01*
X965079Y765212D01*
X965288Y765386D01*
X965600Y765594D01*
X965982Y765837D01*
X966433Y766080D01*
X966954Y766323D01*
X967545Y766566D01*
X967579D01*
X967614Y766601D01*
X967718Y766636D01*
X967857Y766670D01*
X968204Y766775D01*
X968690Y766879D01*
X969281Y766983D01*
X970010Y767087D01*
X970808Y767156D01*
X971711Y767191D01*
X972510D01*
X972892Y767156D01*
D02*
G37*
G36*
X808380Y755594D02*
Y745872D01*
X804630D01*
Y755698D01*
X794769Y773129D01*
X799248D01*
X804665Y763129D01*
X806644Y759136D01*
X808484Y762782D01*
X813970Y773129D01*
X818241D01*
X808380Y755594D01*
D02*
G37*
G36*
X861886Y745872D02*
X858588D01*
X858483Y749240D01*
X858449Y749205D01*
X858310Y749066D01*
X858136Y748858D01*
X857893Y748615D01*
X857615Y748337D01*
X857338Y748025D01*
X856678Y747434D01*
X856643Y747400D01*
X856539Y747330D01*
X856365Y747191D01*
X856157Y747018D01*
X855914Y746844D01*
X855636Y746636D01*
X855011Y746289D01*
X854977D01*
X854872Y746219D01*
X854699Y746150D01*
X854490Y746046D01*
X854247Y745976D01*
X853935Y745872D01*
X853310Y745698D01*
X853275D01*
X853171Y745664D01*
X852997Y745629D01*
X852789Y745594D01*
X852511Y745559D01*
X852199Y745525D01*
X851539Y745490D01*
X851227D01*
X851018Y745525D01*
X850741Y745559D01*
X850428Y745594D01*
X849734Y745733D01*
X848935Y745941D01*
X848136Y746289D01*
X847720Y746497D01*
X847372Y746740D01*
X846991Y747053D01*
X846678Y747365D01*
Y747400D01*
X846609Y747469D01*
X846539Y747573D01*
X846435Y747712D01*
X846296Y747921D01*
X846157Y748164D01*
X846018Y748476D01*
X845879Y748789D01*
X845706Y749171D01*
X845567Y749587D01*
X845428Y750073D01*
X845289Y750594D01*
X845185Y751150D01*
X845116Y751740D01*
X845081Y752400D01*
X845046Y753094D01*
Y766809D01*
X848692D01*
Y753372D01*
Y753302D01*
Y753164D01*
X848727Y752921D01*
X848761Y752608D01*
X848796Y752261D01*
X848900Y751844D01*
X849004Y751427D01*
X849143Y750976D01*
X849352Y750525D01*
X849560Y750108D01*
X849872Y749691D01*
X850220Y749344D01*
X850636Y749032D01*
X851122Y748789D01*
X851678Y748650D01*
X852303Y748580D01*
X852546D01*
X852720Y748615D01*
X853136Y748650D01*
X853588Y748754D01*
X853622D01*
X853692Y748789D01*
X853831Y748858D01*
X854004Y748928D01*
X854421Y749136D01*
X854907Y749448D01*
X854942Y749483D01*
X855046Y749553D01*
X855185Y749657D01*
X855359Y749796D01*
X855602Y749969D01*
X855845Y750212D01*
X856157Y750490D01*
X856435Y750768D01*
X856470Y750802D01*
X856574Y750907D01*
X856747Y751115D01*
X856956Y751358D01*
X857233Y751636D01*
X857546Y752018D01*
X857858Y752434D01*
X858240Y752886D01*
Y766809D01*
X861886D01*
Y745872D01*
D02*
G37*
G36*
X897302Y749032D02*
X909212D01*
Y745872D01*
X893518D01*
Y773129D01*
X897302D01*
Y749032D01*
D02*
G37*
G36*
X995010Y767156D02*
X995253D01*
X995773Y767122D01*
X996364Y767018D01*
X997023Y766913D01*
X997683Y766740D01*
X998343Y766497D01*
X998378D01*
X998412Y766462D01*
X998621Y766358D01*
X998933Y766219D01*
X999350Y765976D01*
X999801Y765698D01*
X1000253Y765386D01*
X1000739Y764969D01*
X1001190Y764518D01*
X1001225Y764448D01*
X1001364Y764309D01*
X1001572Y764031D01*
X1001850Y763684D01*
X1002128Y763233D01*
X1002405Y762712D01*
X1002683Y762122D01*
X1002926Y761462D01*
Y761427D01*
X1002961Y761393D01*
X1002996Y761288D01*
X1003030Y761150D01*
X1003134Y760768D01*
X1003239Y760282D01*
X1003343Y759691D01*
X1003447Y758997D01*
X1003516Y758233D01*
X1003551Y757434D01*
Y757400D01*
Y757295D01*
Y757157D01*
Y756983D01*
Y756566D01*
X1003516Y756150D01*
Y756115D01*
Y756045D01*
Y755976D01*
X1003482Y755837D01*
Y755525D01*
X1003447Y755177D01*
X988760D01*
Y755143D01*
Y755039D01*
Y754865D01*
X988794Y754657D01*
X988829Y754379D01*
X988864Y754066D01*
X988968Y753337D01*
X989176Y752539D01*
X989523Y751705D01*
X989697Y751323D01*
X989940Y750941D01*
X990218Y750559D01*
X990530Y750212D01*
X990565Y750177D01*
X990600Y750143D01*
X990704Y750073D01*
X990878Y749934D01*
X991051Y749830D01*
X991294Y749691D01*
X991537Y749518D01*
X991850Y749379D01*
X992197Y749205D01*
X992579Y749066D01*
X992996Y748893D01*
X993482Y748789D01*
X993968Y748684D01*
X994523Y748580D01*
X995079Y748546D01*
X995704Y748511D01*
X996294D01*
X996572Y748546D01*
X996885D01*
X997544Y748580D01*
X997718D01*
X997891Y748615D01*
X998135D01*
X998378Y748650D01*
X998690Y748684D01*
X999315Y748754D01*
X999350D01*
X999454Y748789D01*
X999628Y748823D01*
X999836Y748858D01*
X1000079Y748893D01*
X1000357Y748928D01*
X1000947Y749032D01*
X1000982D01*
X1001086Y749066D01*
X1001225Y749101D01*
X1001433Y749136D01*
X1001919Y749275D01*
X1002440Y749414D01*
Y746428D01*
X1002371D01*
X1002162Y746358D01*
X1001885Y746289D01*
X1001468Y746184D01*
X1000947Y746080D01*
X1000391Y745976D01*
X999766Y745872D01*
X999072Y745768D01*
X999003D01*
X998898Y745733D01*
X998760D01*
X998378Y745698D01*
X997891Y745629D01*
X997301Y745594D01*
X996641Y745525D01*
X995947Y745490D01*
X994766D01*
X994523Y745525D01*
X994246D01*
X993621Y745594D01*
X992891Y745664D01*
X992128Y745803D01*
X991329Y745976D01*
X990565Y746219D01*
X990530D01*
X990496Y746254D01*
X990391Y746289D01*
X990253Y746358D01*
X989871Y746532D01*
X989454Y746775D01*
X988933Y747053D01*
X988412Y747434D01*
X987857Y747851D01*
X987371Y748337D01*
X987301Y748407D01*
X987162Y748580D01*
X986954Y748893D01*
X986676Y749275D01*
X986398Y749761D01*
X986086Y750351D01*
X985808Y750976D01*
X985565Y751705D01*
Y751740D01*
X985530Y751809D01*
X985496Y751914D01*
X985461Y752052D01*
X985426Y752261D01*
X985392Y752469D01*
X985287Y753025D01*
X985149Y753719D01*
X985079Y754483D01*
X985010Y755351D01*
X984975Y756289D01*
Y756323D01*
Y756393D01*
Y756497D01*
Y756670D01*
X985010Y756879D01*
Y757087D01*
X985044Y757643D01*
X985114Y758268D01*
X985253Y758997D01*
X985392Y759726D01*
X985600Y760455D01*
Y760490D01*
X985635Y760559D01*
X985669Y760663D01*
X985704Y760802D01*
X985878Y761150D01*
X986051Y761636D01*
X986329Y762157D01*
X986642Y762747D01*
X987023Y763337D01*
X987440Y763927D01*
Y763962D01*
X987510Y763997D01*
X987648Y764170D01*
X987926Y764448D01*
X988273Y764795D01*
X988690Y765177D01*
X989211Y765559D01*
X989801Y765941D01*
X990426Y766288D01*
X990461D01*
X990496Y766323D01*
X990600Y766358D01*
X990739Y766427D01*
X991121Y766566D01*
X991607Y766740D01*
X992197Y766913D01*
X992857Y767052D01*
X993621Y767156D01*
X994454Y767191D01*
X994836D01*
X995010Y767156D01*
D02*
G37*
G36*
X948100D02*
X948343D01*
X948864Y767087D01*
X949489Y767018D01*
X950184Y766879D01*
X950843Y766705D01*
X951538Y766462D01*
X951573D01*
X951607Y766427D01*
X951712Y766393D01*
X951850Y766323D01*
X952163Y766184D01*
X952614Y765941D01*
X953066Y765663D01*
X953586Y765316D01*
X954107Y764900D01*
X954593Y764413D01*
X954663Y764344D01*
X954802Y764170D01*
X955010Y763893D01*
X955288Y763511D01*
X955600Y763025D01*
X955913Y762469D01*
X956225Y761809D01*
X956503Y761080D01*
Y761045D01*
X956538Y760976D01*
X956572Y760872D01*
X956607Y760733D01*
X956642Y760525D01*
X956711Y760316D01*
X956850Y759761D01*
X956954Y759066D01*
X957059Y758302D01*
X957128Y757434D01*
X957163Y756497D01*
Y756462D01*
Y756393D01*
Y756254D01*
Y756080D01*
X957128Y755872D01*
Y755629D01*
X957093Y755039D01*
X956989Y754344D01*
X956885Y753580D01*
X956711Y752816D01*
X956468Y752018D01*
Y751983D01*
X956434Y751914D01*
X956399Y751809D01*
X956329Y751671D01*
X956191Y751289D01*
X955947Y750802D01*
X955670Y750247D01*
X955322Y749691D01*
X954906Y749066D01*
X954454Y748511D01*
X954385Y748441D01*
X954211Y748268D01*
X953934Y748025D01*
X953586Y747712D01*
X953135Y747330D01*
X952579Y746983D01*
X951954Y746601D01*
X951295Y746289D01*
X951260D01*
X951225Y746254D01*
X951121Y746219D01*
X950982Y746150D01*
X950809Y746115D01*
X950600Y746046D01*
X950079Y745907D01*
X949454Y745733D01*
X948760Y745629D01*
X947962Y745525D01*
X947094Y745490D01*
X946712D01*
X946538Y745525D01*
X946295D01*
X945774Y745594D01*
X945149Y745664D01*
X944455Y745768D01*
X943760Y745941D01*
X943066Y746184D01*
X943031D01*
X942996Y746219D01*
X942892Y746254D01*
X942788Y746323D01*
X942441Y746462D01*
X942024Y746705D01*
X941538Y746983D01*
X941052Y747330D01*
X940531Y747747D01*
X940045Y748233D01*
X939976Y748303D01*
X939837Y748476D01*
X939628Y748754D01*
X939351Y749171D01*
X939038Y749657D01*
X938726Y750212D01*
X938413Y750872D01*
X938135Y751566D01*
Y751601D01*
X938101Y751671D01*
X938066Y751775D01*
X938031Y751914D01*
X937996Y752122D01*
X937927Y752330D01*
X937823Y752886D01*
X937719Y753580D01*
X937614Y754379D01*
X937545Y755247D01*
X937510Y756184D01*
Y756219D01*
Y756289D01*
Y756427D01*
Y756601D01*
X937545Y756809D01*
Y757087D01*
X937580Y757677D01*
X937684Y758372D01*
X937788Y759101D01*
X937962Y759900D01*
X938170Y760663D01*
Y760698D01*
X938205Y760768D01*
X938239Y760872D01*
X938309Y761011D01*
X938448Y761393D01*
X938691Y761844D01*
X938969Y762400D01*
X939316Y762955D01*
X939698Y763545D01*
X940149Y764101D01*
X940219Y764170D01*
X940392Y764344D01*
X940670Y764622D01*
X941052Y764934D01*
X941503Y765281D01*
X942024Y765663D01*
X942649Y766045D01*
X943309Y766358D01*
X943344D01*
X943378Y766393D01*
X943482Y766427D01*
X943656Y766497D01*
X943830Y766566D01*
X944038Y766636D01*
X944559Y766775D01*
X945184Y766913D01*
X945878Y767052D01*
X946677Y767156D01*
X947545Y767191D01*
X947927D01*
X948100Y767156D01*
D02*
G37*
G36*
X924629D02*
X924872D01*
X925392Y767087D01*
X926017Y767018D01*
X926712Y766879D01*
X927372Y766705D01*
X928066Y766462D01*
X928101D01*
X928135Y766427D01*
X928240Y766393D01*
X928378Y766323D01*
X928691Y766184D01*
X929142Y765941D01*
X929594Y765663D01*
X930115Y765316D01*
X930635Y764900D01*
X931121Y764413D01*
X931191Y764344D01*
X931330Y764170D01*
X931538Y763893D01*
X931816Y763511D01*
X932128Y763025D01*
X932441Y762469D01*
X932753Y761809D01*
X933031Y761080D01*
Y761045D01*
X933066Y760976D01*
X933101Y760872D01*
X933135Y760733D01*
X933170Y760525D01*
X933240Y760316D01*
X933378Y759761D01*
X933483Y759066D01*
X933587Y758302D01*
X933656Y757434D01*
X933691Y756497D01*
Y756462D01*
Y756393D01*
Y756254D01*
Y756080D01*
X933656Y755872D01*
Y755629D01*
X933621Y755039D01*
X933517Y754344D01*
X933413Y753580D01*
X933240Y752816D01*
X932996Y752018D01*
Y751983D01*
X932962Y751914D01*
X932927Y751809D01*
X932858Y751671D01*
X932719Y751289D01*
X932476Y750802D01*
X932198Y750247D01*
X931851Y749691D01*
X931434Y749066D01*
X930983Y748511D01*
X930913Y748441D01*
X930740Y748268D01*
X930462Y748025D01*
X930115Y747712D01*
X929663Y747330D01*
X929108Y746983D01*
X928483Y746601D01*
X927823Y746289D01*
X927788D01*
X927753Y746254D01*
X927649Y746219D01*
X927510Y746150D01*
X927337Y746115D01*
X927128Y746046D01*
X926608Y745907D01*
X925983Y745733D01*
X925288Y745629D01*
X924490Y745525D01*
X923622Y745490D01*
X923240D01*
X923066Y745525D01*
X922823D01*
X922302Y745594D01*
X921677Y745664D01*
X920983Y745768D01*
X920288Y745941D01*
X919594Y746184D01*
X919559D01*
X919524Y746219D01*
X919420Y746254D01*
X919316Y746323D01*
X918969Y746462D01*
X918552Y746705D01*
X918066Y746983D01*
X917580Y747330D01*
X917059Y747747D01*
X916573Y748233D01*
X916504Y748303D01*
X916365Y748476D01*
X916156Y748754D01*
X915879Y749171D01*
X915566Y749657D01*
X915254Y750212D01*
X914941Y750872D01*
X914663Y751566D01*
Y751601D01*
X914629Y751671D01*
X914594Y751775D01*
X914559Y751914D01*
X914524Y752122D01*
X914455Y752330D01*
X914351Y752886D01*
X914247Y753580D01*
X914143Y754379D01*
X914073Y755247D01*
X914038Y756184D01*
Y756219D01*
Y756289D01*
Y756427D01*
Y756601D01*
X914073Y756809D01*
Y757087D01*
X914108Y757677D01*
X914212Y758372D01*
X914316Y759101D01*
X914490Y759900D01*
X914698Y760663D01*
Y760698D01*
X914733Y760768D01*
X914768Y760872D01*
X914837Y761011D01*
X914976Y761393D01*
X915219Y761844D01*
X915497Y762400D01*
X915844Y762955D01*
X916226Y763545D01*
X916677Y764101D01*
X916747Y764170D01*
X916920Y764344D01*
X917198Y764622D01*
X917580Y764934D01*
X918031Y765281D01*
X918552Y765663D01*
X919177Y766045D01*
X919837Y766358D01*
X919872D01*
X919906Y766393D01*
X920011Y766427D01*
X920184Y766497D01*
X920358Y766566D01*
X920566Y766636D01*
X921087Y766775D01*
X921712Y766913D01*
X922406Y767052D01*
X923205Y767156D01*
X924073Y767191D01*
X924455D01*
X924629Y767156D01*
D02*
G37*
G36*
X830741D02*
X830984D01*
X831505Y767087D01*
X832130Y767018D01*
X832824Y766879D01*
X833484Y766705D01*
X834178Y766462D01*
X834213D01*
X834248Y766427D01*
X834352Y766393D01*
X834491Y766323D01*
X834803Y766184D01*
X835255Y765941D01*
X835706Y765663D01*
X836227Y765316D01*
X836748Y764900D01*
X837234Y764413D01*
X837303Y764344D01*
X837442Y764170D01*
X837650Y763893D01*
X837928Y763511D01*
X838241Y763025D01*
X838553Y762469D01*
X838866Y761809D01*
X839143Y761080D01*
Y761045D01*
X839178Y760976D01*
X839213Y760872D01*
X839248Y760733D01*
X839282Y760525D01*
X839352Y760316D01*
X839491Y759761D01*
X839595Y759066D01*
X839699Y758302D01*
X839768Y757434D01*
X839803Y756497D01*
Y756462D01*
Y756393D01*
Y756254D01*
Y756080D01*
X839768Y755872D01*
Y755629D01*
X839734Y755039D01*
X839630Y754344D01*
X839525Y753580D01*
X839352Y752816D01*
X839109Y752018D01*
Y751983D01*
X839074Y751914D01*
X839039Y751809D01*
X838970Y751671D01*
X838831Y751289D01*
X838588Y750802D01*
X838310Y750247D01*
X837963Y749691D01*
X837546Y749066D01*
X837095Y748511D01*
X837025Y748441D01*
X836852Y748268D01*
X836574Y748025D01*
X836227Y747712D01*
X835775Y747330D01*
X835220Y746983D01*
X834595Y746601D01*
X833935Y746289D01*
X833900D01*
X833866Y746254D01*
X833762Y746219D01*
X833623Y746150D01*
X833449Y746115D01*
X833241Y746046D01*
X832720Y745907D01*
X832095Y745733D01*
X831400Y745629D01*
X830602Y745525D01*
X829734Y745490D01*
X829352D01*
X829178Y745525D01*
X828935D01*
X828414Y745594D01*
X827789Y745664D01*
X827095Y745768D01*
X826401Y745941D01*
X825706Y746184D01*
X825671D01*
X825637Y746219D01*
X825532Y746254D01*
X825428Y746323D01*
X825081Y746462D01*
X824664Y746705D01*
X824178Y746983D01*
X823692Y747330D01*
X823171Y747747D01*
X822685Y748233D01*
X822616Y748303D01*
X822477Y748476D01*
X822269Y748754D01*
X821991Y749171D01*
X821678Y749657D01*
X821366Y750212D01*
X821053Y750872D01*
X820776Y751566D01*
Y751601D01*
X820741Y751671D01*
X820706Y751775D01*
X820671Y751914D01*
X820637Y752122D01*
X820567Y752330D01*
X820463Y752886D01*
X820359Y753580D01*
X820255Y754379D01*
X820185Y755247D01*
X820151Y756184D01*
Y756219D01*
Y756289D01*
Y756427D01*
Y756601D01*
X820185Y756809D01*
Y757087D01*
X820220Y757677D01*
X820324Y758372D01*
X820428Y759101D01*
X820602Y759900D01*
X820810Y760663D01*
Y760698D01*
X820845Y760768D01*
X820880Y760872D01*
X820949Y761011D01*
X821088Y761393D01*
X821331Y761844D01*
X821609Y762400D01*
X821956Y762955D01*
X822338Y763545D01*
X822789Y764101D01*
X822859Y764170D01*
X823033Y764344D01*
X823310Y764622D01*
X823692Y764934D01*
X824144Y765281D01*
X824664Y765663D01*
X825289Y766045D01*
X825949Y766358D01*
X825984D01*
X826019Y766393D01*
X826123Y766427D01*
X826296Y766497D01*
X826470Y766566D01*
X826678Y766636D01*
X827199Y766775D01*
X827824Y766913D01*
X828519Y767052D01*
X829317Y767156D01*
X830185Y767191D01*
X830567D01*
X830741Y767156D01*
D02*
G37*
%LPC*%
G36*
X881249Y645947D02*
X872007D01*
Y645667D01*
X871727D01*
Y645387D01*
X871446D01*
Y645107D01*
X871166D01*
Y645387D01*
X864444D01*
Y644547D01*
X865005D01*
Y643426D01*
X865285D01*
Y643146D01*
X865845D01*
Y642586D01*
X866405D01*
Y642026D01*
X866965D01*
Y641746D01*
X867245D01*
Y641186D01*
X867805D01*
Y640626D01*
X868365D01*
Y640065D01*
X868646D01*
Y639785D01*
X869206D01*
Y638665D01*
X869486D01*
Y638385D01*
X869766D01*
Y638105D01*
X870046D01*
Y637825D01*
X870326D01*
Y637545D01*
X870606D01*
Y637265D01*
X870886D01*
Y636984D01*
X871166D01*
Y636704D01*
X871446D01*
Y636424D01*
X871727D01*
Y635584D01*
X872007D01*
Y635304D01*
X872287D01*
Y635024D01*
X872567D01*
Y634464D01*
X875648D01*
Y634744D01*
X875928D01*
Y635024D01*
X876208D01*
Y635304D01*
X877048D01*
Y635024D01*
X877328D01*
Y635304D01*
X877888D01*
Y635864D01*
X879849D01*
Y638385D01*
X880129D01*
Y638665D01*
X880409D01*
Y638945D01*
X880689D01*
Y639225D01*
X881809D01*
Y639505D01*
X882089D01*
Y639785D01*
X882369D01*
Y640065D01*
X882650D01*
Y640345D01*
X882930D01*
Y640626D01*
X883210D01*
Y642586D01*
X882650D01*
Y643706D01*
X882369D01*
Y643986D01*
X882089D01*
Y644267D01*
X881809D01*
Y645107D01*
X881529D01*
Y645387D01*
X881249D01*
Y645947D01*
D02*
G37*
G36*
X958551Y639225D02*
X941746D01*
Y638665D01*
X941186D01*
Y638385D01*
X940906D01*
Y638665D01*
X938105D01*
Y638385D01*
X937825D01*
Y638105D01*
X937545D01*
Y637825D01*
X935024D01*
Y637265D01*
X932504D01*
Y636984D01*
X932224D01*
Y636704D01*
X931944D01*
Y636424D01*
X931103D01*
Y636704D01*
X930823D01*
Y636424D01*
X930263D01*
Y635864D01*
X928303D01*
Y635304D01*
X927742D01*
Y635024D01*
X927462D01*
Y635304D01*
X926622D01*
Y635024D01*
X926342D01*
Y634744D01*
X926062D01*
Y634464D01*
X924381D01*
Y634184D01*
X924101D01*
Y633904D01*
X922421D01*
Y633624D01*
X922141D01*
Y633063D01*
X921020D01*
Y632783D01*
X920740D01*
Y632503D01*
X919060D01*
Y632223D01*
X918780D01*
Y631943D01*
X918500D01*
Y631663D01*
X918220D01*
Y631943D01*
X916539D01*
Y631663D01*
X916259D01*
Y631383D01*
X915979D01*
Y631103D01*
X910377D01*
Y631383D01*
X910097D01*
Y631663D01*
X909817D01*
Y631943D01*
X908977D01*
Y632223D01*
X908697D01*
Y632503D01*
X907577D01*
Y632783D01*
X907297D01*
Y633063D01*
X907017D01*
Y633343D01*
X906736D01*
Y633624D01*
X906456D01*
Y633904D01*
X906176D01*
Y634464D01*
X905056D01*
Y634744D01*
X904776D01*
Y635024D01*
X904496D01*
Y635304D01*
X903375D01*
Y635864D01*
X900855D01*
Y636144D01*
X900575D01*
Y636424D01*
X900294D01*
Y636704D01*
X900014D01*
Y636424D01*
X896093D01*
Y636144D01*
X895813D01*
Y635864D01*
X894133D01*
Y635584D01*
X893853D01*
Y635304D01*
X893012D01*
Y635024D01*
X892732D01*
Y634744D01*
X892452D01*
Y634464D01*
X891332D01*
Y633904D01*
X890212D01*
Y633624D01*
X889932D01*
Y633343D01*
X889651D01*
Y633063D01*
X889371D01*
Y632783D01*
X889091D01*
Y632503D01*
X887971D01*
Y631943D01*
X887691D01*
Y631663D01*
X887411D01*
Y631383D01*
X887131D01*
Y631103D01*
X886851D01*
Y630823D01*
X886571D01*
Y630543D01*
X886291D01*
Y630262D01*
X886011D01*
Y629982D01*
X885730D01*
Y629702D01*
X885450D01*
Y629422D01*
X885170D01*
Y629142D01*
X884890D01*
Y628862D01*
X884610D01*
Y628582D01*
X883490D01*
Y628302D01*
X883210D01*
Y627182D01*
X882930D01*
Y626902D01*
X882650D01*
Y626622D01*
X882369D01*
Y626341D01*
X882089D01*
Y626061D01*
X881809D01*
Y625781D01*
X881529D01*
Y625501D01*
X881249D01*
Y625221D01*
X880969D01*
Y624941D01*
X880689D01*
Y624661D01*
X880409D01*
Y624381D01*
X880129D01*
Y624101D01*
X879849D01*
Y623821D01*
X879569D01*
Y623541D01*
X879289D01*
Y622700D01*
X879009D01*
Y622420D01*
X878728D01*
Y622140D01*
X878448D01*
Y621860D01*
X878168D01*
Y621580D01*
X877888D01*
Y621300D01*
X877608D01*
Y621020D01*
X877328D01*
Y620740D01*
X877048D01*
Y620460D01*
X876768D01*
Y620180D01*
X876488D01*
Y619059D01*
X875928D01*
Y618499D01*
X876208D01*
Y618219D01*
X876488D01*
Y617939D01*
X876768D01*
Y617659D01*
X877888D01*
Y617099D01*
X879849D01*
Y616539D01*
X880129D01*
Y616259D01*
X881249D01*
Y615698D01*
X884610D01*
Y615138D01*
X885170D01*
Y614858D01*
X885450D01*
Y615138D01*
X890492D01*
Y614858D01*
X890772D01*
Y614298D01*
X926062D01*
Y614578D01*
X926342D01*
Y614858D01*
X926622D01*
Y615138D01*
X934184D01*
Y614858D01*
X934464D01*
Y615138D01*
X935024D01*
Y615698D01*
X940906D01*
Y615979D01*
X941186D01*
Y616259D01*
X941466D01*
Y616539D01*
X941746D01*
Y616259D01*
X948188D01*
Y616539D01*
X948468D01*
Y616819D01*
X948748D01*
Y617099D01*
X953790D01*
Y617659D01*
X959671D01*
Y617939D01*
X959951D01*
Y618219D01*
X960232D01*
Y618499D01*
X962472D01*
Y618219D01*
X962752D01*
Y618499D01*
X963312D01*
Y619059D01*
X965833D01*
Y619339D01*
X966113D01*
Y619619D01*
X966393D01*
Y619900D01*
X966673D01*
Y619619D01*
X968354D01*
Y619900D01*
X968634D01*
Y620180D01*
X968914D01*
Y620460D01*
X970034D01*
Y621020D01*
X971155D01*
Y621300D01*
X971435D01*
Y621860D01*
X972555D01*
Y622140D01*
X972835D01*
Y622420D01*
X973115D01*
Y622700D01*
X973395D01*
Y622980D01*
X974516D01*
Y623261D01*
X974796D01*
Y623821D01*
X975356D01*
Y624381D01*
X975916D01*
Y624941D01*
X976196D01*
Y625221D01*
X976756D01*
Y626341D01*
X977877D01*
Y626622D01*
X978157D01*
Y627742D01*
X978437D01*
Y628022D01*
X978717D01*
Y628302D01*
X978997D01*
Y628582D01*
X979277D01*
Y629422D01*
X979557D01*
Y629702D01*
X979837D01*
Y629982D01*
X980117D01*
Y630262D01*
X980397D01*
Y630543D01*
X980677D01*
Y631663D01*
X980397D01*
Y631943D01*
X978157D01*
Y632783D01*
X977877D01*
Y633063D01*
X977597D01*
Y633343D01*
X977316D01*
Y634464D01*
X974796D01*
Y635024D01*
X974516D01*
Y635304D01*
X968634D01*
Y635024D01*
X968354D01*
Y635304D01*
X968074D01*
Y635584D01*
X967794D01*
Y635864D01*
X966113D01*
Y636144D01*
X965833D01*
Y636424D01*
X965553D01*
Y636704D01*
X965273D01*
Y637825D01*
X962752D01*
Y638105D01*
X962472D01*
Y638385D01*
X962192D01*
Y638665D01*
X959391D01*
Y638385D01*
X959111D01*
Y638665D01*
X958551D01*
Y639225D01*
D02*
G37*
G36*
X994280Y764309D02*
X994072D01*
X993864Y764275D01*
X993586Y764240D01*
X993239Y764205D01*
X992891Y764101D01*
X992510Y763997D01*
X992128Y763823D01*
X992093Y763788D01*
X991954Y763754D01*
X991780Y763650D01*
X991537Y763511D01*
X991294Y763302D01*
X991016Y763094D01*
X990704Y762851D01*
X990426Y762538D01*
X990391Y762504D01*
X990322Y762400D01*
X990183Y762226D01*
X990010Y761983D01*
X989836Y761670D01*
X989662Y761323D01*
X989454Y760941D01*
X989280Y760525D01*
Y760455D01*
X989211Y760316D01*
X989142Y760073D01*
X989072Y759761D01*
X988968Y759379D01*
X988898Y758927D01*
X988829Y758476D01*
X988760Y757955D01*
X999766D01*
Y758025D01*
Y758198D01*
Y758441D01*
X999732Y758788D01*
X999697Y759170D01*
X999662Y759622D01*
X999558Y760038D01*
X999454Y760490D01*
Y760559D01*
X999385Y760698D01*
X999315Y760907D01*
X999211Y761184D01*
X999072Y761497D01*
X998898Y761844D01*
X998690Y762191D01*
X998447Y762504D01*
X998412Y762538D01*
X998308Y762643D01*
X998169Y762782D01*
X997961Y762990D01*
X997718Y763198D01*
X997440Y763406D01*
X997093Y763615D01*
X996711Y763823D01*
X996676Y763858D01*
X996537Y763893D01*
X996294Y763962D01*
X996016Y764066D01*
X995669Y764170D01*
X995253Y764240D01*
X994801Y764275D01*
X994280Y764309D01*
D02*
G37*
G36*
X947337Y764101D02*
X947059D01*
X946746Y764066D01*
X946364Y764031D01*
X945948Y763927D01*
X945462Y763823D01*
X944975Y763650D01*
X944524Y763441D01*
X944489Y763406D01*
X944350Y763337D01*
X944107Y763198D01*
X943864Y762990D01*
X943552Y762747D01*
X943239Y762469D01*
X942927Y762122D01*
X942614Y761740D01*
X942580Y761705D01*
X942510Y761566D01*
X942371Y761323D01*
X942198Y761011D01*
X942024Y760663D01*
X941851Y760247D01*
X941677Y759761D01*
X941538Y759240D01*
Y759170D01*
X941503Y758997D01*
X941434Y758719D01*
X941399Y758372D01*
X941330Y757920D01*
X941260Y757434D01*
X941226Y756879D01*
Y756323D01*
Y756289D01*
Y756254D01*
Y756150D01*
Y756011D01*
X941260Y755629D01*
X941295Y755177D01*
X941330Y754622D01*
X941399Y754066D01*
X941503Y753476D01*
X941642Y752921D01*
X941677Y752851D01*
X941712Y752677D01*
X941816Y752400D01*
X941955Y752087D01*
X942128Y751671D01*
X942337Y751289D01*
X942580Y750872D01*
X942857Y750490D01*
X942892Y750455D01*
X942996Y750316D01*
X943170Y750143D01*
X943413Y749934D01*
X943691Y749691D01*
X944003Y749483D01*
X944350Y749240D01*
X944767Y749032D01*
X944837Y748997D01*
X944975Y748962D01*
X945219Y748893D01*
X945531Y748789D01*
X945913Y748684D01*
X946330Y748615D01*
X946816Y748580D01*
X947337Y748546D01*
X947614D01*
X947892Y748580D01*
X948274Y748615D01*
X948725Y748684D01*
X949177Y748823D01*
X949628Y748962D01*
X950079Y749171D01*
X950149Y749205D01*
X950288Y749275D01*
X950496Y749414D01*
X950774Y749622D01*
X951052Y749865D01*
X951399Y750143D01*
X951712Y750490D01*
X951989Y750872D01*
X952024Y750907D01*
X952128Y751080D01*
X952267Y751289D01*
X952406Y751601D01*
X952614Y751948D01*
X952788Y752365D01*
X952961Y752816D01*
X953100Y753337D01*
Y753407D01*
X953170Y753580D01*
X953204Y753858D01*
X953274Y754240D01*
X953343Y754691D01*
X953378Y755212D01*
X953447Y755733D01*
Y756323D01*
Y756358D01*
Y756427D01*
Y756497D01*
Y756636D01*
X953413Y757018D01*
X953378Y757469D01*
X953343Y757990D01*
X953274Y758580D01*
X953135Y759136D01*
X952996Y759691D01*
X952961Y759761D01*
X952927Y759934D01*
X952823Y760212D01*
X952684Y760559D01*
X952510Y760941D01*
X952302Y761323D01*
X952059Y761740D01*
X951781Y762122D01*
X951746Y762157D01*
X951642Y762295D01*
X951468Y762469D01*
X951225Y762677D01*
X950948Y762920D01*
X950635Y763163D01*
X950253Y763372D01*
X949837Y763580D01*
X949802Y763615D01*
X949628Y763650D01*
X949420Y763754D01*
X949107Y763858D01*
X948725Y763927D01*
X948309Y764031D01*
X947857Y764066D01*
X947337Y764101D01*
D02*
G37*
G36*
X923865D02*
X923587D01*
X923274Y764066D01*
X922892Y764031D01*
X922476Y763927D01*
X921990Y763823D01*
X921504Y763650D01*
X921052Y763441D01*
X921017Y763406D01*
X920879Y763337D01*
X920635Y763198D01*
X920392Y762990D01*
X920080Y762747D01*
X919767Y762469D01*
X919455Y762122D01*
X919142Y761740D01*
X919108Y761705D01*
X919038Y761566D01*
X918899Y761323D01*
X918726Y761011D01*
X918552Y760663D01*
X918379Y760247D01*
X918205Y759761D01*
X918066Y759240D01*
Y759170D01*
X918031Y758997D01*
X917962Y758719D01*
X917927Y758372D01*
X917858Y757920D01*
X917788Y757434D01*
X917754Y756879D01*
Y756323D01*
Y756289D01*
Y756254D01*
Y756150D01*
Y756011D01*
X917788Y755629D01*
X917823Y755177D01*
X917858Y754622D01*
X917927Y754066D01*
X918031Y753476D01*
X918170Y752921D01*
X918205Y752851D01*
X918240Y752677D01*
X918344Y752400D01*
X918483Y752087D01*
X918656Y751671D01*
X918865Y751289D01*
X919108Y750872D01*
X919386Y750490D01*
X919420Y750455D01*
X919524Y750316D01*
X919698Y750143D01*
X919941Y749934D01*
X920219Y749691D01*
X920531Y749483D01*
X920879Y749240D01*
X921295Y749032D01*
X921365Y748997D01*
X921504Y748962D01*
X921747Y748893D01*
X922059Y748789D01*
X922441Y748684D01*
X922858Y748615D01*
X923344Y748580D01*
X923865Y748546D01*
X924142D01*
X924420Y748580D01*
X924802Y748615D01*
X925253Y748684D01*
X925705Y748823D01*
X926156Y748962D01*
X926608Y749171D01*
X926677Y749205D01*
X926816Y749275D01*
X927024Y749414D01*
X927302Y749622D01*
X927580Y749865D01*
X927927Y750143D01*
X928240Y750490D01*
X928517Y750872D01*
X928552Y750907D01*
X928656Y751080D01*
X928795Y751289D01*
X928934Y751601D01*
X929142Y751948D01*
X929316Y752365D01*
X929490Y752816D01*
X929628Y753337D01*
Y753407D01*
X929698Y753580D01*
X929733Y753858D01*
X929802Y754240D01*
X929871Y754691D01*
X929906Y755212D01*
X929976Y755733D01*
Y756323D01*
Y756358D01*
Y756427D01*
Y756497D01*
Y756636D01*
X929941Y757018D01*
X929906Y757469D01*
X929871Y757990D01*
X929802Y758580D01*
X929663Y759136D01*
X929524Y759691D01*
X929490Y759761D01*
X929455Y759934D01*
X929351Y760212D01*
X929212Y760559D01*
X929038Y760941D01*
X928830Y761323D01*
X928587Y761740D01*
X928309Y762122D01*
X928274Y762157D01*
X928170Y762295D01*
X927997Y762469D01*
X927753Y762677D01*
X927476Y762920D01*
X927163Y763163D01*
X926781Y763372D01*
X926365Y763580D01*
X926330Y763615D01*
X926156Y763650D01*
X925948Y763754D01*
X925635Y763858D01*
X925253Y763927D01*
X924837Y764031D01*
X924385Y764066D01*
X923865Y764101D01*
D02*
G37*
G36*
X829977D02*
X829699D01*
X829387Y764066D01*
X829005Y764031D01*
X828588Y763927D01*
X828102Y763823D01*
X827616Y763650D01*
X827164Y763441D01*
X827130Y763406D01*
X826991Y763337D01*
X826748Y763198D01*
X826505Y762990D01*
X826192Y762747D01*
X825880Y762469D01*
X825567Y762122D01*
X825255Y761740D01*
X825220Y761705D01*
X825151Y761566D01*
X825012Y761323D01*
X824838Y761011D01*
X824664Y760663D01*
X824491Y760247D01*
X824317Y759761D01*
X824178Y759240D01*
Y759170D01*
X824144Y758997D01*
X824074Y758719D01*
X824039Y758372D01*
X823970Y757920D01*
X823901Y757434D01*
X823866Y756879D01*
Y756323D01*
Y756289D01*
Y756254D01*
Y756150D01*
Y756011D01*
X823901Y755629D01*
X823935Y755177D01*
X823970Y754622D01*
X824039Y754066D01*
X824144Y753476D01*
X824283Y752921D01*
X824317Y752851D01*
X824352Y752677D01*
X824456Y752400D01*
X824595Y752087D01*
X824769Y751671D01*
X824977Y751289D01*
X825220Y750872D01*
X825498Y750490D01*
X825532Y750455D01*
X825637Y750316D01*
X825810Y750143D01*
X826053Y749934D01*
X826331Y749691D01*
X826644Y749483D01*
X826991Y749240D01*
X827407Y749032D01*
X827477Y748997D01*
X827616Y748962D01*
X827859Y748893D01*
X828171Y748789D01*
X828553Y748684D01*
X828970Y748615D01*
X829456Y748580D01*
X829977Y748546D01*
X830255D01*
X830532Y748580D01*
X830914Y748615D01*
X831366Y748684D01*
X831817Y748823D01*
X832269Y748962D01*
X832720Y749171D01*
X832789Y749205D01*
X832928Y749275D01*
X833137Y749414D01*
X833414Y749622D01*
X833692Y749865D01*
X834039Y750143D01*
X834352Y750490D01*
X834630Y750872D01*
X834664Y750907D01*
X834768Y751080D01*
X834907Y751289D01*
X835046Y751601D01*
X835255Y751948D01*
X835428Y752365D01*
X835602Y752816D01*
X835741Y753337D01*
Y753407D01*
X835810Y753580D01*
X835845Y753858D01*
X835914Y754240D01*
X835984Y754691D01*
X836018Y755212D01*
X836088Y755733D01*
Y756323D01*
Y756358D01*
Y756427D01*
Y756497D01*
Y756636D01*
X836053Y757018D01*
X836018Y757469D01*
X835984Y757990D01*
X835914Y758580D01*
X835775Y759136D01*
X835637Y759691D01*
X835602Y759761D01*
X835567Y759934D01*
X835463Y760212D01*
X835324Y760559D01*
X835150Y760941D01*
X834942Y761323D01*
X834699Y761740D01*
X834421Y762122D01*
X834387Y762157D01*
X834282Y762295D01*
X834109Y762469D01*
X833866Y762677D01*
X833588Y762920D01*
X833275Y763163D01*
X832894Y763372D01*
X832477Y763580D01*
X832442Y763615D01*
X832269Y763650D01*
X832060Y763754D01*
X831748Y763858D01*
X831366Y763927D01*
X830949Y764031D01*
X830498Y764066D01*
X829977Y764101D01*
D02*
G37*
%LPD*%
M02*
